<svg xmlns="http://www.w3.org/2000/svg" xmlns:xlink="http://www.w3.org/1999/xlink" width="300" zoomAndPan="magnify" viewBox="0 0 224.87999 94.499997" height="126" preserveAspectRatio="xMidYMid meet" version="1.2"><defs><clipPath id="4f3947192b"><path d="M 0.53125 0 L 224.226562 0 L 224.226562 94.003906 L 0.53125 94.003906 Z M 0.53125 0 "/></clipPath><clipPath id="feb5451340"><path d="M 1.121094 0 L 223.636719 0 L 223.636719 93.507812 L 1.121094 93.507812 Z M 1.121094 0 "/></clipPath><clipPath id="86ecb8f65a"><path d="M 15 0 L 210 0 L 210 93.507812 L 15 93.507812 Z M 15 0 "/></clipPath><clipPath id="80b225baf5"><path d="M 84.136719 20.691406 L 127.917969 20.691406 L 127.917969 41.777344 L 84.136719 41.777344 Z M 84.136719 20.691406 "/></clipPath><clipPath id="b0667bdd69"><path d="M 97.082031 30 L 140.746094 30 L 140.746094 51.253906 L 97.082031 51.253906 Z M 97.082031 30 "/></clipPath></defs><g id="f328610126"><g clip-rule="nonzero" clip-path="url(#4f3947192b)"><path style=" stroke:none;fill-rule:nonzero;fill:#ffffff;fill-opacity:1;" d="M 0.53125 0 L 224.347656 0 L 224.347656 94.003906 L 0.53125 94.003906 Z M 0.53125 0 "/><path style=" stroke:none;fill-rule:nonzero;fill:#ffffff;fill-opacity:1;" d="M 0.53125 0 L 224.347656 0 L 224.347656 94.003906 L 0.53125 94.003906 Z M 0.53125 0 "/></g><g clip-rule="nonzero" clip-path="url(#feb5451340)"><path style=" stroke:none;fill-rule:nonzero;fill:#f0f4ff;fill-opacity:1;" d="M 1.121094 0 L 223.757812 0 L 223.757812 93.507812 L 1.121094 93.507812 Z M 1.121094 0 "/><path style=" stroke:none;fill-rule:nonzero;fill:#f0f4ff;fill-opacity:1;" d="M 1.121094 0 L 223.757812 0 L 223.757812 93.507812 L 1.121094 93.507812 Z M 1.121094 0 "/></g><g clip-rule="nonzero" clip-path="url(#86ecb8f65a)"><path style=" stroke:none;fill-rule:nonzero;fill:#f0f4ff;fill-opacity:1;" d="M 15.378906 -50.308594 L 209.503906 -50.308594 L 209.503906 143.808594 L 15.378906 143.808594 Z M 15.378906 -50.308594 "/></g><g clip-rule="nonzero" clip-path="url(#80b225baf5)"><path style=" stroke:none;fill-rule:nonzero;fill:#073215;fill-opacity:1;" d="M 106.375 20.691406 L 127.71875 20.691406 L 105.484375 41.230469 L 84.136719 41.230469 Z M 106.375 20.691406 "/></g><g clip-rule="nonzero" clip-path="url(#b0667bdd69)"><path style=" stroke:none;fill-rule:nonzero;fill:#073215;fill-opacity:1;" d="M 119.402344 30.710938 L 140.746094 30.710938 L 118.511719 51.253906 L 97.164062 51.253906 Z M 119.402344 30.710938 "/></g><path style=" stroke:none;fill-rule:nonzero;fill:#073215;fill-opacity:1;" d="M 93.164062 54.398438 C 93.304688 54.398438 93.417969 54.441406 93.5 54.527344 C 93.582031 54.613281 93.621094 54.726562 93.621094 54.855469 L 93.621094 62.519531 C 93.621094 62.675781 93.574219 62.800781 93.476562 62.898438 C 93.375 62.992188 93.257812 63.039062 93.117188 63.039062 C 93.042969 63.039062 92.96875 63.023438 92.890625 62.996094 C 92.820312 62.96875 92.765625 62.929688 92.722656 62.878906 L 87.441406 55.890625 L 87.6875 55.742188 L 87.6875 62.582031 C 87.6875 62.710938 87.644531 62.824219 87.558594 62.910156 C 87.472656 62.996094 87.355469 63.039062 87.214844 63.039062 C 87.085938 63.039062 86.976562 62.996094 86.898438 62.910156 C 86.816406 62.824219 86.773438 62.710938 86.773438 62.582031 L 86.773438 54.894531 C 86.773438 54.746094 86.820312 54.625 86.917969 54.535156 C 87.007812 54.445312 87.121094 54.398438 87.253906 54.398438 C 87.328125 54.398438 87.40625 54.414062 87.484375 54.441406 C 87.5625 54.46875 87.621094 54.515625 87.664062 54.570312 L 92.871094 61.460938 L 92.710938 61.652344 L 92.710938 54.855469 C 92.710938 54.726562 92.753906 54.613281 92.839844 54.527344 C 92.921875 54.441406 93.03125 54.398438 93.164062 54.398438 M 98.769531 55.683594 L 95.867188 62.742188 C 95.832031 62.839844 95.78125 62.917969 95.695312 62.976562 C 95.613281 63.035156 95.527344 63.0625 95.4375 63.0625 C 95.277344 63.0625 95.164062 63.023438 95.089844 62.941406 C 95.019531 62.859375 94.980469 62.757812 94.980469 62.640625 C 94.972656 62.585938 94.980469 62.523438 95.003906 62.457031 L 98.199219 54.683594 C 98.242188 54.566406 98.304688 54.484375 98.390625 54.429688 C 98.480469 54.375 98.574219 54.351562 98.683594 54.359375 C 98.785156 54.359375 98.882812 54.390625 98.972656 54.449219 C 99.058594 54.503906 99.117188 54.585938 99.152344 54.683594 L 102.335938 62.386719 C 102.359375 62.449219 102.375 62.515625 102.375 62.582031 C 102.375 62.730469 102.324219 62.847656 102.222656 62.933594 C 102.125 63.019531 102.011719 63.0625 101.890625 63.0625 C 101.789062 63.0625 101.703125 63.035156 101.621094 62.976562 C 101.539062 62.917969 101.476562 62.835938 101.433594 62.730469 L 98.496094 55.671875 L 98.769531 55.683594 M 96.488281 60.730469 L 96.90625 59.765625 L 100.570312 59.765625 L 100.757812 60.730469 L 96.488281 60.730469 M 104.234375 54.386719 C 104.308594 54.386719 104.390625 54.40625 104.476562 54.449219 C 104.5625 54.488281 104.632812 54.542969 104.679688 54.609375 L 107.949219 59.554688 L 107.519531 59.542969 L 110.824219 54.609375 C 110.933594 54.453125 111.074219 54.378906 111.246094 54.386719 C 111.375 54.394531 111.492188 54.445312 111.589844 54.535156 C 111.6875 54.625 111.738281 54.746094 111.738281 54.894531 L 111.738281 62.53125 C 111.738281 62.671875 111.6875 62.792969 111.589844 62.890625 C 111.492188 62.988281 111.367188 63.039062 111.222656 63.039062 C 111.074219 63.039062 110.949219 62.988281 110.847656 62.890625 C 110.75 62.792969 110.699219 62.671875 110.699219 62.53125 L 110.699219 55.828125 L 111.011719 55.890625 L 108.097656 60.320312 C 108.050781 60.378906 107.988281 60.429688 107.917969 60.46875 C 107.847656 60.511719 107.777344 60.53125 107.703125 60.53125 C 107.632812 60.53125 107.554688 60.511719 107.480469 60.46875 C 107.40625 60.429688 107.34375 60.378906 107.296875 60.320312 L 104.421875 55.890625 L 104.679688 55.574219 L 104.679688 62.53125 C 104.679688 62.671875 104.636719 62.792969 104.546875 62.890625 C 104.453125 62.988281 104.339844 63.039062 104.199219 63.039062 C 104.058594 63.039062 103.945312 62.988281 103.859375 62.890625 C 103.773438 62.792969 103.730469 62.671875 103.730469 62.53125 L 103.730469 54.894531 C 103.730469 54.761719 103.777344 54.644531 103.871094 54.539062 C 103.964844 54.4375 104.085938 54.386719 104.234375 54.386719 M 116.886719 55.683594 L 113.984375 62.742188 C 113.953125 62.839844 113.894531 62.917969 113.8125 62.976562 C 113.726562 63.035156 113.640625 63.0625 113.550781 63.0625 C 113.398438 63.0625 113.28125 63.023438 113.207031 62.941406 C 113.132812 62.859375 113.09375 62.757812 113.09375 62.640625 C 113.085938 62.585938 113.09375 62.523438 113.121094 62.457031 L 116.316406 54.683594 C 116.359375 54.566406 116.421875 54.484375 116.507812 54.429688 C 116.59375 54.375 116.691406 54.351562 116.796875 54.359375 C 116.90625 54.359375 117.003906 54.390625 117.089844 54.449219 C 117.175781 54.503906 117.234375 54.585938 117.265625 54.683594 L 120.449219 62.386719 C 120.476562 62.449219 120.488281 62.515625 120.488281 62.582031 C 120.488281 62.730469 120.4375 62.847656 120.339844 62.933594 C 120.238281 63.019531 120.132812 63.0625 120.007812 63.0625 C 119.910156 63.0625 119.816406 63.035156 119.734375 62.976562 C 119.652344 62.917969 119.589844 62.835938 119.550781 62.730469 L 116.613281 55.671875 L 116.886719 55.683594 M 114.601562 60.730469 L 115.023438 59.765625 L 118.6875 59.765625 L 118.871094 60.730469 L 114.601562 60.730469 M 128.238281 54.398438 C 128.375 54.398438 128.488281 54.441406 128.570312 54.527344 C 128.652344 54.613281 128.695312 54.726562 128.695312 54.855469 L 128.695312 62.519531 C 128.695312 62.675781 128.644531 62.800781 128.546875 62.898438 C 128.445312 62.992188 128.328125 63.039062 128.191406 63.039062 C 128.117188 63.039062 128.042969 63.023438 127.96875 62.996094 C 127.890625 62.96875 127.835938 62.929688 127.792969 62.878906 L 122.511719 55.890625 L 122.757812 55.742188 L 122.757812 62.582031 C 122.757812 62.710938 122.714844 62.824219 122.628906 62.910156 C 122.542969 62.996094 122.429688 63.039062 122.292969 63.039062 C 122.160156 63.039062 122.050781 62.996094 121.96875 62.910156 C 121.886719 62.824219 121.84375 62.710938 121.84375 62.582031 L 121.84375 54.894531 C 121.84375 54.746094 121.890625 54.625 121.988281 54.535156 C 122.082031 54.445312 122.195312 54.398438 122.328125 54.398438 C 122.402344 54.398438 122.476562 54.414062 122.554688 54.441406 C 122.632812 54.46875 122.691406 54.515625 122.734375 54.570312 L 127.941406 61.460938 L 127.78125 61.652344 L 127.78125 54.855469 C 127.78125 54.726562 127.824219 54.613281 127.910156 54.527344 C 127.996094 54.441406 128.109375 54.398438 128.238281 54.398438 M 138.644531 58.714844 C 138.644531 59.355469 138.539062 59.9375 138.332031 60.476562 C 138.125 61.015625 137.839844 61.488281 137.46875 61.890625 C 137.101562 62.292969 136.660156 62.605469 136.148438 62.828125 C 135.640625 63.050781 135.082031 63.160156 134.480469 63.160156 C 133.875 63.160156 133.316406 63.050781 132.808594 62.828125 C 132.304688 62.605469 131.867188 62.292969 131.496094 61.890625 C 131.128906 61.488281 130.835938 61.015625 130.632812 60.476562 C 130.429688 59.9375 130.324219 59.355469 130.324219 58.714844 C 130.324219 58.074219 130.429688 57.484375 130.632812 56.949219 C 130.835938 56.410156 131.128906 55.9375 131.496094 55.542969 C 131.867188 55.140625 132.304688 54.832031 132.808594 54.609375 C 133.316406 54.386719 133.875 54.273438 134.480469 54.273438 C 135.082031 54.273438 135.640625 54.386719 136.148438 54.609375 C 136.660156 54.832031 137.101562 55.140625 137.46875 55.542969 C 137.839844 55.9375 138.125 56.410156 138.332031 56.949219 C 138.539062 57.484375 138.644531 58.074219 138.644531 58.714844 M 137.582031 58.714844 C 137.582031 58.042969 137.445312 57.445312 137.175781 56.929688 C 136.914062 56.414062 136.546875 56.003906 136.085938 55.710938 C 135.628906 55.410156 135.089844 55.261719 134.480469 55.261719 C 133.875 55.261719 133.339844 55.410156 132.871094 55.710938 C 132.40625 56.003906 132.042969 56.414062 131.78125 56.929688 C 131.515625 57.445312 131.382812 58.042969 131.382812 58.714844 C 131.382812 59.386719 131.515625 59.980469 131.78125 60.5 C 132.042969 61.023438 132.40625 61.433594 132.871094 61.726562 C 133.339844 62.027344 133.875 62.175781 134.480469 62.175781 C 135.089844 62.175781 135.628906 62.027344 136.085938 61.726562 C 136.546875 61.433594 136.914062 61.023438 137.175781 60.5 C 137.445312 59.980469 137.582031 59.386719 137.582031 58.714844 "/><path style=" stroke:none;fill-rule:nonzero;fill:#073215;fill-opacity:1;" d="M 40.175781 66.648438 C 40.261719 66.691406 40.308594 66.757812 40.320312 66.839844 C 40.332031 66.929688 40.308594 67.007812 40.25 67.082031 C 40.207031 67.144531 40.152344 67.175781 40.082031 67.183594 C 40.015625 67.1875 39.949219 67.171875 39.878906 67.136719 C 39.71875 67.042969 39.550781 66.964844 39.367188 66.910156 C 39.183594 66.855469 38.992188 66.828125 38.792969 66.828125 C 38.503906 66.828125 38.246094 66.875 38.011719 66.976562 C 37.773438 67.074219 37.566406 67.214844 37.398438 67.394531 C 37.222656 67.566406 37.085938 67.78125 36.992188 68.027344 C 36.894531 68.273438 36.84375 68.542969 36.84375 68.84375 C 36.84375 69.160156 36.898438 69.445312 37 69.699219 C 37.101562 69.945312 37.238281 70.160156 37.414062 70.335938 C 37.589844 70.507812 37.792969 70.644531 38.027344 70.734375 C 38.261719 70.828125 38.515625 70.875 38.792969 70.875 C 38.984375 70.875 39.175781 70.847656 39.359375 70.792969 C 39.542969 70.738281 39.71875 70.664062 39.878906 70.5625 C 39.949219 70.527344 40.015625 70.515625 40.082031 70.523438 C 40.152344 70.535156 40.210938 70.566406 40.257812 70.625 C 40.316406 70.703125 40.335938 70.785156 40.324219 70.871094 C 40.308594 70.953125 40.261719 71.015625 40.183594 71.054688 C 40.0625 71.128906 39.925781 71.195312 39.769531 71.25 C 39.621094 71.3125 39.457031 71.359375 39.292969 71.390625 C 39.125 71.425781 38.960938 71.441406 38.792969 71.441406 C 38.441406 71.441406 38.117188 71.382812 37.808594 71.261719 C 37.5 71.144531 37.226562 70.96875 36.992188 70.742188 C 36.757812 70.515625 36.570312 70.246094 36.433594 69.921875 C 36.292969 69.605469 36.226562 69.242188 36.226562 68.84375 C 36.226562 68.46875 36.289062 68.125 36.421875 67.808594 C 36.550781 67.5 36.734375 67.226562 36.964844 66.992188 C 37.199219 66.765625 37.472656 66.582031 37.78125 66.453125 C 38.09375 66.320312 38.429688 66.257812 38.792969 66.257812 C 39.039062 66.257812 39.285156 66.289062 39.523438 66.359375 C 39.761719 66.425781 39.980469 66.523438 40.175781 66.648438 M 43.882812 67.636719 C 43.96875 67.636719 44.039062 67.664062 44.09375 67.71875 C 44.148438 67.773438 44.167969 67.84375 44.167969 67.925781 L 44.167969 69.898438 C 44.167969 70.386719 44.035156 70.761719 43.761719 71.03125 C 43.488281 71.292969 43.113281 71.429688 42.628906 71.429688 C 42.144531 71.429688 41.769531 71.292969 41.496094 71.03125 C 41.222656 70.761719 41.089844 70.386719 41.089844 69.898438 L 41.089844 67.925781 C 41.089844 67.84375 41.117188 67.773438 41.171875 67.71875 C 41.222656 67.664062 41.292969 67.636719 41.375 67.636719 C 41.460938 67.636719 41.53125 67.664062 41.585938 67.71875 C 41.640625 67.773438 41.664062 67.84375 41.664062 67.925781 L 41.664062 69.898438 C 41.664062 70.226562 41.75 70.476562 41.921875 70.640625 C 42.085938 70.808594 42.324219 70.894531 42.628906 70.894531 C 42.9375 70.894531 43.179688 70.808594 43.347656 70.640625 C 43.507812 70.476562 43.59375 70.226562 43.59375 69.898438 L 43.59375 67.925781 C 43.59375 67.84375 43.621094 67.773438 43.675781 67.71875 C 43.730469 67.664062 43.800781 67.636719 43.882812 67.636719 M 45.089844 67.65625 L 46.785156 67.65625 C 46.863281 67.65625 46.929688 67.683594 46.980469 67.738281 C 47.03125 67.789062 47.054688 67.855469 47.054688 67.925781 C 47.054688 68.003906 47.03125 68.066406 46.980469 68.117188 C 46.929688 68.167969 46.863281 68.195312 46.785156 68.195312 L 45.089844 68.195312 C 45.015625 68.195312 44.953125 68.167969 44.898438 68.113281 C 44.851562 68.0625 44.824219 67.996094 44.824219 67.917969 C 44.824219 67.847656 44.851562 67.785156 44.898438 67.734375 C 44.953125 67.683594 45.015625 67.65625 45.089844 67.65625 M 45.847656 66.679688 C 45.929688 66.679688 45.996094 66.707031 46.050781 66.761719 C 46.101562 66.816406 46.128906 66.882812 46.128906 66.964844 L 46.128906 70.457031 C 46.128906 70.566406 46.148438 70.65625 46.179688 70.714844 C 46.214844 70.773438 46.257812 70.8125 46.316406 70.832031 C 46.367188 70.855469 46.421875 70.867188 46.476562 70.867188 C 46.523438 70.867188 46.566406 70.859375 46.601562 70.839844 C 46.636719 70.824219 46.679688 70.816406 46.730469 70.816406 C 46.777344 70.816406 46.820312 70.839844 46.863281 70.882812 C 46.902344 70.929688 46.925781 70.988281 46.925781 71.0625 C 46.925781 71.148438 46.875 71.222656 46.773438 71.28125 C 46.671875 71.339844 46.558594 71.371094 46.429688 71.371094 C 46.363281 71.371094 46.285156 71.367188 46.183594 71.355469 C 46.085938 71.347656 45.988281 71.316406 45.890625 71.261719 C 45.792969 71.210938 45.710938 71.125 45.648438 71 C 45.585938 70.875 45.554688 70.703125 45.554688 70.484375 L 45.554688 66.964844 C 45.554688 66.882812 45.582031 66.816406 45.636719 66.761719 C 45.695312 66.707031 45.765625 66.679688 45.847656 66.679688 M 47.703125 67.65625 L 49.398438 67.65625 C 49.476562 67.65625 49.542969 67.683594 49.59375 67.738281 C 49.644531 67.789062 49.667969 67.855469 49.667969 67.925781 C 49.667969 68.003906 49.644531 68.066406 49.59375 68.117188 C 49.542969 68.167969 49.476562 68.195312 49.398438 68.195312 L 47.703125 68.195312 C 47.632812 68.195312 47.570312 68.167969 47.515625 68.113281 C 47.464844 68.0625 47.4375 67.996094 47.4375 67.917969 C 47.4375 67.847656 47.464844 67.785156 47.515625 67.734375 C 47.570312 67.683594 47.632812 67.65625 47.703125 67.65625 M 48.464844 66.679688 C 48.546875 66.679688 48.609375 66.707031 48.664062 66.761719 C 48.714844 66.816406 48.742188 66.882812 48.742188 66.964844 L 48.742188 70.457031 C 48.742188 70.566406 48.761719 70.65625 48.792969 70.714844 C 48.828125 70.773438 48.871094 70.8125 48.929688 70.832031 C 48.984375 70.855469 49.039062 70.867188 49.089844 70.867188 C 49.140625 70.867188 49.183594 70.859375 49.21875 70.839844 C 49.253906 70.824219 49.296875 70.816406 49.339844 70.816406 C 49.390625 70.816406 49.433594 70.839844 49.476562 70.882812 C 49.515625 70.929688 49.539062 70.988281 49.539062 71.0625 C 49.539062 71.148438 49.488281 71.222656 49.386719 71.28125 C 49.289062 71.339844 49.171875 71.371094 49.046875 71.371094 C 48.980469 71.371094 48.898438 71.367188 48.796875 71.355469 C 48.699219 71.347656 48.601562 71.316406 48.507812 71.261719 C 48.410156 71.210938 48.328125 71.125 48.265625 71 C 48.199219 70.875 48.164062 70.703125 48.164062 70.484375 L 48.164062 66.964844 C 48.164062 66.882812 48.195312 66.816406 48.253906 66.761719 C 48.3125 66.707031 48.382812 66.679688 48.464844 66.679688 M 51.019531 71.078125 C 51.019531 71.160156 50.992188 71.230469 50.933594 71.285156 C 50.878906 71.339844 50.808594 71.371094 50.730469 71.371094 C 50.644531 71.371094 50.574219 71.339844 50.519531 71.285156 C 50.46875 71.230469 50.441406 71.160156 50.441406 71.078125 L 50.441406 67.867188 C 50.441406 67.785156 50.46875 67.71875 50.523438 67.660156 C 50.582031 67.605469 50.648438 67.578125 50.730469 67.578125 C 50.808594 67.578125 50.878906 67.605469 50.933594 67.660156 C 50.992188 67.71875 51.019531 67.785156 51.019531 67.867188 L 51.019531 71.078125 M 50.730469 67.09375 C 50.609375 67.09375 50.519531 67.070312 50.464844 67.023438 C 50.40625 66.972656 50.375 66.898438 50.375 66.800781 L 50.375 66.699219 C 50.375 66.597656 50.40625 66.523438 50.46875 66.472656 C 50.535156 66.425781 50.621094 66.402344 50.738281 66.402344 C 50.851562 66.402344 50.9375 66.425781 50.996094 66.472656 C 51.054688 66.523438 51.082031 66.597656 51.082031 66.699219 L 51.082031 66.800781 C 51.082031 66.898438 51.054688 66.972656 50.992188 67.023438 C 50.933594 67.070312 50.84375 67.09375 50.730469 67.09375 M 53.90625 67.546875 C 54.238281 67.546875 54.492188 67.609375 54.679688 67.746094 C 54.871094 67.878906 55.003906 68.0625 55.082031 68.289062 C 55.164062 68.511719 55.203125 68.765625 55.203125 69.042969 L 55.203125 71.078125 C 55.203125 71.160156 55.175781 71.230469 55.121094 71.285156 C 55.0625 71.339844 54.996094 71.371094 54.914062 71.371094 C 54.832031 71.371094 54.761719 71.339844 54.707031 71.285156 C 54.648438 71.230469 54.621094 71.160156 54.621094 71.078125 L 54.621094 69.058594 C 54.621094 68.878906 54.59375 68.710938 54.539062 68.566406 C 54.484375 68.417969 54.394531 68.296875 54.265625 68.214844 C 54.136719 68.125 53.964844 68.078125 53.746094 68.078125 C 53.539062 68.078125 53.355469 68.125 53.183594 68.214844 C 53.015625 68.296875 52.882812 68.417969 52.78125 68.566406 C 52.679688 68.710938 52.628906 68.878906 52.628906 69.058594 L 52.628906 71.078125 C 52.628906 71.160156 52.601562 71.230469 52.546875 71.285156 C 52.492188 71.339844 52.421875 71.371094 52.339844 71.371094 C 52.261719 71.371094 52.191406 71.339844 52.136719 71.285156 C 52.082031 71.230469 52.054688 71.160156 52.054688 71.078125 L 52.054688 67.925781 C 52.054688 67.84375 52.082031 67.773438 52.136719 67.71875 C 52.191406 67.664062 52.261719 67.636719 52.339844 67.636719 C 52.425781 67.636719 52.496094 67.664062 52.550781 67.71875 C 52.601562 67.773438 52.628906 67.84375 52.628906 67.925781 L 52.628906 68.4375 L 52.484375 68.597656 C 52.507812 68.472656 52.566406 68.34375 52.652344 68.21875 C 52.738281 68.09375 52.847656 67.976562 52.976562 67.875 C 53.105469 67.773438 53.25 67.691406 53.410156 67.632812 C 53.570312 67.570312 53.738281 67.546875 53.90625 67.546875 M 57.792969 67.546875 C 58.007812 67.546875 58.199219 67.578125 58.378906 67.648438 C 58.558594 67.71875 58.714844 67.808594 58.847656 67.917969 C 58.976562 68.03125 59.082031 68.148438 59.15625 68.265625 C 59.230469 68.382812 59.269531 68.5 59.269531 68.605469 L 59.121094 68.519531 L 59.121094 67.890625 C 59.121094 67.808594 59.152344 67.738281 59.207031 67.683594 C 59.261719 67.628906 59.332031 67.597656 59.414062 67.597656 C 59.5 67.597656 59.570312 67.628906 59.625 67.683594 C 59.671875 67.738281 59.699219 67.808594 59.699219 67.890625 L 59.699219 71.054688 C 59.699219 71.449219 59.621094 71.777344 59.453125 72.035156 C 59.285156 72.296875 59.0625 72.492188 58.785156 72.621094 C 58.503906 72.75 58.191406 72.816406 57.851562 72.816406 C 57.707031 72.816406 57.546875 72.796875 57.375 72.757812 C 57.195312 72.722656 57.039062 72.675781 56.90625 72.617188 C 56.769531 72.5625 56.6875 72.507812 56.65625 72.449219 C 56.582031 72.398438 56.539062 72.34375 56.519531 72.285156 C 56.503906 72.222656 56.511719 72.167969 56.546875 72.113281 C 56.59375 72.046875 56.652344 72.011719 56.714844 72.011719 C 56.785156 72.011719 56.871094 72.035156 56.976562 72.078125 C 57.027344 72.09375 57.097656 72.117188 57.1875 72.152344 C 57.28125 72.183594 57.386719 72.214844 57.503906 72.242188 C 57.625 72.269531 57.742188 72.28125 57.859375 72.28125 C 58.265625 72.28125 58.582031 72.171875 58.800781 71.960938 C 59.015625 71.746094 59.121094 71.460938 59.121094 71.113281 L 59.121094 70.441406 L 59.203125 70.476562 C 59.171875 70.609375 59.117188 70.734375 59.027344 70.851562 C 58.941406 70.96875 58.835938 71.070312 58.710938 71.160156 C 58.582031 71.246094 58.4375 71.316406 58.28125 71.367188 C 58.128906 71.417969 57.96875 71.441406 57.808594 71.441406 C 57.46875 71.441406 57.171875 71.359375 56.902344 71.191406 C 56.636719 71.023438 56.421875 70.789062 56.265625 70.5 C 56.109375 70.203125 56.03125 69.867188 56.03125 69.496094 C 56.03125 69.113281 56.109375 68.777344 56.265625 68.480469 C 56.421875 68.191406 56.636719 67.957031 56.898438 67.792969 C 57.164062 67.625 57.460938 67.546875 57.792969 67.546875 M 57.875 68.078125 C 57.621094 68.078125 57.402344 68.140625 57.210938 68.265625 C 57.015625 68.382812 56.863281 68.550781 56.753906 68.765625 C 56.644531 68.976562 56.589844 69.21875 56.589844 69.496094 C 56.589844 69.761719 56.644531 69.996094 56.753906 70.210938 C 56.863281 70.429688 57.015625 70.59375 57.210938 70.722656 C 57.402344 70.847656 57.621094 70.910156 57.875 70.910156 C 58.125 70.910156 58.34375 70.847656 58.539062 70.722656 C 58.730469 70.601562 58.882812 70.4375 58.992188 70.222656 C 59.101562 70.011719 59.160156 69.769531 59.160156 69.496094 C 59.160156 69.214844 59.101562 68.96875 58.992188 68.757812 C 58.882812 68.542969 58.730469 68.378906 58.539062 68.261719 C 58.34375 68.140625 58.125 68.078125 57.875 68.078125 M 63.132812 66.316406 L 65.703125 66.316406 C 65.785156 66.316406 65.855469 66.339844 65.914062 66.394531 C 65.972656 66.449219 66 66.515625 66 66.597656 C 66 66.679688 65.972656 66.746094 65.914062 66.796875 C 65.855469 66.84375 65.785156 66.871094 65.703125 66.871094 L 63.375 66.871094 L 63.441406 66.75 L 63.441406 68.574219 L 63.371094 68.496094 L 65.378906 68.496094 C 65.460938 68.496094 65.53125 68.523438 65.585938 68.574219 C 65.644531 68.628906 65.675781 68.695312 65.675781 68.777344 C 65.675781 68.863281 65.644531 68.929688 65.585938 68.980469 C 65.53125 69.03125 65.460938 69.050781 65.378906 69.050781 L 63.390625 69.050781 L 63.441406 68.988281 L 63.441406 70.859375 L 63.398438 70.808594 L 65.703125 70.808594 C 65.785156 70.808594 65.855469 70.835938 65.914062 70.894531 C 65.972656 70.953125 66 71.019531 66 71.089844 C 66 71.171875 65.972656 71.242188 65.914062 71.289062 C 65.855469 71.34375 65.785156 71.371094 65.703125 71.371094 L 63.132812 71.371094 C 63.050781 71.371094 62.980469 71.339844 62.925781 71.285156 C 62.871094 71.230469 62.84375 71.160156 62.84375 71.078125 L 62.84375 66.605469 C 62.84375 66.523438 62.871094 66.453125 62.925781 66.398438 C 62.980469 66.34375 63.050781 66.316406 63.132812 66.316406 M 69.859375 66.027344 C 69.945312 66.027344 70.011719 66.054688 70.066406 66.109375 C 70.117188 66.164062 70.144531 66.234375 70.144531 66.316406 L 70.144531 71.078125 C 70.144531 71.160156 70.117188 71.230469 70.0625 71.285156 C 70.007812 71.339844 69.941406 71.371094 69.859375 71.371094 C 69.777344 71.371094 69.707031 71.339844 69.652344 71.285156 C 69.597656 71.230469 69.566406 71.160156 69.566406 71.078125 L 69.566406 70.390625 L 69.707031 70.339844 C 69.707031 70.457031 69.671875 70.574219 69.601562 70.703125 C 69.53125 70.832031 69.429688 70.949219 69.304688 71.0625 C 69.179688 71.171875 69.03125 71.261719 68.859375 71.335938 C 68.691406 71.40625 68.511719 71.441406 68.3125 71.441406 C 67.984375 71.441406 67.691406 71.359375 67.429688 71.191406 C 67.167969 71.023438 66.964844 70.789062 66.8125 70.5 C 66.660156 70.203125 66.585938 69.867188 66.585938 69.496094 C 66.585938 69.113281 66.660156 68.777344 66.8125 68.480469 C 66.964844 68.191406 67.167969 67.957031 67.425781 67.792969 C 67.6875 67.625 67.972656 67.546875 68.296875 67.546875 C 68.5 67.546875 68.6875 67.574219 68.863281 67.644531 C 69.039062 67.710938 69.195312 67.804688 69.328125 67.917969 C 69.464844 68.035156 69.570312 68.164062 69.644531 68.300781 C 69.71875 68.441406 69.757812 68.582031 69.757812 68.722656 L 69.566406 68.675781 L 69.566406 66.316406 C 69.566406 66.234375 69.597656 66.164062 69.652344 66.109375 C 69.707031 66.054688 69.777344 66.027344 69.859375 66.027344 M 68.371094 70.910156 C 68.613281 70.910156 68.828125 70.847656 69.011719 70.722656 C 69.195312 70.601562 69.339844 70.433594 69.445312 70.21875 C 69.550781 70.003906 69.605469 69.765625 69.605469 69.496094 C 69.605469 69.21875 69.550781 68.976562 69.445312 68.765625 C 69.339844 68.550781 69.195312 68.382812 69.007812 68.265625 C 68.824219 68.140625 68.609375 68.078125 68.371094 68.078125 C 68.132812 68.078125 67.921875 68.140625 67.738281 68.265625 C 67.554688 68.382812 67.40625 68.550781 67.300781 68.765625 C 67.195312 68.976562 67.140625 69.21875 67.140625 69.496094 C 67.140625 69.761719 67.195312 69.996094 67.300781 70.210938 C 67.40625 70.429688 67.554688 70.59375 67.738281 70.722656 C 67.921875 70.847656 68.132812 70.910156 68.371094 70.910156 M 72.742188 67.546875 C 72.949219 67.546875 73.144531 67.578125 73.324219 67.648438 C 73.503906 67.71875 73.660156 67.808594 73.789062 67.917969 C 73.921875 68.03125 74.027344 68.148438 74.101562 68.265625 C 74.175781 68.382812 74.214844 68.5 74.214844 68.605469 L 74.070312 68.519531 L 74.070312 67.890625 C 74.070312 67.808594 74.097656 67.738281 74.152344 67.683594 C 74.207031 67.628906 74.277344 67.597656 74.359375 67.597656 C 74.441406 67.597656 74.511719 67.628906 74.566406 67.683594 C 74.621094 67.738281 74.644531 67.808594 74.644531 67.890625 L 74.644531 71.054688 C 74.644531 71.449219 74.5625 71.777344 74.398438 72.035156 C 74.230469 72.296875 74.007812 72.492188 73.726562 72.621094 C 73.449219 72.75 73.136719 72.816406 72.796875 72.816406 C 72.652344 72.816406 72.492188 72.796875 72.316406 72.757812 C 72.144531 72.722656 71.988281 72.675781 71.851562 72.617188 C 71.714844 72.5625 71.632812 72.507812 71.597656 72.449219 C 71.523438 72.398438 71.480469 72.34375 71.464844 72.285156 C 71.449219 72.222656 71.457031 72.167969 71.488281 72.113281 C 71.535156 72.046875 71.59375 72.011719 71.664062 72.011719 C 71.730469 72.011719 71.816406 72.035156 71.925781 72.078125 C 71.972656 72.09375 72.042969 72.117188 72.132812 72.152344 C 72.222656 72.183594 72.328125 72.214844 72.449219 72.242188 C 72.570312 72.269531 72.691406 72.28125 72.804688 72.28125 C 73.214844 72.28125 73.527344 72.171875 73.742188 71.960938 C 73.960938 71.746094 74.070312 71.460938 74.070312 71.113281 L 74.070312 70.441406 L 74.148438 70.476562 C 74.121094 70.609375 74.0625 70.734375 73.972656 70.851562 C 73.886719 70.96875 73.78125 71.070312 73.65625 71.160156 C 73.527344 71.246094 73.382812 71.316406 73.226562 71.367188 C 73.070312 71.417969 72.914062 71.441406 72.753906 71.441406 C 72.417969 71.441406 72.117188 71.359375 71.847656 71.191406 C 71.578125 71.023438 71.371094 70.789062 71.210938 70.5 C 71.054688 70.203125 70.976562 69.867188 70.976562 69.496094 C 70.976562 69.113281 71.054688 68.777344 71.210938 68.480469 C 71.371094 68.191406 71.578125 67.957031 71.84375 67.792969 C 72.109375 67.625 72.40625 67.546875 72.742188 67.546875 M 72.820312 68.078125 C 72.570312 68.078125 72.347656 68.140625 72.15625 68.265625 C 71.960938 68.382812 71.808594 68.550781 71.699219 68.765625 C 71.585938 68.976562 71.53125 69.21875 71.53125 69.496094 C 71.53125 69.761719 71.585938 69.996094 71.699219 70.210938 C 71.808594 70.429688 71.960938 70.59375 72.15625 70.722656 C 72.347656 70.847656 72.570312 70.910156 72.820312 70.910156 C 73.066406 70.910156 73.289062 70.847656 73.484375 70.722656 C 73.679688 70.601562 73.828125 70.4375 73.9375 70.222656 C 74.050781 70.011719 74.105469 69.769531 74.105469 69.496094 C 74.105469 69.214844 74.050781 68.96875 73.9375 68.757812 C 73.828125 68.542969 73.679688 68.378906 73.484375 68.261719 C 73.289062 68.140625 73.066406 68.078125 72.820312 68.078125 M 77.253906 71.441406 C 76.867188 71.441406 76.535156 71.359375 76.242188 71.199219 C 75.953125 71.035156 75.730469 70.808594 75.570312 70.519531 C 75.410156 70.238281 75.332031 69.902344 75.332031 69.53125 C 75.332031 69.109375 75.414062 68.753906 75.582031 68.457031 C 75.75 68.164062 75.960938 67.933594 76.226562 67.777344 C 76.496094 67.621094 76.773438 67.546875 77.074219 67.546875 C 77.300781 67.546875 77.515625 67.582031 77.71875 67.664062 C 77.925781 67.746094 78.109375 67.867188 78.269531 68.023438 C 78.429688 68.179688 78.558594 68.367188 78.65625 68.585938 C 78.753906 68.808594 78.804688 69.046875 78.808594 69.320312 C 78.804688 69.398438 78.773438 69.460938 78.714844 69.515625 C 78.65625 69.570312 78.589844 69.597656 78.511719 69.597656 L 75.660156 69.597656 L 75.527344 69.09375 L 78.308594 69.09375 L 78.191406 69.195312 L 78.191406 69.035156 C 78.175781 68.84375 78.113281 68.671875 78.003906 68.527344 C 77.890625 68.386719 77.75 68.28125 77.585938 68.203125 C 77.421875 68.125 77.253906 68.085938 77.074219 68.085938 C 76.929688 68.085938 76.785156 68.113281 76.640625 68.164062 C 76.503906 68.214844 76.375 68.292969 76.261719 68.40625 C 76.148438 68.519531 76.054688 68.664062 75.988281 68.84375 C 75.921875 69.023438 75.890625 69.234375 75.890625 69.488281 C 75.890625 69.769531 75.945312 70.011719 76.058594 70.222656 C 76.171875 70.4375 76.328125 70.601562 76.535156 70.722656 C 76.734375 70.847656 76.96875 70.910156 77.234375 70.910156 C 77.402344 70.910156 77.554688 70.886719 77.679688 70.84375 C 77.804688 70.800781 77.914062 70.746094 78.003906 70.679688 C 78.09375 70.617188 78.164062 70.550781 78.226562 70.484375 C 78.289062 70.441406 78.355469 70.417969 78.417969 70.417969 C 78.484375 70.417969 78.542969 70.445312 78.589844 70.492188 C 78.640625 70.535156 78.664062 70.59375 78.664062 70.664062 C 78.664062 70.746094 78.625 70.816406 78.546875 70.878906 C 78.40625 71.03125 78.222656 71.164062 77.996094 71.273438 C 77.765625 71.386719 77.519531 71.441406 77.253906 71.441406 M 83.1875 71.441406 C 82.828125 71.441406 82.515625 71.390625 82.246094 71.285156 C 81.976562 71.179688 81.71875 71.011719 81.464844 70.777344 C 81.433594 70.746094 81.402344 70.707031 81.382812 70.667969 C 81.359375 70.625 81.351562 70.582031 81.351562 70.53125 C 81.351562 70.457031 81.378906 70.390625 81.433594 70.328125 C 81.488281 70.269531 81.558594 70.238281 81.640625 70.238281 C 81.707031 70.238281 81.769531 70.265625 81.816406 70.316406 C 82.007812 70.503906 82.210938 70.636719 82.429688 70.734375 C 82.648438 70.832031 82.894531 70.878906 83.171875 70.878906 C 83.382812 70.878906 83.574219 70.847656 83.746094 70.777344 C 83.917969 70.710938 84.050781 70.617188 84.152344 70.5 C 84.253906 70.378906 84.304688 70.238281 84.304688 70.078125 C 84.300781 69.886719 84.242188 69.730469 84.132812 69.601562 C 84.023438 69.476562 83.878906 69.371094 83.6875 69.289062 C 83.496094 69.203125 83.277344 69.132812 83.027344 69.074219 C 82.804688 69.023438 82.597656 68.957031 82.417969 68.882812 C 82.230469 68.804688 82.070312 68.707031 81.933594 68.59375 C 81.800781 68.480469 81.695312 68.34375 81.621094 68.183594 C 81.546875 68.023438 81.507812 67.832031 81.507812 67.613281 C 81.507812 67.34375 81.582031 67.101562 81.726562 66.890625 C 81.867188 66.6875 82.070312 66.527344 82.324219 66.414062 C 82.578125 66.300781 82.875 66.242188 83.207031 66.242188 C 83.5 66.242188 83.777344 66.289062 84.039062 66.386719 C 84.304688 66.484375 84.515625 66.617188 84.675781 66.785156 C 84.765625 66.875 84.816406 66.964844 84.816406 67.050781 C 84.816406 67.125 84.785156 67.191406 84.730469 67.25 C 84.667969 67.3125 84.597656 67.34375 84.523438 67.34375 C 84.46875 67.34375 84.421875 67.324219 84.375 67.285156 C 84.292969 67.191406 84.191406 67.109375 84.0625 67.035156 C 83.941406 66.964844 83.804688 66.90625 83.65625 66.863281 C 83.503906 66.820312 83.355469 66.800781 83.207031 66.800781 C 82.984375 66.800781 82.789062 66.828125 82.621094 66.894531 C 82.453125 66.960938 82.324219 67.054688 82.226562 67.171875 C 82.132812 67.289062 82.085938 67.429688 82.085938 67.59375 C 82.085938 67.777344 82.140625 67.925781 82.246094 68.046875 C 82.351562 68.164062 82.496094 68.261719 82.671875 68.332031 C 82.851562 68.40625 83.046875 68.472656 83.265625 68.53125 C 83.5 68.589844 83.71875 68.65625 83.917969 68.730469 C 84.117188 68.808594 84.289062 68.898438 84.433594 69.011719 C 84.578125 69.117188 84.691406 69.261719 84.769531 69.433594 C 84.847656 69.605469 84.886719 69.8125 84.886719 70.0625 C 84.886719 70.332031 84.8125 70.5625 84.667969 70.773438 C 84.515625 70.980469 84.3125 71.144531 84.054688 71.257812 C 83.796875 71.375 83.507812 71.4375 83.1875 71.441406 M 89.257812 69.496094 C 89.257812 69.867188 89.179688 70.203125 89.015625 70.5 C 88.851562 70.789062 88.625 71.023438 88.347656 71.191406 C 88.0625 71.359375 87.742188 71.441406 87.390625 71.441406 C 87.035156 71.441406 86.722656 71.359375 86.4375 71.191406 C 86.160156 71.023438 85.933594 70.789062 85.765625 70.5 C 85.597656 70.203125 85.515625 69.867188 85.515625 69.496094 C 85.515625 69.117188 85.597656 68.785156 85.765625 68.488281 C 85.933594 68.199219 86.160156 67.964844 86.4375 67.796875 C 86.722656 67.625 87.035156 67.546875 87.390625 67.546875 C 87.742188 67.546875 88.0625 67.625 88.347656 67.796875 C 88.625 67.964844 88.851562 68.199219 89.015625 68.488281 C 89.179688 68.785156 89.257812 69.117188 89.257812 69.496094 M 88.679688 69.496094 C 88.679688 69.214844 88.625 68.96875 88.511719 68.757812 C 88.398438 68.542969 88.246094 68.378906 88.050781 68.261719 C 87.851562 68.140625 87.636719 68.078125 87.390625 68.078125 C 87.148438 68.078125 86.929688 68.140625 86.730469 68.261719 C 86.535156 68.378906 86.378906 68.542969 86.261719 68.757812 C 86.152344 68.96875 86.097656 69.214844 86.097656 69.496094 C 86.097656 69.769531 86.152344 70.011719 86.261719 70.222656 C 86.378906 70.4375 86.535156 70.601562 86.730469 70.722656 C 86.929688 70.847656 87.148438 70.910156 87.390625 70.910156 C 87.636719 70.910156 87.851562 70.847656 88.050781 70.722656 C 88.246094 70.601562 88.398438 70.4375 88.511719 70.222656 C 88.625 70.011719 88.679688 69.769531 88.679688 69.496094 M 90.722656 71.078125 C 90.722656 71.160156 90.695312 71.230469 90.640625 71.285156 C 90.582031 71.339844 90.511719 71.371094 90.429688 71.371094 C 90.347656 71.371094 90.28125 71.339844 90.226562 71.285156 C 90.171875 71.230469 90.148438 71.160156 90.148438 71.078125 L 90.148438 66.316406 C 90.148438 66.234375 90.175781 66.164062 90.230469 66.109375 C 90.285156 66.054688 90.355469 66.027344 90.4375 66.027344 C 90.523438 66.027344 90.59375 66.054688 90.648438 66.109375 C 90.699219 66.164062 90.722656 66.234375 90.722656 66.316406 L 90.722656 71.078125 M 94.597656 67.636719 C 94.683594 67.636719 94.753906 67.664062 94.808594 67.71875 C 94.859375 67.773438 94.886719 67.84375 94.886719 67.925781 L 94.886719 69.898438 C 94.886719 70.386719 94.75 70.761719 94.476562 71.03125 C 94.207031 71.292969 93.824219 71.429688 93.339844 71.429688 C 92.859375 71.429688 92.480469 71.292969 92.207031 71.03125 C 91.9375 70.761719 91.800781 70.386719 91.800781 69.898438 L 91.800781 67.925781 C 91.800781 67.84375 91.828125 67.773438 91.886719 67.71875 C 91.941406 67.664062 92.011719 67.636719 92.09375 67.636719 C 92.175781 67.636719 92.246094 67.664062 92.300781 67.71875 C 92.351562 67.773438 92.378906 67.84375 92.378906 67.925781 L 92.378906 69.898438 C 92.378906 70.226562 92.464844 70.476562 92.632812 70.640625 C 92.800781 70.808594 93.035156 70.894531 93.339844 70.894531 C 93.652344 70.894531 93.890625 70.808594 94.058594 70.640625 C 94.226562 70.476562 94.308594 70.226562 94.308594 69.898438 L 94.308594 67.925781 C 94.308594 67.84375 94.335938 67.773438 94.390625 67.71875 C 94.445312 67.664062 94.515625 67.636719 94.597656 67.636719 M 95.804688 67.65625 L 97.5 67.65625 C 97.578125 67.65625 97.640625 67.683594 97.691406 67.738281 C 97.742188 67.789062 97.769531 67.855469 97.769531 67.925781 C 97.769531 68.003906 97.742188 68.066406 97.691406 68.117188 C 97.640625 68.167969 97.578125 68.195312 97.5 68.195312 L 95.804688 68.195312 C 95.734375 68.195312 95.667969 68.167969 95.617188 68.113281 C 95.5625 68.0625 95.535156 67.996094 95.535156 67.917969 C 95.535156 67.847656 95.5625 67.785156 95.617188 67.734375 C 95.667969 67.683594 95.734375 67.65625 95.804688 67.65625 M 96.5625 66.679688 C 96.640625 66.679688 96.710938 66.707031 96.761719 66.761719 C 96.816406 66.816406 96.84375 66.882812 96.84375 66.964844 L 96.84375 70.457031 C 96.84375 70.566406 96.859375 70.65625 96.894531 70.714844 C 96.929688 70.773438 96.972656 70.8125 97.027344 70.832031 C 97.085938 70.855469 97.136719 70.867188 97.191406 70.867188 C 97.238281 70.867188 97.28125 70.859375 97.316406 70.839844 C 97.351562 70.824219 97.394531 70.816406 97.441406 70.816406 C 97.492188 70.816406 97.535156 70.839844 97.578125 70.882812 C 97.617188 70.929688 97.636719 70.988281 97.636719 71.0625 C 97.636719 71.148438 97.585938 71.222656 97.484375 71.28125 C 97.382812 71.339844 97.273438 71.371094 97.148438 71.371094 C 97.082031 71.371094 96.996094 71.367188 96.898438 71.355469 C 96.796875 71.347656 96.699219 71.316406 96.605469 71.261719 C 96.511719 71.210938 96.429688 71.125 96.363281 71 C 96.300781 70.875 96.265625 70.703125 96.265625 70.484375 L 96.265625 66.964844 C 96.265625 66.882812 96.296875 66.816406 96.351562 66.761719 C 96.410156 66.707031 96.480469 66.679688 96.5625 66.679688 M 99.117188 71.078125 C 99.117188 71.160156 99.089844 71.230469 99.035156 71.285156 C 98.980469 71.339844 98.910156 71.371094 98.828125 71.371094 C 98.746094 71.371094 98.675781 71.339844 98.621094 71.285156 C 98.566406 71.230469 98.542969 71.160156 98.542969 71.078125 L 98.542969 67.867188 C 98.542969 67.785156 98.570312 67.71875 98.625 67.660156 C 98.679688 67.605469 98.75 67.578125 98.828125 67.578125 C 98.910156 67.578125 98.980469 67.605469 99.035156 67.660156 C 99.089844 67.71875 99.117188 67.785156 99.117188 67.867188 L 99.117188 71.078125 M 98.828125 67.09375 C 98.710938 67.09375 98.621094 67.070312 98.5625 67.023438 C 98.503906 66.972656 98.476562 66.898438 98.476562 66.800781 L 98.476562 66.699219 C 98.476562 66.597656 98.507812 66.523438 98.570312 66.472656 C 98.632812 66.425781 98.722656 66.402344 98.835938 66.402344 C 98.953125 66.402344 99.039062 66.425781 99.097656 66.472656 C 99.15625 66.523438 99.183594 66.597656 99.183594 66.699219 L 99.183594 66.800781 C 99.183594 66.898438 99.152344 66.972656 99.09375 67.023438 C 99.03125 67.070312 98.945312 67.09375 98.828125 67.09375 M 103.664062 69.496094 C 103.664062 69.867188 103.582031 70.203125 103.414062 70.5 C 103.25 70.789062 103.03125 71.023438 102.746094 71.191406 C 102.46875 71.359375 102.148438 71.441406 101.789062 71.441406 C 101.441406 71.441406 101.121094 71.359375 100.84375 71.191406 C 100.558594 71.023438 100.335938 70.789062 100.171875 70.5 C 100.003906 70.203125 99.921875 69.867188 99.921875 69.496094 C 99.921875 69.117188 100.003906 68.785156 100.171875 68.488281 C 100.335938 68.199219 100.558594 67.964844 100.84375 67.796875 C 101.121094 67.625 101.441406 67.546875 101.789062 67.546875 C 102.148438 67.546875 102.46875 67.625 102.746094 67.796875 C 103.03125 67.964844 103.25 68.199219 103.414062 68.488281 C 103.582031 68.785156 103.664062 69.117188 103.664062 69.496094 M 103.085938 69.496094 C 103.085938 69.214844 103.027344 68.96875 102.914062 68.757812 C 102.800781 68.542969 102.644531 68.378906 102.453125 68.261719 C 102.257812 68.140625 102.035156 68.078125 101.789062 68.078125 C 101.550781 68.078125 101.332031 68.140625 101.132812 68.261719 C 100.9375 68.378906 100.78125 68.542969 100.667969 68.757812 C 100.554688 68.96875 100.496094 69.214844 100.496094 69.496094 C 100.496094 69.769531 100.554688 70.011719 100.667969 70.222656 C 100.78125 70.4375 100.9375 70.601562 101.132812 70.722656 C 101.332031 70.847656 101.550781 70.910156 101.789062 70.910156 C 102.035156 70.910156 102.257812 70.847656 102.453125 70.722656 C 102.644531 70.601562 102.800781 70.4375 102.914062 70.222656 C 103.027344 70.011719 103.085938 69.769531 103.085938 69.496094 M 106.347656 67.546875 C 106.675781 67.546875 106.933594 67.609375 107.121094 67.746094 C 107.308594 67.878906 107.445312 68.0625 107.523438 68.289062 C 107.605469 68.511719 107.640625 68.765625 107.640625 69.042969 L 107.640625 71.078125 C 107.640625 71.160156 107.617188 71.230469 107.5625 71.285156 C 107.503906 71.339844 107.4375 71.371094 107.355469 71.371094 C 107.269531 71.371094 107.203125 71.339844 107.148438 71.285156 C 107.089844 71.230469 107.0625 71.160156 107.0625 71.078125 L 107.0625 69.058594 C 107.0625 68.878906 107.035156 68.710938 106.980469 68.566406 C 106.925781 68.417969 106.835938 68.296875 106.707031 68.214844 C 106.578125 68.125 106.402344 68.078125 106.179688 68.078125 C 105.980469 68.078125 105.796875 68.125 105.625 68.214844 C 105.457031 68.296875 105.324219 68.417969 105.222656 68.566406 C 105.121094 68.710938 105.070312 68.878906 105.070312 69.058594 L 105.070312 71.078125 C 105.070312 71.160156 105.042969 71.230469 104.988281 71.285156 C 104.929688 71.339844 104.863281 71.371094 104.78125 71.371094 C 104.699219 71.371094 104.632812 71.339844 104.578125 71.285156 C 104.523438 71.230469 104.492188 71.160156 104.492188 71.078125 L 104.492188 67.925781 C 104.492188 67.84375 104.523438 67.773438 104.578125 67.71875 C 104.632812 67.664062 104.699219 67.636719 104.78125 67.636719 C 104.867188 67.636719 104.9375 67.664062 104.992188 67.71875 C 105.042969 67.773438 105.070312 67.84375 105.070312 67.925781 L 105.070312 68.4375 L 104.925781 68.597656 C 104.949219 68.472656 105.003906 68.34375 105.09375 68.21875 C 105.179688 68.09375 105.289062 67.976562 105.417969 67.875 C 105.546875 67.773438 105.691406 67.691406 105.851562 67.632812 C 106.011719 67.570312 106.175781 67.546875 106.347656 67.546875 M 108.492188 70.777344 C 108.449219 70.714844 108.429688 70.648438 108.433594 70.578125 C 108.441406 70.507812 108.480469 70.453125 108.558594 70.398438 C 108.605469 70.363281 108.664062 70.347656 108.730469 70.355469 C 108.792969 70.359375 108.855469 70.390625 108.90625 70.449219 C 109.042969 70.605469 109.195312 70.730469 109.367188 70.824219 C 109.542969 70.921875 109.753906 70.96875 110.003906 70.96875 C 110.117188 70.960938 110.234375 70.945312 110.351562 70.910156 C 110.46875 70.875 110.566406 70.816406 110.640625 70.730469 C 110.722656 70.648438 110.761719 70.535156 110.761719 70.398438 C 110.761719 70.261719 110.71875 70.15625 110.636719 70.074219 C 110.558594 69.996094 110.453125 69.929688 110.324219 69.878906 C 110.191406 69.828125 110.050781 69.78125 109.894531 69.75 C 109.738281 69.703125 109.582031 69.65625 109.425781 69.597656 C 109.269531 69.542969 109.132812 69.472656 109.011719 69.390625 C 108.890625 69.304688 108.789062 69.199219 108.714844 69.070312 C 108.640625 68.945312 108.601562 68.789062 108.601562 68.605469 C 108.601562 68.386719 108.660156 68.203125 108.78125 68.042969 C 108.898438 67.882812 109.058594 67.757812 109.253906 67.671875 C 109.457031 67.585938 109.675781 67.546875 109.910156 67.546875 C 110.042969 67.546875 110.1875 67.558594 110.332031 67.589844 C 110.480469 67.621094 110.621094 67.671875 110.761719 67.75 C 110.902344 67.824219 111.023438 67.925781 111.132812 68.058594 C 111.175781 68.105469 111.199219 68.164062 111.203125 68.238281 C 111.210938 68.308594 111.179688 68.371094 111.109375 68.429688 C 111.058594 68.46875 110.996094 68.484375 110.933594 68.480469 C 110.867188 68.476562 110.8125 68.453125 110.769531 68.410156 C 110.667969 68.292969 110.542969 68.199219 110.390625 68.132812 C 110.238281 68.066406 110.070312 68.035156 109.886719 68.035156 C 109.773438 68.035156 109.660156 68.050781 109.550781 68.085938 C 109.4375 68.121094 109.34375 68.175781 109.269531 68.257812 C 109.195312 68.332031 109.15625 68.441406 109.15625 68.582031 C 109.160156 68.714844 109.207031 68.820312 109.289062 68.902344 C 109.371094 68.984375 109.480469 69.046875 109.621094 69.097656 C 109.761719 69.148438 109.914062 69.199219 110.082031 69.246094 C 110.238281 69.285156 110.386719 69.332031 110.53125 69.382812 C 110.667969 69.433594 110.796875 69.5 110.914062 69.582031 C 111.03125 69.664062 111.121094 69.769531 111.191406 69.894531 C 111.257812 70.023438 111.292969 70.183594 111.292969 70.375 C 111.292969 70.59375 111.230469 70.789062 111.101562 70.949219 C 110.976562 71.113281 110.8125 71.234375 110.605469 71.316406 C 110.402344 71.402344 110.183594 71.441406 109.945312 71.441406 C 109.683594 71.441406 109.417969 71.390625 109.160156 71.289062 C 108.90625 71.191406 108.683594 71.019531 108.492188 70.777344 M 112.292969 71.363281 C 112.191406 71.363281 112.113281 71.335938 112.0625 71.277344 C 112.003906 71.222656 111.976562 71.140625 111.976562 71.039062 L 111.976562 70.894531 C 111.976562 70.789062 112.003906 70.707031 112.0625 70.648438 C 112.113281 70.589844 112.191406 70.5625 112.292969 70.5625 L 112.351562 70.5625 C 112.457031 70.5625 112.539062 70.589844 112.589844 70.648438 C 112.644531 70.707031 112.671875 70.789062 112.671875 70.894531 L 112.671875 71.039062 C 112.671875 71.140625 112.644531 71.222656 112.589844 71.277344 C 112.539062 71.335938 112.457031 71.363281 112.351562 71.363281 L 112.292969 71.363281 M 120.222656 68.84375 C 120.222656 69.214844 120.167969 69.558594 120.046875 69.871094 C 119.925781 70.1875 119.753906 70.464844 119.539062 70.699219 C 119.324219 70.9375 119.0625 71.121094 118.765625 71.246094 C 118.46875 71.378906 118.140625 71.441406 117.792969 71.441406 C 117.433594 71.441406 117.109375 71.378906 116.8125 71.246094 C 116.515625 71.121094 116.261719 70.9375 116.042969 70.699219 C 115.824219 70.464844 115.660156 70.1875 115.539062 69.871094 C 115.417969 69.558594 115.355469 69.214844 115.355469 68.84375 C 115.355469 68.46875 115.417969 68.125 115.539062 67.804688 C 115.660156 67.492188 115.824219 67.21875 116.042969 66.984375 C 116.261719 66.75 116.515625 66.570312 116.8125 66.4375 C 117.109375 66.308594 117.433594 66.242188 117.792969 66.242188 C 118.140625 66.242188 118.46875 66.308594 118.765625 66.4375 C 119.0625 66.570312 119.324219 66.75 119.539062 66.984375 C 119.753906 67.21875 119.925781 67.492188 120.046875 67.804688 C 120.167969 68.125 120.222656 68.46875 120.222656 68.84375 M 119.601562 68.84375 C 119.601562 68.449219 119.523438 68.101562 119.371094 67.796875 C 119.214844 67.496094 119 67.253906 118.726562 67.082031 C 118.460938 66.90625 118.144531 66.820312 117.792969 66.820312 C 117.433594 66.820312 117.121094 66.90625 116.847656 67.082031 C 116.574219 67.253906 116.363281 67.496094 116.210938 67.796875 C 116.054688 68.101562 115.976562 68.449219 115.976562 68.84375 C 115.976562 69.234375 116.054688 69.582031 116.210938 69.886719 C 116.363281 70.195312 116.574219 70.433594 116.847656 70.605469 C 117.121094 70.777344 117.433594 70.867188 117.792969 70.867188 C 118.144531 70.867188 118.460938 70.777344 118.726562 70.605469 C 119 70.433594 119.214844 70.195312 119.371094 69.886719 C 119.523438 69.582031 119.601562 69.234375 119.601562 68.84375 M 121.710938 71.078125 C 121.710938 71.160156 121.683594 71.230469 121.628906 71.285156 C 121.570312 71.339844 121.5 71.371094 121.417969 71.371094 C 121.335938 71.371094 121.265625 71.339844 121.214844 71.285156 C 121.160156 71.230469 121.132812 71.160156 121.132812 71.078125 L 121.132812 66.316406 C 121.132812 66.234375 121.160156 66.164062 121.21875 66.109375 C 121.273438 66.054688 121.34375 66.027344 121.425781 66.027344 C 121.511719 66.027344 121.582031 66.054688 121.636719 66.109375 C 121.683594 66.164062 121.710938 66.234375 121.710938 66.316406 L 121.710938 71.078125 M 125.792969 66.027344 C 125.882812 66.027344 125.953125 66.054688 126.003906 66.109375 C 126.058594 66.164062 126.085938 66.234375 126.085938 66.316406 L 126.085938 71.078125 C 126.085938 71.160156 126.058594 71.230469 126 71.285156 C 125.945312 71.339844 125.875 71.371094 125.792969 71.371094 C 125.710938 71.371094 125.644531 71.339844 125.585938 71.285156 C 125.53125 71.230469 125.503906 71.160156 125.503906 71.078125 L 125.503906 70.390625 L 125.640625 70.339844 C 125.640625 70.457031 125.605469 70.574219 125.535156 70.703125 C 125.464844 70.832031 125.367188 70.949219 125.242188 71.0625 C 125.113281 71.171875 124.964844 71.261719 124.796875 71.335938 C 124.625 71.40625 124.445312 71.441406 124.246094 71.441406 C 123.917969 71.441406 123.628906 71.359375 123.367188 71.191406 C 123.109375 71.023438 122.902344 70.789062 122.75 70.5 C 122.597656 70.203125 122.519531 69.867188 122.519531 69.496094 C 122.519531 69.113281 122.597656 68.777344 122.75 68.480469 C 122.902344 68.191406 123.105469 67.957031 123.363281 67.792969 C 123.621094 67.625 123.910156 67.546875 124.234375 67.546875 C 124.4375 67.546875 124.621094 67.574219 124.800781 67.644531 C 124.976562 67.710938 125.132812 67.804688 125.269531 67.917969 C 125.398438 68.035156 125.503906 68.164062 125.578125 68.300781 C 125.65625 68.441406 125.691406 68.582031 125.691406 68.722656 L 125.503906 68.675781 L 125.503906 66.316406 C 125.503906 66.234375 125.53125 66.164062 125.585938 66.109375 C 125.644531 66.054688 125.710938 66.027344 125.792969 66.027344 M 124.304688 70.910156 C 124.554688 70.910156 124.765625 70.847656 124.949219 70.722656 C 125.132812 70.601562 125.277344 70.433594 125.378906 70.21875 C 125.488281 70.003906 125.539062 69.765625 125.539062 69.496094 C 125.539062 69.21875 125.488281 68.976562 125.378906 68.765625 C 125.277344 68.550781 125.132812 68.382812 124.945312 68.265625 C 124.757812 68.140625 124.546875 68.078125 124.304688 68.078125 C 124.070312 68.078125 123.859375 68.140625 123.675781 68.265625 C 123.488281 68.382812 123.339844 68.550781 123.234375 68.765625 C 123.132812 68.976562 123.078125 69.21875 123.078125 69.496094 C 123.078125 69.761719 123.132812 69.996094 123.234375 70.210938 C 123.339844 70.429688 123.488281 70.59375 123.675781 70.722656 C 123.859375 70.847656 124.070312 70.910156 124.304688 70.910156 M 129.523438 71.371094 C 129.433594 71.371094 129.363281 71.339844 129.308594 71.285156 C 129.25 71.230469 129.222656 71.160156 129.222656 71.078125 L 129.222656 66.605469 C 129.222656 66.523438 129.25 66.453125 129.308594 66.398438 C 129.363281 66.34375 129.433594 66.316406 129.515625 66.316406 L 132.046875 66.316406 C 132.128906 66.316406 132.199219 66.339844 132.257812 66.394531 C 132.316406 66.449219 132.34375 66.515625 132.34375 66.597656 C 132.34375 66.675781 132.316406 66.742188 132.257812 66.792969 C 132.199219 66.84375 132.128906 66.871094 132.046875 66.871094 L 129.777344 66.871094 L 129.816406 66.816406 L 129.816406 68.582031 L 129.78125 68.503906 L 131.726562 68.503906 C 131.808594 68.503906 131.878906 68.53125 131.933594 68.585938 C 131.992188 68.640625 132.019531 68.710938 132.019531 68.792969 C 132.019531 68.867188 131.992188 68.929688 131.933594 68.984375 C 131.878906 69.039062 131.808594 69.066406 131.726562 69.066406 L 129.769531 69.066406 L 129.816406 69.003906 L 129.816406 71.078125 C 129.816406 71.160156 129.789062 71.230469 129.730469 71.285156 C 129.675781 71.339844 129.605469 71.371094 129.523438 71.371094 M 136.09375 67.597656 C 136.179688 67.597656 136.25 67.628906 136.304688 67.683594 C 136.359375 67.738281 136.382812 67.808594 136.382812 67.890625 L 136.382812 71.078125 C 136.382812 71.160156 136.355469 71.230469 136.300781 71.285156 C 136.246094 71.339844 136.175781 71.371094 136.09375 71.371094 C 136.011719 71.371094 135.941406 71.339844 135.886719 71.285156 C 135.832031 71.230469 135.804688 71.160156 135.804688 71.078125 L 135.804688 70.390625 L 135.941406 70.375 C 135.941406 70.484375 135.90625 70.59375 135.832031 70.722656 C 135.761719 70.847656 135.664062 70.964844 135.539062 71.074219 C 135.414062 71.183594 135.265625 71.265625 135.097656 71.335938 C 134.929688 71.40625 134.746094 71.441406 134.546875 71.441406 C 134.21875 71.441406 133.925781 71.355469 133.664062 71.1875 C 133.402344 71.015625 133.195312 70.785156 133.046875 70.492188 C 132.894531 70.195312 132.820312 69.859375 132.820312 69.488281 C 132.820312 69.105469 132.898438 68.769531 133.050781 68.476562 C 133.203125 68.1875 133.40625 67.957031 133.664062 67.792969 C 133.921875 67.625 134.214844 67.546875 134.535156 67.546875 C 134.742188 67.546875 134.933594 67.574219 135.109375 67.644531 C 135.289062 67.710938 135.445312 67.804688 135.578125 67.917969 C 135.707031 68.035156 135.8125 68.164062 135.882812 68.300781 C 135.957031 68.441406 135.992188 68.582031 135.992188 68.722656 L 135.804688 68.675781 L 135.804688 67.890625 C 135.804688 67.808594 135.832031 67.738281 135.886719 67.683594 C 135.941406 67.628906 136.011719 67.597656 136.09375 67.597656 M 134.605469 70.910156 C 134.847656 70.910156 135.058594 70.847656 135.246094 70.722656 C 135.429688 70.59375 135.578125 70.429688 135.683594 70.210938 C 135.785156 69.996094 135.839844 69.757812 135.839844 69.488281 C 135.839844 69.21875 135.785156 68.984375 135.683594 68.769531 C 135.578125 68.554688 135.429688 68.382812 135.246094 68.265625 C 135.058594 68.140625 134.847656 68.078125 134.605469 68.078125 C 134.367188 68.078125 134.160156 68.140625 133.976562 68.261719 C 133.789062 68.378906 133.640625 68.542969 133.535156 68.757812 C 133.433594 68.96875 133.378906 69.210938 133.378906 69.488281 C 133.378906 69.757812 133.433594 69.996094 133.535156 70.210938 C 133.640625 70.429688 133.789062 70.59375 133.976562 70.722656 C 134.160156 70.847656 134.367188 70.910156 134.605469 70.910156 M 137.234375 70.777344 C 137.191406 70.714844 137.171875 70.648438 137.175781 70.578125 C 137.179688 70.507812 137.222656 70.453125 137.300781 70.398438 C 137.347656 70.363281 137.40625 70.347656 137.46875 70.355469 C 137.535156 70.359375 137.59375 70.390625 137.648438 70.449219 C 137.785156 70.605469 137.933594 70.730469 138.109375 70.824219 C 138.28125 70.921875 138.496094 70.96875 138.742188 70.96875 C 138.859375 70.960938 138.976562 70.945312 139.09375 70.910156 C 139.207031 70.875 139.304688 70.816406 139.386719 70.730469 C 139.460938 70.648438 139.503906 70.535156 139.503906 70.398438 C 139.503906 70.261719 139.460938 70.15625 139.382812 70.074219 C 139.300781 69.996094 139.195312 69.929688 139.0625 69.878906 C 138.933594 69.828125 138.789062 69.78125 138.640625 69.75 C 138.480469 69.703125 138.320312 69.65625 138.167969 69.597656 C 138.011719 69.542969 137.875 69.472656 137.753906 69.390625 C 137.628906 69.304688 137.53125 69.199219 137.457031 69.070312 C 137.378906 68.945312 137.34375 68.789062 137.34375 68.605469 C 137.34375 68.386719 137.402344 68.203125 137.519531 68.042969 C 137.640625 67.882812 137.800781 67.757812 137.996094 67.671875 C 138.195312 67.585938 138.414062 67.546875 138.648438 67.546875 C 138.785156 67.546875 138.925781 67.558594 139.074219 67.589844 C 139.222656 67.621094 139.367188 67.671875 139.503906 67.75 C 139.644531 67.824219 139.765625 67.925781 139.871094 68.058594 C 139.917969 68.105469 139.941406 68.164062 139.945312 68.238281 C 139.949219 68.308594 139.917969 68.371094 139.851562 68.429688 C 139.796875 68.46875 139.738281 68.484375 139.671875 68.480469 C 139.609375 68.476562 139.554688 68.453125 139.507812 68.410156 C 139.40625 68.292969 139.285156 68.199219 139.132812 68.132812 C 138.980469 68.066406 138.8125 68.035156 138.632812 68.035156 C 138.515625 68.035156 138.402344 68.050781 138.289062 68.085938 C 138.179688 68.121094 138.085938 68.175781 138.011719 68.257812 C 137.933594 68.332031 137.902344 68.441406 137.902344 68.582031 C 137.90625 68.714844 137.945312 68.820312 138.027344 68.902344 C 138.109375 68.984375 138.222656 69.046875 138.363281 69.097656 C 138.503906 69.148438 138.652344 69.199219 138.824219 69.246094 C 138.976562 69.285156 139.128906 69.332031 139.269531 69.382812 C 139.410156 69.433594 139.539062 69.5 139.65625 69.582031 C 139.769531 69.664062 139.863281 69.769531 139.929688 69.894531 C 140 70.023438 140.03125 70.183594 140.03125 70.375 C 140.03125 70.59375 139.96875 70.789062 139.84375 70.949219 C 139.71875 71.113281 139.550781 71.234375 139.351562 71.316406 C 139.144531 71.402344 138.921875 71.441406 138.6875 71.441406 C 138.421875 71.441406 138.160156 71.390625 137.90625 71.289062 C 137.648438 71.191406 137.421875 71.019531 137.234375 70.777344 M 142.667969 67.578125 C 142.988281 67.578125 143.234375 67.648438 143.421875 67.785156 C 143.609375 67.921875 143.742188 68.105469 143.816406 68.332031 C 143.898438 68.5625 143.9375 68.816406 143.9375 69.09375 L 143.9375 71.078125 C 143.9375 71.160156 143.910156 71.230469 143.855469 71.285156 C 143.800781 71.339844 143.734375 71.371094 143.652344 71.371094 C 143.570312 71.371094 143.5 71.339844 143.445312 71.285156 C 143.386719 71.230469 143.359375 71.160156 143.359375 71.078125 L 143.359375 69.09375 C 143.359375 68.914062 143.332031 68.75 143.28125 68.601562 C 143.226562 68.453125 143.140625 68.335938 143.019531 68.25 C 142.894531 68.160156 142.726562 68.113281 142.515625 68.113281 C 142.320312 68.113281 142.136719 68.160156 141.972656 68.25 C 141.808594 68.335938 141.679688 68.453125 141.585938 68.601562 C 141.488281 68.75 141.441406 68.914062 141.441406 69.09375 L 141.441406 71.078125 C 141.441406 71.160156 141.414062 71.230469 141.355469 71.285156 C 141.300781 71.339844 141.230469 71.371094 141.148438 71.371094 C 141.066406 71.371094 141 71.339844 140.941406 71.285156 C 140.886719 71.230469 140.863281 71.160156 140.863281 71.078125 L 140.863281 66.316406 C 140.863281 66.234375 140.886719 66.164062 140.941406 66.109375 C 141 66.054688 141.066406 66.027344 141.148438 66.027344 C 141.238281 66.027344 141.308594 66.054688 141.359375 66.109375 C 141.414062 66.164062 141.441406 66.234375 141.441406 66.316406 L 141.441406 68.472656 L 141.296875 68.632812 C 141.320312 68.507812 141.371094 68.382812 141.453125 68.257812 C 141.539062 68.128906 141.636719 68.011719 141.761719 67.910156 C 141.890625 67.808594 142.03125 67.730469 142.183594 67.667969 C 142.339844 67.609375 142.496094 67.578125 142.667969 67.578125 M 145.554688 71.078125 C 145.554688 71.160156 145.527344 71.230469 145.472656 71.285156 C 145.417969 71.339844 145.347656 71.371094 145.269531 71.371094 C 145.183594 71.371094 145.113281 71.339844 145.058594 71.285156 C 145.003906 71.230469 144.980469 71.160156 144.980469 71.078125 L 144.980469 67.867188 C 144.980469 67.785156 145.007812 67.71875 145.0625 67.660156 C 145.117188 67.605469 145.1875 67.578125 145.269531 67.578125 C 145.347656 67.578125 145.417969 67.605469 145.472656 67.660156 C 145.527344 67.71875 145.554688 67.785156 145.554688 67.867188 L 145.554688 71.078125 M 145.269531 67.09375 C 145.148438 67.09375 145.058594 67.070312 145 67.023438 C 144.941406 66.972656 144.914062 66.898438 144.914062 66.800781 L 144.914062 66.699219 C 144.914062 66.597656 144.945312 66.523438 145.007812 66.472656 C 145.070312 66.425781 145.160156 66.402344 145.277344 66.402344 C 145.390625 66.402344 145.476562 66.425781 145.535156 66.472656 C 145.59375 66.523438 145.621094 66.597656 145.621094 66.699219 L 145.621094 66.800781 C 145.621094 66.898438 145.589844 66.972656 145.53125 67.023438 C 145.46875 67.070312 145.382812 67.09375 145.269531 67.09375 M 150.101562 69.496094 C 150.101562 69.867188 150.019531 70.203125 149.851562 70.5 C 149.691406 70.789062 149.46875 71.023438 149.183594 71.191406 C 148.90625 71.359375 148.585938 71.441406 148.230469 71.441406 C 147.878906 71.441406 147.558594 71.359375 147.28125 71.191406 C 146.996094 71.023438 146.773438 70.789062 146.609375 70.5 C 146.441406 70.203125 146.359375 69.867188 146.359375 69.496094 C 146.359375 69.117188 146.441406 68.785156 146.609375 68.488281 C 146.773438 68.199219 146.996094 67.964844 147.28125 67.796875 C 147.558594 67.625 147.878906 67.546875 148.230469 67.546875 C 148.585938 67.546875 148.90625 67.625 149.183594 67.796875 C 149.46875 67.964844 149.691406 68.199219 149.851562 68.488281 C 150.019531 68.785156 150.101562 69.117188 150.101562 69.496094 M 149.523438 69.496094 C 149.523438 69.214844 149.464844 68.96875 149.351562 68.757812 C 149.238281 68.542969 149.082031 68.378906 148.890625 68.261719 C 148.695312 68.140625 148.472656 68.078125 148.230469 68.078125 C 147.988281 68.078125 147.769531 68.140625 147.570312 68.261719 C 147.375 68.378906 147.21875 68.542969 147.105469 68.757812 C 146.992188 68.96875 146.933594 69.214844 146.933594 69.496094 C 146.933594 69.769531 146.992188 70.011719 147.105469 70.222656 C 147.21875 70.4375 147.375 70.601562 147.570312 70.722656 C 147.769531 70.847656 147.988281 70.910156 148.230469 70.910156 C 148.472656 70.910156 148.695312 70.847656 148.890625 70.722656 C 149.082031 70.601562 149.238281 70.4375 149.351562 70.222656 C 149.464844 70.011719 149.523438 69.769531 149.523438 69.496094 M 152.785156 67.546875 C 153.113281 67.546875 153.375 67.609375 153.558594 67.746094 C 153.746094 67.878906 153.882812 68.0625 153.960938 68.289062 C 154.042969 68.511719 154.082031 68.765625 154.082031 69.042969 L 154.082031 71.078125 C 154.082031 71.160156 154.054688 71.230469 153.996094 71.285156 C 153.941406 71.339844 153.875 71.371094 153.789062 71.371094 C 153.707031 71.371094 153.640625 71.339844 153.585938 71.285156 C 153.527344 71.230469 153.5 71.160156 153.5 71.078125 L 153.5 69.058594 C 153.5 68.878906 153.472656 68.710938 153.417969 68.566406 C 153.363281 68.417969 153.273438 68.296875 153.144531 68.214844 C 153.015625 68.125 152.839844 68.078125 152.621094 68.078125 C 152.417969 68.078125 152.234375 68.125 152.0625 68.214844 C 151.898438 68.296875 151.761719 68.417969 151.660156 68.566406 C 151.558594 68.710938 151.507812 68.878906 151.507812 69.058594 L 151.507812 71.078125 C 151.507812 71.160156 151.480469 71.230469 151.425781 71.285156 C 151.367188 71.339844 151.300781 71.371094 151.21875 71.371094 C 151.140625 71.371094 151.070312 71.339844 151.015625 71.285156 C 150.957031 71.230469 150.929688 71.160156 150.929688 71.078125 L 150.929688 67.925781 C 150.929688 67.84375 150.957031 67.773438 151.015625 67.71875 C 151.070312 67.664062 151.140625 67.636719 151.21875 67.636719 C 151.304688 67.636719 151.375 67.664062 151.429688 67.71875 C 151.480469 67.773438 151.507812 67.84375 151.507812 67.925781 L 151.507812 68.4375 L 151.363281 68.597656 C 151.386719 68.472656 151.441406 68.34375 151.53125 68.21875 C 151.617188 68.09375 151.726562 67.976562 151.855469 67.875 C 151.984375 67.773438 152.128906 67.691406 152.289062 67.632812 C 152.449219 67.570312 152.613281 67.546875 152.785156 67.546875 M 156.832031 71.441406 C 156.445312 71.441406 156.109375 71.359375 155.820312 71.199219 C 155.53125 71.035156 155.308594 70.808594 155.148438 70.519531 C 154.988281 70.238281 154.910156 69.902344 154.910156 69.53125 C 154.910156 69.109375 154.992188 68.753906 155.160156 68.457031 C 155.324219 68.164062 155.542969 67.933594 155.804688 67.777344 C 156.070312 67.621094 156.355469 67.546875 156.652344 67.546875 C 156.878906 67.546875 157.09375 67.582031 157.296875 67.664062 C 157.503906 67.746094 157.6875 67.867188 157.84375 68.023438 C 158.007812 68.179688 158.136719 68.367188 158.234375 68.585938 C 158.328125 68.808594 158.378906 69.046875 158.386719 69.320312 C 158.378906 69.398438 158.347656 69.460938 158.292969 69.515625 C 158.234375 69.570312 158.164062 69.597656 158.089844 69.597656 L 155.234375 69.597656 L 155.105469 69.09375 L 157.882812 69.09375 L 157.773438 69.195312 L 157.773438 69.035156 C 157.757812 68.84375 157.695312 68.671875 157.578125 68.527344 C 157.464844 68.386719 157.328125 68.28125 157.164062 68.203125 C 157 68.125 156.828125 68.085938 156.652344 68.085938 C 156.503906 68.085938 156.367188 68.113281 156.222656 68.164062 C 156.078125 68.214844 155.953125 68.292969 155.835938 68.40625 C 155.722656 68.519531 155.632812 68.664062 155.570312 68.84375 C 155.5 69.023438 155.46875 69.234375 155.46875 69.488281 C 155.46875 69.769531 155.523438 70.011719 155.632812 70.222656 C 155.75 70.4375 155.90625 70.601562 156.109375 70.722656 C 156.3125 70.847656 156.542969 70.910156 156.808594 70.910156 C 156.984375 70.910156 157.132812 70.886719 157.257812 70.84375 C 157.382812 70.800781 157.492188 70.746094 157.578125 70.679688 C 157.667969 70.617188 157.746094 70.550781 157.808594 70.484375 C 157.867188 70.441406 157.929688 70.417969 157.992188 70.417969 C 158.0625 70.417969 158.121094 70.445312 158.167969 70.492188 C 158.214844 70.535156 158.242188 70.59375 158.242188 70.664062 C 158.242188 70.746094 158.203125 70.816406 158.125 70.878906 C 157.984375 71.03125 157.800781 71.164062 157.574219 71.273438 C 157.34375 71.386719 157.097656 71.441406 156.832031 71.441406 M 162.25 66.027344 C 162.335938 66.027344 162.40625 66.054688 162.457031 66.109375 C 162.511719 66.164062 162.539062 66.234375 162.539062 66.316406 L 162.539062 71.078125 C 162.539062 71.160156 162.511719 71.230469 162.453125 71.285156 C 162.398438 71.339844 162.328125 71.371094 162.25 71.371094 C 162.167969 71.371094 162.101562 71.339844 162.042969 71.285156 C 161.988281 71.230469 161.960938 71.160156 161.960938 71.078125 L 161.960938 70.390625 L 162.097656 70.339844 C 162.097656 70.457031 162.0625 70.574219 161.992188 70.703125 C 161.921875 70.832031 161.824219 70.949219 161.695312 71.0625 C 161.566406 71.171875 161.421875 71.261719 161.253906 71.335938 C 161.082031 71.40625 160.898438 71.441406 160.703125 71.441406 C 160.375 71.441406 160.082031 71.359375 159.824219 71.191406 C 159.5625 71.023438 159.355469 70.789062 159.207031 70.5 C 159.054688 70.203125 158.976562 69.867188 158.976562 69.496094 C 158.976562 69.113281 159.054688 68.777344 159.207031 68.480469 C 159.355469 68.191406 159.558594 67.957031 159.820312 67.792969 C 160.074219 67.625 160.367188 67.546875 160.691406 67.546875 C 160.890625 67.546875 161.078125 67.574219 161.257812 67.644531 C 161.433594 67.710938 161.585938 67.804688 161.722656 67.917969 C 161.855469 68.035156 161.960938 68.164062 162.035156 68.300781 C 162.113281 68.441406 162.148438 68.582031 162.148438 68.722656 L 161.960938 68.675781 L 161.960938 66.316406 C 161.960938 66.234375 161.988281 66.164062 162.042969 66.109375 C 162.101562 66.054688 162.167969 66.027344 162.25 66.027344 M 160.761719 70.910156 C 161.007812 70.910156 161.222656 70.847656 161.40625 70.722656 C 161.585938 70.601562 161.730469 70.433594 161.835938 70.21875 C 161.945312 70.003906 161.996094 69.765625 161.996094 69.496094 C 161.996094 69.21875 161.945312 68.976562 161.835938 68.765625 C 161.730469 68.550781 161.585938 68.382812 161.402344 68.265625 C 161.214844 68.140625 161 68.078125 160.761719 68.078125 C 160.527344 68.078125 160.3125 68.140625 160.128906 68.265625 C 159.945312 68.382812 159.800781 68.550781 159.691406 68.765625 C 159.585938 68.976562 159.53125 69.21875 159.53125 69.496094 C 159.53125 69.761719 159.585938 69.996094 159.691406 70.210938 C 159.800781 70.429688 159.945312 70.59375 160.128906 70.722656 C 160.3125 70.847656 160.527344 70.910156 160.761719 70.910156 M 169.351562 66.308594 C 169.433594 66.308594 169.503906 66.332031 169.5625 66.382812 C 169.617188 66.433594 169.648438 66.5 169.648438 66.582031 C 169.648438 66.621094 169.636719 66.664062 169.617188 66.714844 L 167.730469 71.183594 C 167.703125 71.246094 167.664062 71.292969 167.613281 71.324219 C 167.5625 71.355469 167.507812 71.371094 167.449219 71.371094 C 167.398438 71.367188 167.347656 71.347656 167.300781 71.316406 C 167.25 71.285156 167.214844 71.242188 167.191406 71.183594 L 165.3125 66.722656 C 165.300781 66.703125 165.292969 66.679688 165.289062 66.660156 C 165.285156 66.636719 165.28125 66.613281 165.28125 66.589844 C 165.28125 66.5 165.3125 66.425781 165.378906 66.375 C 165.445312 66.324219 165.507812 66.300781 165.570312 66.300781 C 165.703125 66.300781 165.796875 66.367188 165.855469 66.503906 L 167.578125 70.621094 L 167.417969 70.621094 L 169.082031 66.488281 C 169.140625 66.367188 169.230469 66.308594 169.351562 66.308594 M 173.351562 67.597656 C 173.4375 67.597656 173.507812 67.628906 173.558594 67.683594 C 173.613281 67.738281 173.640625 67.808594 173.640625 67.890625 L 173.640625 71.078125 C 173.640625 71.160156 173.613281 71.230469 173.558594 71.285156 C 173.5 71.339844 173.433594 71.371094 173.351562 71.371094 C 173.269531 71.371094 173.203125 71.339844 173.148438 71.285156 C 173.089844 71.230469 173.0625 71.160156 173.0625 71.078125 L 173.0625 70.390625 L 173.203125 70.375 C 173.203125 70.484375 173.164062 70.59375 173.09375 70.722656 C 173.019531 70.847656 172.921875 70.964844 172.792969 71.074219 C 172.667969 71.183594 172.523438 71.265625 172.355469 71.335938 C 172.1875 71.40625 172.003906 71.441406 171.808594 71.441406 C 171.476562 71.441406 171.183594 71.355469 170.921875 71.1875 C 170.65625 71.015625 170.453125 70.785156 170.304688 70.492188 C 170.15625 70.195312 170.078125 69.859375 170.078125 69.488281 C 170.078125 69.105469 170.15625 68.769531 170.308594 68.476562 C 170.457031 68.1875 170.664062 67.957031 170.921875 67.792969 C 171.175781 67.625 171.46875 67.546875 171.792969 67.546875 C 171.996094 67.546875 172.191406 67.574219 172.371094 67.644531 C 172.550781 67.710938 172.703125 67.804688 172.835938 67.917969 C 172.96875 68.035156 173.070312 68.164062 173.144531 68.300781 C 173.214844 68.441406 173.253906 68.582031 173.253906 68.722656 L 173.0625 68.675781 L 173.0625 67.890625 C 173.0625 67.808594 173.089844 67.738281 173.148438 67.683594 C 173.203125 67.628906 173.269531 67.597656 173.351562 67.597656 M 171.867188 70.910156 C 172.105469 70.910156 172.316406 70.847656 172.503906 70.722656 C 172.6875 70.59375 172.832031 70.429688 172.941406 70.210938 C 173.046875 69.996094 173.097656 69.757812 173.097656 69.488281 C 173.097656 69.21875 173.046875 68.984375 172.941406 68.769531 C 172.832031 68.554688 172.6875 68.382812 172.503906 68.265625 C 172.316406 68.140625 172.105469 68.078125 171.867188 68.078125 C 171.628906 68.078125 171.417969 68.140625 171.230469 68.261719 C 171.046875 68.378906 170.902344 68.542969 170.792969 68.757812 C 170.6875 68.96875 170.636719 69.210938 170.636719 69.488281 C 170.636719 69.757812 170.6875 69.996094 170.792969 70.210938 C 170.902344 70.429688 171.046875 70.59375 171.230469 70.722656 C 171.417969 70.847656 171.628906 70.910156 171.867188 70.910156 M 175.339844 71.078125 C 175.339844 71.160156 175.308594 71.230469 175.25 71.285156 C 175.195312 71.339844 175.125 71.371094 175.042969 71.371094 C 174.957031 71.371094 174.890625 71.339844 174.839844 71.285156 C 174.789062 71.230469 174.761719 71.160156 174.761719 71.078125 L 174.761719 66.316406 C 174.761719 66.234375 174.789062 66.164062 174.839844 66.109375 C 174.898438 66.054688 174.964844 66.027344 175.046875 66.027344 C 175.136719 66.027344 175.207031 66.054688 175.257812 66.109375 C 175.3125 66.164062 175.339844 66.234375 175.339844 66.316406 L 175.339844 71.078125 M 179.210938 67.636719 C 179.292969 67.636719 179.363281 67.664062 179.417969 67.71875 C 179.472656 67.773438 179.496094 67.84375 179.496094 67.925781 L 179.496094 69.898438 C 179.496094 70.386719 179.359375 70.761719 179.089844 71.03125 C 178.816406 71.292969 178.441406 71.429688 177.953125 71.429688 C 177.472656 71.429688 177.09375 71.292969 176.824219 71.03125 C 176.550781 70.761719 176.414062 70.386719 176.414062 69.898438 L 176.414062 67.925781 C 176.414062 67.84375 176.441406 67.773438 176.496094 67.71875 C 176.550781 67.664062 176.621094 67.636719 176.703125 67.636719 C 176.789062 67.636719 176.859375 67.664062 176.914062 67.71875 C 176.96875 67.773438 176.992188 67.84375 176.992188 67.925781 L 176.992188 69.898438 C 176.992188 70.226562 177.074219 70.476562 177.242188 70.640625 C 177.414062 70.808594 177.652344 70.894531 177.953125 70.894531 C 178.265625 70.894531 178.507812 70.808594 178.671875 70.640625 C 178.835938 70.476562 178.921875 70.226562 178.921875 69.898438 L 178.921875 67.925781 C 178.921875 67.84375 178.949219 67.773438 179.003906 67.71875 C 179.058594 67.664062 179.128906 67.636719 179.210938 67.636719 M 182.25 71.441406 C 181.867188 71.441406 181.527344 71.359375 181.242188 71.199219 C 180.949219 71.035156 180.730469 70.808594 180.570312 70.519531 C 180.410156 70.238281 180.328125 69.902344 180.328125 69.53125 C 180.328125 69.109375 180.414062 68.753906 180.578125 68.457031 C 180.742188 68.164062 180.960938 67.933594 181.226562 67.777344 C 181.488281 67.621094 181.769531 67.546875 182.070312 67.546875 C 182.296875 67.546875 182.511719 67.582031 182.71875 67.664062 C 182.921875 67.746094 183.101562 67.867188 183.265625 68.023438 C 183.425781 68.179688 183.558594 68.367188 183.652344 68.585938 C 183.746094 68.808594 183.796875 69.046875 183.800781 69.320312 C 183.796875 69.398438 183.765625 69.460938 183.707031 69.515625 C 183.652344 69.570312 183.585938 69.597656 183.507812 69.597656 L 180.65625 69.597656 L 180.523438 69.09375 L 183.304688 69.09375 L 183.1875 69.195312 L 183.1875 69.035156 C 183.175781 68.84375 183.109375 68.671875 182.996094 68.527344 C 182.886719 68.386719 182.746094 68.28125 182.582031 68.203125 C 182.417969 68.125 182.246094 68.085938 182.070312 68.085938 C 181.925781 68.085938 181.78125 68.113281 181.640625 68.164062 C 181.496094 68.214844 181.371094 68.292969 181.257812 68.40625 C 181.144531 68.519531 181.054688 68.664062 180.984375 68.84375 C 180.917969 69.023438 180.882812 69.234375 180.882812 69.488281 C 180.882812 69.769531 180.941406 70.011719 181.054688 70.222656 C 181.167969 70.4375 181.328125 70.601562 181.527344 70.722656 C 181.730469 70.847656 181.964844 70.910156 182.226562 70.910156 C 182.402344 70.910156 182.550781 70.886719 182.675781 70.84375 C 182.804688 70.800781 182.910156 70.746094 182.996094 70.679688 C 183.085938 70.617188 183.164062 70.550781 183.226562 70.484375 C 183.289062 70.441406 183.351562 70.417969 183.414062 70.417969 C 183.480469 70.417969 183.539062 70.445312 183.589844 70.492188 C 183.636719 70.535156 183.660156 70.59375 183.660156 70.664062 C 183.660156 70.746094 183.621094 70.816406 183.546875 70.878906 C 183.40625 71.03125 183.21875 71.164062 182.988281 71.273438 C 182.761719 71.386719 182.515625 71.441406 182.25 71.441406 M 184.417969 70.777344 C 184.375 70.714844 184.355469 70.648438 184.363281 70.578125 C 184.367188 70.507812 184.40625 70.453125 184.480469 70.398438 C 184.53125 70.363281 184.585938 70.347656 184.652344 70.355469 C 184.71875 70.359375 184.777344 70.390625 184.828125 70.449219 C 184.964844 70.605469 185.121094 70.730469 185.289062 70.824219 C 185.464844 70.921875 185.679688 70.96875 185.925781 70.96875 C 186.042969 70.960938 186.15625 70.945312 186.273438 70.910156 C 186.390625 70.875 186.488281 70.816406 186.570312 70.730469 C 186.644531 70.648438 186.683594 70.535156 186.683594 70.398438 C 186.683594 70.261719 186.644531 70.15625 186.566406 70.074219 C 186.484375 69.996094 186.375 69.929688 186.246094 69.878906 C 186.113281 69.828125 185.972656 69.78125 185.820312 69.75 C 185.660156 69.703125 185.503906 69.65625 185.347656 69.597656 C 185.195312 69.542969 185.058594 69.472656 184.933594 69.390625 C 184.8125 69.304688 184.710938 69.199219 184.636719 69.070312 C 184.5625 68.945312 184.523438 68.789062 184.523438 68.605469 C 184.523438 68.386719 184.585938 68.203125 184.703125 68.042969 C 184.820312 67.882812 184.980469 67.757812 185.179688 67.671875 C 185.378906 67.585938 185.597656 67.546875 185.835938 67.546875 C 185.96875 67.546875 186.109375 67.558594 186.257812 67.589844 C 186.402344 67.621094 186.546875 67.671875 186.683594 67.75 C 186.824219 67.824219 186.949219 67.925781 187.054688 68.058594 C 187.097656 68.105469 187.121094 68.164062 187.128906 68.238281 C 187.132812 68.308594 187.101562 68.371094 187.03125 68.429688 C 186.980469 68.46875 186.921875 68.484375 186.855469 68.480469 C 186.789062 68.476562 186.734375 68.453125 186.691406 68.410156 C 186.59375 68.292969 186.464844 68.199219 186.3125 68.132812 C 186.160156 68.066406 185.992188 68.035156 185.8125 68.035156 C 185.699219 68.035156 185.582031 68.050781 185.472656 68.085938 C 185.359375 68.121094 185.269531 68.175781 185.191406 68.257812 C 185.121094 68.332031 185.085938 68.441406 185.085938 68.582031 C 185.089844 68.714844 185.132812 68.820312 185.210938 68.902344 C 185.292969 68.984375 185.40625 69.046875 185.542969 69.097656 C 185.683594 69.148438 185.839844 69.199219 186.003906 69.246094 C 186.160156 69.285156 186.308594 69.332031 186.453125 69.382812 C 186.59375 69.433594 186.71875 69.5 186.835938 69.582031 C 186.953125 69.664062 187.046875 69.769531 187.113281 69.894531 C 187.179688 70.023438 187.214844 70.183594 187.214844 70.375 C 187.214844 70.59375 187.152344 70.789062 187.027344 70.949219 C 186.898438 71.113281 186.734375 71.234375 186.53125 71.316406 C 186.328125 71.402344 186.105469 71.441406 185.871094 71.441406 C 185.605469 71.441406 185.34375 71.390625 185.085938 71.289062 C 184.828125 71.191406 184.605469 71.019531 184.417969 70.777344 M 188.214844 71.363281 C 188.113281 71.363281 188.039062 71.335938 187.984375 71.277344 C 187.929688 71.222656 187.898438 71.140625 187.898438 71.039062 L 187.898438 70.894531 C 187.898438 70.789062 187.929688 70.707031 187.984375 70.648438 C 188.039062 70.589844 188.113281 70.5625 188.214844 70.5625 L 188.273438 70.5625 C 188.378906 70.5625 188.460938 70.589844 188.511719 70.648438 C 188.566406 70.707031 188.59375 70.789062 188.59375 70.894531 L 188.59375 71.039062 C 188.59375 71.140625 188.566406 71.222656 188.511719 71.277344 C 188.460938 71.335938 188.378906 71.363281 188.273438 71.363281 L 188.214844 71.363281 "/></g></svg>