<svg xmlns="http://www.w3.org/2000/svg" version="1.1" xmlns:xlink="http://www.w3.org/1999/xlink" viewBox="0 0 14.348246587181471 6.00406395704307"><g transform="matrix(0.7797394686467408,0,0,0.7797394686467408,2.241405367368718,3.4867492523603874)"><rect width="16.04427246586685" height="16.04427246586685" x="-1.6960258786853784" y="-8.643776272112271" fill="#f0f4ff"></rect><g transform="matrix(1,0,0,1,0,0)" clip-path="url(#SvgjsClipPath136823)"><g clip-path="url(#SvgjsClipPath136818108516cb-64eb-40bc-b220-bf66266503ac)"><path d=" M 5.8246221123288935 -2.7756590783576915 L 7.588939893426893 -2.7756590783576915 L 5.751088169326217 -1.0780849437238333 L 3.9867703882282175 -1.0780849437238333 Z" fill="#343432" transform="matrix(1,0,0,1,0,0)" fill-rule="nonzero"></path></g><g clip-path="url(#SvgjsClipPath136818108516cb-64eb-40bc-b220-bf66266503ac)"><path d=" M 6.901132539169877 -1.9475741346338582 L 8.665450320267876 -1.9475741346338582 L 6.8275985961672 -0.25 L 5.063280815069201 -0.25 Z" fill="#343432" transform="matrix(1,0,0,1,0,0)" fill-rule="nonzero"></path></g></g><g><path d=" M 4.732933357177735 0.010199999999999876 Q 4.7502733571777345 0.010199999999999876 4.760473357177735 0.020909999999999873 Q 4.770673357177734 0.03161999999999987 4.770673357177734 0.04793999999999987 L 4.770673357177734 0.68136 Q 4.770673357177734 0.7007399999999999 4.758433357177735 0.7124699999999999 Q 4.746193357177734 0.7242 4.7288533571777345 0.7242 Q 4.719673357177735 0.7242 4.710493357177734 0.72063 Q 4.701313357177734 0.7170599999999999 4.696213357177735 0.7109399999999999 L 4.259653357177735 0.13361999999999996 L 4.280053357177734 0.12137999999999993 L 4.280053357177734 0.68646 Q 4.280053357177734 0.70278 4.269343357177735 0.71349 Q 4.258633357177734 0.7242 4.241293357177734 0.7242 Q 4.224973357177734 0.7242 4.214773357177735 0.71349 Q 4.204573357177734 0.70278 4.204573357177734 0.68646 L 4.204573357177734 0.050999999999999934 Q 4.204573357177734 0.03263999999999989 4.216303357177734 0.021419999999999884 Q 4.228033357177734 0.010199999999999876 4.244353357177735 0.010199999999999876 Q 4.2535333571777345 0.010199999999999876 4.2632233571777345 0.013769999999999949 Q 4.2729133571777345 0.01733999999999991 4.278013357177734 0.024479999999999946 L 4.708453357177734 0.59364 L 4.695193357177734 0.60996 L 4.695193357177734 0.04793999999999987 Q 4.695193357177734 0.03161999999999987 4.705903357177735 0.020909999999999873 Q 4.716613357177734 0.010199999999999876 4.732933357177735 0.010199999999999876 M 5.195993435302734 0.11627999999999994 L 4.956293435302734 0.6997199999999999 Q 4.952213435302734 0.7119599999999999 4.9420134353027345 0.7191 Q 4.931813435302734 0.72624 4.9205934353027345 0.72624 Q 4.901213435302735 0.72624 4.892033435302734 0.71604 Q 4.882853435302734 0.7058399999999999 4.882853435302734 0.69156 Q 4.881833435302734 0.6844199999999999 4.884893435302734 0.67626 L 5.149073435302734 0.03365999999999991 Q 5.154173435302734 0.019379999999999953 5.164883435302734 0.012749999999999928 Q 5.175593435302734 0.006119999999999903 5.188853435302734 0.007139999999999924 Q 5.202113435302734 0.007139999999999924 5.2128234353027345 0.014279999999999848 Q 5.223533435302734 0.021419999999999884 5.227613435302734 0.03365999999999991 L 5.490773435302734 0.67014 Q 5.493833435302734 0.6782999999999999 5.493833435302734 0.68646 Q 5.493833435302734 0.70482 5.4815934353027345 0.71553 Q 5.469353435302734 0.72624 5.454053435302734 0.72624 Q 5.441813435302734 0.72624 5.431613435302734 0.7191 Q 5.421413435302735 0.7119599999999999 5.416313435302734 0.6987 L 5.173553435302734 0.11525999999999992 L 5.195993435302734 0.11627999999999994 M 5.007293435302734 0.5334599999999999 L 5.041973435302734 0.4538999999999999 L 5.344913435302734 0.4538999999999999 L 5.360213435302734 0.5334599999999999 L 5.007293435302734 0.5334599999999999 M 5.647835007568359 0.009179999999999855 Q 5.65701500756836 0.009179999999999855 5.667725007568359 0.014279999999999848 Q 5.67843500756836 0.019379999999999953 5.68455500756836 0.027539999999999898 L 5.9548550075683595 0.43655999999999995 L 5.919155007568359 0.4355399999999999 L 6.1925150075683595 0.027539999999999898 Q 6.205775007568359 0.008159999999999945 6.227195007568359 0.009179999999999855 Q 6.24351500756836 0.010199999999999876 6.255755007568359 0.021419999999999884 Q 6.267995007568359 0.03263999999999989 6.267995007568359 0.050999999999999934 L 6.267995007568359 0.68238 Q 6.267995007568359 0.6997199999999999 6.255755007568359 0.7119599999999999 Q 6.24351500756836 0.7242 6.225155007568359 0.7242 Q 6.20679500756836 0.7242 6.1945550075683595 0.7119599999999999 Q 6.182315007568359 0.6997199999999999 6.182315007568359 0.68238 L 6.182315007568359 0.12851999999999997 L 6.207815007568359 0.13361999999999996 L 5.96709500756836 0.4997999999999999 Q 5.96097500756836 0.50694 5.952305007568359 0.5120399999999999 Q 5.94363500756836 0.5171399999999999 5.934455007568359 0.5171399999999999 Q 5.925275007568359 0.5171399999999999 5.91609500756836 0.5120399999999999 Q 5.90691500756836 0.50694 5.90079500756836 0.4997999999999999 L 5.66313500756836 0.13361999999999996 L 5.68455500756836 0.10709999999999986 L 5.68455500756836 0.68238 Q 5.68455500756836 0.6997199999999999 5.673335007568359 0.7119599999999999 Q 5.662115007568359 0.7242 5.644775007568359 0.7242 Q 5.6274350075683595 0.7242 5.616725007568359 0.7119599999999999 Q 5.6060150075683595 0.6997199999999999 5.6060150075683595 0.68238 L 5.6060150075683595 0.050999999999999934 Q 5.6060150075683595 0.03467999999999993 5.6177450075683595 0.021929999999999894 Q 5.6294750075683595 0.009179999999999855 5.647835007568359 0.009179999999999855 M 6.693309109130859 0.11627999999999994 L 6.453609109130859 0.6997199999999999 Q 6.449529109130859 0.7119599999999999 6.43932910913086 0.7191 Q 6.4291291091308596 0.72624 6.41790910913086 0.72624 Q 6.39852910913086 0.72624 6.389349109130859 0.71604 Q 6.380169109130859 0.7058399999999999 6.380169109130859 0.69156 Q 6.379149109130859 0.6844199999999999 6.3822091091308595 0.67626 L 6.646389109130859 0.03365999999999991 Q 6.65148910913086 0.019379999999999953 6.662199109130859 0.012749999999999928 Q 6.67290910913086 0.006119999999999903 6.6861691091308595 0.007139999999999924 Q 6.699429109130859 0.007139999999999924 6.71013910913086 0.014279999999999848 Q 6.720849109130859 0.021419999999999884 6.724929109130859 0.03365999999999991 L 6.9880891091308595 0.67014 Q 6.991149109130859 0.6782999999999999 6.991149109130859 0.68646 Q 6.991149109130859 0.70482 6.97890910913086 0.71553 Q 6.9666691091308595 0.72624 6.95136910913086 0.72624 Q 6.939129109130859 0.72624 6.928929109130859 0.7191 Q 6.91872910913086 0.7119599999999999 6.913629109130859 0.6987 L 6.67086910913086 0.11525999999999992 L 6.693309109130859 0.11627999999999994 M 6.504609109130859 0.5334599999999999 L 6.539289109130859 0.4538999999999999 L 6.84222910913086 0.4538999999999999 L 6.8575291091308594 0.5334599999999999 L 6.504609109130859 0.5334599999999999 M 7.631690681396485 0.010199999999999876 Q 7.649030681396485 0.010199999999999876 7.659230681396485 0.020909999999999873 Q 7.669430681396484 0.03161999999999987 7.669430681396484 0.04793999999999987 L 7.669430681396484 0.68136 Q 7.669430681396484 0.7007399999999999 7.657190681396485 0.7124699999999999 Q 7.644950681396485 0.7242 7.627610681396485 0.7242 Q 7.618430681396485 0.7242 7.609250681396484 0.72063 Q 7.600070681396485 0.7170599999999999 7.594970681396485 0.7109399999999999 L 7.158410681396485 0.13361999999999996 L 7.1788106813964845 0.12137999999999993 L 7.1788106813964845 0.68646 Q 7.1788106813964845 0.70278 7.168100681396485 0.71349 Q 7.1573906813964845 0.7242 7.140050681396485 0.7242 Q 7.123730681396484 0.7242 7.113530681396485 0.71349 Q 7.103330681396485 0.70278 7.103330681396485 0.68646 L 7.103330681396485 0.050999999999999934 Q 7.103330681396485 0.03263999999999989 7.115060681396485 0.021419999999999884 Q 7.126790681396485 0.010199999999999876 7.143110681396485 0.010199999999999876 Q 7.152290681396485 0.010199999999999876 7.161980681396485 0.013769999999999949 Q 7.171670681396485 0.01733999999999991 7.176770681396484 0.024479999999999946 L 7.607210681396484 0.59364 L 7.5939506813964845 0.60996 L 7.5939506813964845 0.04793999999999987 Q 7.5939506813964845 0.03161999999999987 7.604660681396485 0.020909999999999873 Q 7.6153706813964845 0.010199999999999876 7.631690681396485 0.010199999999999876 M 8.491530759521485 0.3671999999999999 Q 8.491530759521485 0.4457399999999999 8.466030759521484 0.51255 Q 8.440530759521485 0.5793599999999999 8.394630759521485 0.62934 Q 8.348730759521484 0.6793199999999999 8.285490759521485 0.7068599999999999 Q 8.222250759521485 0.7343999999999999 8.147790759521484 0.7343999999999999 Q 8.072310759521484 0.7343999999999999 8.009580759521484 0.7068599999999999 Q 7.946850759521484 0.6793199999999999 7.900950759521485 0.62934 Q 7.855050759521484 0.5793599999999999 7.829550759521484 0.51255 Q 7.804050759521484 0.4457399999999999 7.804050759521484 0.3671999999999999 Q 7.804050759521484 0.2876399999999999 7.829550759521484 0.22082999999999997 Q 7.855050759521484 0.15401999999999993 7.900950759521485 0.10454999999999992 Q 7.946850759521484 0.05507999999999991 8.009580759521484 0.027539999999999898 Q 8.072310759521484 -1.1102230246251565e-16 8.147790759521484 -1.1102230246251565e-16 Q 8.222250759521485 -1.1102230246251565e-16 8.285490759521485 0.027539999999999898 Q 8.348730759521484 0.05507999999999991 8.394630759521485 0.10454999999999992 Q 8.440530759521485 0.15401999999999993 8.466030759521484 0.22082999999999997 Q 8.491530759521485 0.2876399999999999 8.491530759521485 0.3671999999999999 M 8.403810759521484 0.3671999999999999 Q 8.403810759521484 0.2835599999999999 8.370660759521485 0.21929999999999994 Q 8.337510759521484 0.15503999999999996 8.280390759521485 0.11831999999999987 Q 8.223270759521485 0.0815999999999999 8.147790759521484 0.0815999999999999 Q 8.072310759521484 0.0815999999999999 8.014680759521484 0.11831999999999987 Q 7.9570507595214846 0.15503999999999996 7.924410759521485 0.21929999999999994 Q 7.891770759521484 0.2835599999999999 7.891770759521484 0.3671999999999999 Q 7.891770759521484 0.44981999999999994 7.924410759521485 0.5145899999999999 Q 7.9570507595214846 0.5793599999999999 8.014680759521484 0.61608 Q 8.072310759521484 0.6527999999999999 8.147790759521484 0.6527999999999999 Q 8.223270759521485 0.6527999999999999 8.280390759521485 0.61608 Q 8.337510759521484 0.5793599999999999 8.370660759521485 0.5145899999999999 Q 8.403810759521484 0.44981999999999994 8.403810759521484 0.3671999999999999" fill="#0a2472" fill-rule="nonzero"></path></g><g><path d=" M 0.353424 1.022541 Q 0.363573 1.027914 0.3650655 1.03866 Q 0.366558 1.049406 0.359394 1.058361 Q 0.354021 1.066122 0.345663 1.066719 Q 0.33730499999999997 1.067316 0.328947 1.063137 Q 0.30924599999999997 1.051197 0.28656 1.0443315 Q 0.263874 1.037466 0.23879999999999998 1.037466 Q 0.203577 1.037466 0.174324 1.0497045 Q 0.145071 1.0619429999999999 0.123579 1.084032 Q 0.102087 1.106121 0.09014699999999999 1.136568 Q 0.078207 1.167015 0.078207 1.204029 Q 0.078207 1.243431 0.09074399999999999 1.274475 Q 0.103281 1.3055189999999999 0.1250715 1.3273095 Q 0.146862 1.3491 0.1758165 1.360443 Q 0.20477099999999998 1.371786 0.23879999999999998 1.371786 Q 0.263277 1.371786 0.28596299999999997 1.365219 Q 0.308649 1.358652 0.328947 1.346115 Q 0.33730499999999997 1.341936 0.345663 1.34313 Q 0.354021 1.344324 0.359991 1.351488 Q 0.367155 1.36104 0.36536399999999997 1.3714875 Q 0.363573 1.381935 0.354021 1.386711 Q 0.339096 1.395666 0.319992 1.4031285 Q 0.300888 1.410591 0.28029149999999997 1.41477 Q 0.259695 1.418949 0.23879999999999998 1.418949 Q 0.195816 1.418949 0.157608 1.404024 Q 0.11939999999999999 1.389099 0.09014699999999999 1.36104 Q 0.060894 1.332981 0.0438795 1.2932805 Q 0.026865 1.25358 0.026865 1.204029 Q 0.026865 1.157463 0.042984 1.118658 Q 0.059102999999999996 1.079853 0.0880575 1.051197 Q 0.11701199999999999 1.022541 0.1555185 1.006422 Q 0.194025 0.9903029999999999 0.23879999999999998 0.9903029999999999 Q 0.269844 0.9903029999999999 0.2993955 0.998661 Q 0.328947 1.007019 0.353424 1.022541 M 0.65969666015625 1.10433 Q 0.6704426601562499 1.10433 0.67700966015625 1.1111955 Q 0.68357666015625 1.118061 0.68357666015625 1.12821 L 0.68357666015625 1.291191 Q 0.68357666015625 1.351488 0.64984616015625 1.3846215 Q 0.61611566015625 1.4177549999999999 0.5558186601562499 1.4177549999999999 Q 0.49611866015624995 1.4177549999999999 0.46238816015624995 1.3846215 Q 0.42865766015624995 1.351488 0.42865766015624995 1.291191 L 0.42865766015624995 1.12821 Q 0.42865766015624995 1.118061 0.43552316015625 1.1111955 Q 0.44238866015624995 1.10433 0.45253766015624997 1.10433 Q 0.46328366015624994 1.10433 0.46985066015625 1.1111955 Q 0.47641766015625 1.118061 0.47641766015625 1.12821 L 0.47641766015625 1.291191 Q 0.47641766015625 1.331787 0.49731266015625 1.352682 Q 0.51820766015625 1.373577 0.5558186601562499 1.373577 Q 0.59462366015625 1.373577 0.6152201601562499 1.352682 Q 0.6358166601562499 1.331787 0.6358166601562499 1.291191 L 0.6358166601562499 1.12821 Q 0.6358166601562499 1.118061 0.64268216015625 1.1111955 Q 0.64954766015625 1.10433 0.65969666015625 1.10433 M 0.7594029477539062 1.106121 L 0.8996979477539062 1.106121 Q 0.9092499477539062 1.106121 0.9155184477539062 1.112688 Q 0.9217869477539061 1.1192549999999999 0.9217869477539061 1.12821 Q 0.9217869477539061 1.137762 0.9155184477539062 1.1440305 Q 0.9092499477539062 1.150299 0.8996979477539062 1.150299 L 0.7594029477539062 1.150299 Q 0.7504479477539061 1.150299 0.7438809477539061 1.143732 Q 0.7373139477539061 1.137165 0.7373139477539061 1.127613 Q 0.7373139477539061 1.118658 0.7438809477539061 1.1123895 Q 0.7504479477539061 1.106121 0.7594029477539062 1.106121 M 0.8220879477539061 1.024929 Q 0.8322369477539062 1.024929 0.8388039477539062 1.0317945 Q 0.8453709477539062 1.03866 0.8453709477539062 1.0488089999999999 L 0.8453709477539062 1.33716 Q 0.8453709477539062 1.351488 0.8495499477539061 1.358652 Q 0.8537289477539062 1.365816 0.8605944477539061 1.3685025 Q 0.8674599477539062 1.371189 0.8740269477539062 1.371189 Q 0.8799969477539061 1.371189 0.8844744477539062 1.3690995 Q 0.8889519477539062 1.36701 0.8949219477539061 1.36701 Q 0.9008919477539061 1.36701 0.9059664477539062 1.3726814999999999 Q 0.9110409477539061 1.378353 0.9110409477539061 1.387308 Q 0.9110409477539061 1.398054 0.8985039477539062 1.4055165 Q 0.8859669477539062 1.412979 0.8704449477539061 1.412979 Q 0.8620869477539062 1.412979 0.8498484477539061 1.411785 Q 0.8376099477539062 1.410591 0.8256699477539061 1.404024 Q 0.8137299477539062 1.397457 0.8056704477539062 1.3822335 Q 0.7976109477539062 1.36701 0.7976109477539062 1.339548 L 0.7976109477539062 1.0488089999999999 Q 0.7976109477539062 1.03866 0.8047749477539061 1.0317945 Q 0.8119389477539062 1.024929 0.8220879477539061 1.024929 M 0.9755026640625 1.106121 L 1.1157976640625 1.106121 Q 1.1253496640625 1.106121 1.1316181640625 1.112688 Q 1.1378866640625 1.1192549999999999 1.1378866640625 1.12821 Q 1.1378866640625 1.137762 1.1316181640625 1.1440305 Q 1.1253496640625 1.150299 1.1157976640625 1.150299 L 0.9755026640625 1.150299 Q 0.9665476640624999 1.150299 0.9599806640624999 1.143732 Q 0.9534136640624999 1.137165 0.9534136640624999 1.127613 Q 0.9534136640624999 1.118658 0.9599806640624999 1.1123895 Q 0.9665476640624999 1.106121 0.9755026640625 1.106121 M 1.0381876640625 1.024929 Q 1.0483366640625 1.024929 1.0549036640625 1.0317945 Q 1.0614706640625 1.03866 1.0614706640625 1.0488089999999999 L 1.0614706640625 1.33716 Q 1.0614706640625 1.351488 1.0656496640625 1.358652 Q 1.0698286640624999 1.365816 1.0766941640625 1.3685025 Q 1.0835596640625 1.371189 1.0901266640625 1.371189 Q 1.0960966640625 1.371189 1.1005741640625 1.3690995 Q 1.1050516640624999 1.36701 1.1110216640625 1.36701 Q 1.1169916640625 1.36701 1.1220661640625 1.3726814999999999 Q 1.1271406640625 1.378353 1.1271406640625 1.387308 Q 1.1271406640625 1.398054 1.1146036640624999 1.4055165 Q 1.1020666640624999 1.412979 1.0865446640625 1.412979 Q 1.0781866640625 1.412979 1.0659481640625 1.411785 Q 1.0537096640624999 1.410591 1.0417696640625 1.404024 Q 1.0298296640625 1.397457 1.0217701640624999 1.3822335 Q 1.0137106640625 1.36701 1.0137106640625 1.339548 L 1.0137106640625 1.0488089999999999 Q 1.0137106640625 1.03866 1.0208746640625 1.0317945 Q 1.0280386640624999 1.024929 1.0381876640625 1.024929 M 1.2495113803710938 1.388502 Q 1.2495113803710938 1.398651 1.2426458803710938 1.405815 Q 1.2357803803710938 1.412979 1.2256313803710939 1.412979 Q 1.2148853803710937 1.412979 1.2083183803710937 1.405815 Q 1.2017513803710937 1.398651 1.2017513803710937 1.388502 L 1.2017513803710937 1.123434 Q 1.2017513803710937 1.1132849999999999 1.2086168803710937 1.1064195 Q 1.215482380371094 1.099554 1.2256313803710939 1.099554 Q 1.2357803803710938 1.099554 1.2426458803710938 1.1064195 Q 1.2495113803710938 1.1132849999999999 1.2495113803710938 1.123434 L 1.2495113803710938 1.388502 M 1.2256313803710939 1.059555 Q 1.2107063803710938 1.059555 1.2035423803710938 1.053585 Q 1.196378380371094 1.047615 1.196378380371094 1.035078 L 1.196378380371094 1.02672 Q 1.196378380371094 1.014183 1.2041393803710938 1.008213 Q 1.2119003803710937 1.002243 1.2262283803710938 1.002243 Q 1.2405563803710937 1.002243 1.247720380371094 1.008213 Q 1.2548843803710938 1.014183 1.2548843803710938 1.02672 L 1.2548843803710938 1.035078 Q 1.2548843803710938 1.047615 1.2474218803710937 1.053585 Q 1.2399593803710938 1.059555 1.2256313803710939 1.059555 M 1.4883163359375002 1.0965690000000001 Q 1.5289123359375 1.0965690000000001 1.5521953359375003 1.1132849999999999 Q 1.5754783359375002 1.130001 1.5853288359375002 1.1580599999999999 Q 1.5951793359375002 1.186119 1.5951793359375002 1.220745 L 1.5951793359375002 1.388502 Q 1.5951793359375002 1.398651 1.5883138359375002 1.405815 Q 1.5814483359375 1.412979 1.5712993359375003 1.412979 Q 1.5611503359375 1.412979 1.5542848359375 1.405815 Q 1.5474193359375001 1.398651 1.5474193359375001 1.388502 L 1.5474193359375001 1.2219389999999999 Q 1.5474193359375001 1.199253 1.5405538359375002 1.1810445 Q 1.5336883359375002 1.162836 1.5178678359375002 1.1517914999999999 Q 1.5020473359375002 1.140747 1.4745853359375 1.140747 Q 1.4495113359375003 1.140747 1.4286163359375001 1.1517914999999999 Q 1.4077213359375 1.162836 1.3951843359375002 1.1810445 Q 1.3826473359375002 1.199253 1.3826473359375002 1.2219389999999999 L 1.3826473359375002 1.388502 Q 1.3826473359375002 1.398651 1.3757818359375 1.405815 Q 1.3689163359375 1.412979 1.3587673359375 1.412979 Q 1.3486183359375001 1.412979 1.3417528359375002 1.405815 Q 1.3348873359375002 1.398651 1.3348873359375002 1.388502 L 1.3348873359375002 1.12821 Q 1.3348873359375002 1.118061 1.3417528359375002 1.1111955 Q 1.3486183359375001 1.10433 1.3587673359375 1.10433 Q 1.3695133359375002 1.10433 1.3760803359375002 1.1111955 Q 1.3826473359375002 1.118061 1.3826473359375002 1.12821 L 1.3826473359375002 1.1705969999999999 L 1.3707073359375002 1.1837309999999999 Q 1.3736923359375002 1.168209 1.3844383359375 1.1523885 Q 1.3951843359375002 1.136568 1.4113033359375002 1.124031 Q 1.4274223359375002 1.111494 1.4471233359375002 1.1040315 Q 1.4668243359375002 1.0965690000000001 1.4883163359375002 1.0965690000000001 M 1.8094930078125 1.0965690000000001 Q 1.8357610078125 1.0965690000000001 1.8578500078125 1.1052255 Q 1.8799390078125 1.113882 1.8963565078125 1.127613 Q 1.9127740078125002 1.141344 1.9220275078125 1.156269 Q 1.9312810078125 1.171194 1.9312810078125 1.184328 L 1.9193410078125002 1.1771639999999999 L 1.9193410078125002 1.125225 Q 1.9193410078125002 1.115076 1.9262065078125001 1.1082105 Q 1.9330720078125 1.101345 1.9432210078125 1.101345 Q 1.9539670078125 1.101345 1.9605340078125 1.1082105 Q 1.9671010078125 1.115076 1.9671010078125 1.125225 L 1.9671010078125 1.386711 Q 1.9671010078125 1.435665 1.9465045078125 1.467903 Q 1.9259080078125002 1.500141 1.8912820078125 1.51626 Q 1.8566560078125 1.532379 1.8142690078125001 1.532379 Q 1.7963590078125 1.532379 1.7745685078125 1.527603 Q 1.7527780078125001 1.522827 1.7360620078125 1.5159615 Q 1.7193460078125 1.509096 1.7151670078125 1.501932 Q 1.7062120078125 1.495962 1.7041225078125 1.4884995 Q 1.7020330078125 1.481037 1.7062120078125 1.47447 Q 1.7121820078125 1.466112 1.7205400078125002 1.466112 Q 1.7288980078125 1.466112 1.7420320078125 1.471485 Q 1.7480020078125 1.473276 1.7593450078125001 1.477455 Q 1.7706880078125 1.481634 1.7856130078125 1.4849175 Q 1.8005380078125 1.4882009999999999 1.8148660078125 1.4882009999999999 Q 1.8656110078125 1.4882009999999999 1.8924760078125 1.4616345 Q 1.9193410078125002 1.435068 1.9193410078125002 1.391487 L 1.9193410078125002 1.335966 L 1.9259080078125002 1.338951 Q 1.9223260078125 1.355667 1.9115800078125 1.369995 Q 1.9008340078125001 1.384323 1.8850135078125 1.3953675 Q 1.8691930078125 1.406412 1.8497905078125 1.4126805 Q 1.8303880078125 1.418949 1.8106870078125001 1.418949 Q 1.7688970078125 1.418949 1.7357635078125 1.398054 Q 1.7026300078125 1.377159 1.6832275078125 1.340742 Q 1.6638250078125 1.304325 1.6638250078125 1.257759 Q 1.6638250078125 1.210596 1.6832275078125 1.174179 Q 1.7026300078125 1.137762 1.7354650078125 1.1171655 Q 1.7683000078125 1.0965690000000001 1.8094930078125 1.0965690000000001 M 1.8160600078125 1.140747 Q 1.7850160078125001 1.140747 1.7611360078125 1.1559705 Q 1.7372560078125001 1.171194 1.7235250078125 1.197462 Q 1.7097940078125 1.22373 1.7097940078125 1.257759 Q 1.7097940078125 1.290594 1.7235250078125 1.3171605 Q 1.7372560078125001 1.343727 1.7611360078125 1.359249 Q 1.7850160078125001 1.374771 1.8160600078125 1.374771 Q 1.8471040078125 1.374771 1.8709840078125 1.3595475 Q 1.8948640078125 1.344324 1.9085950078125 1.318056 Q 1.9223260078125 1.291788 1.9223260078125 1.257759 Q 1.9223260078125 1.223133 1.9085950078125 1.196865 Q 1.8948640078125 1.1705969999999999 1.8709840078125 1.155672 Q 1.8471040078125 1.140747 1.8160600078125 1.140747 M 2.250704575195313 0.995079 L 2.463236575195313 0.995079 Q 2.473385575195313 0.995079 2.480549575195313 1.001646 Q 2.487713575195313 1.008213 2.487713575195313 1.018362 Q 2.487713575195313 1.028511 2.480549575195313 1.0347795 Q 2.473385575195313 1.041048 2.463236575195313 1.041048 L 2.271002575195313 1.041048 L 2.276375575195313 1.030899 L 2.276375575195313 1.18194 L 2.270405575195313 1.175373 L 2.436371575195313 1.175373 Q 2.4465205751953127 1.175373 2.4536845751953127 1.18194 Q 2.460848575195313 1.188507 2.460848575195313 1.198656 Q 2.460848575195313 1.208805 2.4536845751953127 1.2150735 Q 2.4465205751953127 1.221342 2.436371575195313 1.221342 L 2.272196575195313 1.221342 L 2.276375575195313 1.215969 L 2.276375575195313 1.370592 L 2.2727935751953128 1.366413 L 2.463236575195313 1.366413 Q 2.473385575195313 1.366413 2.480549575195313 1.373577 Q 2.487713575195313 1.380741 2.487713575195313 1.389696 Q 2.487713575195313 1.399845 2.480549575195313 1.406412 Q 2.473385575195313 1.412979 2.463236575195313 1.412979 L 2.250704575195313 1.412979 Q 2.240555575195313 1.412979 2.233690075195313 1.405815 Q 2.226824575195313 1.398651 2.226824575195313 1.388502 L 2.226824575195313 1.018959 Q 2.226824575195313 1.00881 2.233690075195313 1.0019445 Q 2.240555575195313 0.995079 2.250704575195313 0.995079 M 2.806513032714844 0.9711989999999999 Q 2.817259032714844 0.9711989999999999 2.823826032714844 0.9780645 Q 2.830393032714844 0.98493 2.830393032714844 0.995079 L 2.830393032714844 1.388502 Q 2.830393032714844 1.398651 2.823527532714844 1.405815 Q 2.816662032714844 1.412979 2.806513032714844 1.412979 Q 2.796364032714844 1.412979 2.789498532714844 1.405815 Q 2.782633032714844 1.398651 2.782633032714844 1.388502 L 2.782633032714844 1.331787 L 2.793976032714844 1.327608 Q 2.793976032714844 1.341936 2.785319532714844 1.3577565 Q 2.776663032714844 1.373577 2.760842532714844 1.387308 Q 2.745022032714844 1.401039 2.724127032714844 1.409994 Q 2.703232032714844 1.418949 2.678755032714844 1.418949 Q 2.638159032714844 1.418949 2.605921032714844 1.398054 Q 2.573683032714844 1.377159 2.554877532714844 1.340742 Q 2.536072032714844 1.304325 2.536072032714844 1.257759 Q 2.536072032714844 1.210596 2.554877532714844 1.174179 Q 2.573683032714844 1.137762 2.605622532714844 1.1171655 Q 2.637562032714844 1.0965690000000001 2.677561032714844 1.0965690000000001 Q 2.702635032714844 1.0965690000000001 2.724425532714844 1.104927 Q 2.746216032714844 1.1132849999999999 2.762932032714844 1.127613 Q 2.779648032714844 1.141941 2.788901532714844 1.159254 Q 2.798155032714844 1.176567 2.798155032714844 1.19388 L 2.782633032714844 1.190298 L 2.782633032714844 0.995079 Q 2.782633032714844 0.98493 2.789498532714844 0.9780645 Q 2.796364032714844 0.9711989999999999 2.806513032714844 0.9711989999999999 M 2.683531032714844 1.374771 Q 2.713978032714844 1.374771 2.736664032714844 1.3595475 Q 2.759350032714844 1.344324 2.772484032714844 1.3177575 Q 2.785618032714844 1.291191 2.785618032714844 1.257759 Q 2.785618032714844 1.22373 2.772484032714844 1.197462 Q 2.759350032714844 1.171194 2.736365532714844 1.1559705 Q 2.713381032714844 1.140747 2.683531032714844 1.140747 Q 2.654278032714844 1.140747 2.631293532714844 1.1559705 Q 2.608309032714844 1.171194 2.595175032714844 1.197462 Q 2.582041032714844 1.22373 2.582041032714844 1.257759 Q 2.582041032714844 1.290594 2.595175032714844 1.3171605 Q 2.608309032714844 1.343727 2.631293532714844 1.359249 Q 2.654278032714844 1.374771 2.683531032714844 1.374771 M 3.044721279785157 1.0965690000000001 Q 3.070989279785157 1.0965690000000001 3.0930782797851566 1.1052255 Q 3.115167279785157 1.113882 3.1315847797851566 1.127613 Q 3.148002279785157 1.141344 3.1572557797851566 1.156269 Q 3.166509279785157 1.171194 3.166509279785157 1.184328 L 3.1545692797851568 1.1771639999999999 L 3.1545692797851568 1.125225 Q 3.1545692797851568 1.115076 3.1614347797851567 1.1082105 Q 3.1683002797851567 1.101345 3.1784492797851565 1.101345 Q 3.1891952797851566 1.101345 3.1957622797851566 1.1082105 Q 3.2023292797851566 1.115076 3.2023292797851566 1.125225 L 3.2023292797851566 1.386711 Q 3.2023292797851566 1.435665 3.1817327797851567 1.467903 Q 3.1611362797851568 1.500141 3.1265102797851565 1.51626 Q 3.0918842797851567 1.532379 3.0494972797851565 1.532379 Q 3.031587279785157 1.532379 3.0097967797851566 1.527603 Q 2.9880062797851568 1.522827 2.9712902797851566 1.5159615 Q 2.954574279785157 1.509096 2.9503952797851567 1.501932 Q 2.941440279785157 1.495962 2.9393507797851566 1.4884995 Q 2.9372612797851567 1.481037 2.941440279785157 1.47447 Q 2.9474102797851565 1.466112 2.9557682797851568 1.466112 Q 2.9641262797851566 1.466112 2.9772602797851566 1.471485 Q 2.9832302797851566 1.473276 2.9945732797851567 1.477455 Q 3.005916279785157 1.481634 3.0208412797851567 1.4849175 Q 3.0357662797851566 1.4882009999999999 3.0500942797851565 1.4882009999999999 Q 3.1008392797851565 1.4882009999999999 3.1277042797851564 1.4616345 Q 3.1545692797851568 1.435068 3.1545692797851568 1.391487 L 3.1545692797851568 1.335966 L 3.1611362797851568 1.338951 Q 3.1575542797851566 1.355667 3.146808279785157 1.369995 Q 3.1360622797851567 1.384323 3.1202417797851565 1.3953675 Q 3.1044212797851567 1.406412 3.0850187797851567 1.4126805 Q 3.0656162797851567 1.418949 3.0459152797851567 1.418949 Q 3.0041252797851565 1.418949 2.9709917797851566 1.398054 Q 2.9378582797851567 1.377159 2.9184557797851567 1.340742 Q 2.8990532797851567 1.304325 2.8990532797851567 1.257759 Q 2.8990532797851567 1.210596 2.9184557797851567 1.174179 Q 2.9378582797851567 1.137762 2.9706932797851566 1.1171655 Q 3.0035282797851566 1.0965690000000001 3.044721279785157 1.0965690000000001 M 3.051288279785157 1.140747 Q 3.0202442797851567 1.140747 2.9963642797851566 1.1559705 Q 2.9724842797851565 1.171194 2.9587532797851566 1.197462 Q 2.9450222797851566 1.22373 2.9450222797851566 1.257759 Q 2.9450222797851566 1.290594 2.9587532797851566 1.3171605 Q 2.9724842797851565 1.343727 2.9963642797851566 1.359249 Q 3.0202442797851567 1.374771 3.051288279785157 1.374771 Q 3.0823322797851564 1.374771 3.1062122797851566 1.3595475 Q 3.1300922797851567 1.344324 3.1438232797851566 1.318056 Q 3.1575542797851566 1.291788 3.1575542797851566 1.257759 Q 3.1575542797851566 1.223133 3.1438232797851566 1.196865 Q 3.1300922797851567 1.1705969999999999 3.1062122797851566 1.155672 Q 3.0823322797851564 1.140747 3.051288279785157 1.140747 M 3.4178486118164066 1.418949 Q 3.3700886118164064 1.418949 3.3342686118164067 1.398651 Q 3.2984486118164065 1.378353 3.2787476118164065 1.3428315 Q 3.2590466118164065 1.30731 3.2590466118164065 1.2607439999999999 Q 3.2590466118164065 1.208805 3.2796431118164064 1.1720895 Q 3.3002396118164063 1.135374 3.3330746118164063 1.1159715000000001 Q 3.3659096118164067 1.0965690000000001 3.4029236118164063 1.0965690000000001 Q 3.4309826118164066 1.0965690000000001 3.4563551118164066 1.1067179999999999 Q 3.4817276118164067 1.116867 3.5017271118164066 1.1362695 Q 3.5217266118164066 1.155672 3.5336666118164066 1.1828355 Q 3.5456066118164067 1.209999 3.5462036118164066 1.243431 Q 3.5456066118164067 1.252983 3.5384426118164063 1.25955 Q 3.5312786118164063 1.266117 3.5217266118164066 1.266117 L 3.2859116118164065 1.266117 L 3.2751656118164063 1.224924 L 3.5050106118164064 1.224924 L 3.4954586118164066 1.233282 L 3.4954586118164066 1.220148 Q 3.4936676118164067 1.195671 3.4796381118164064 1.1780595 Q 3.4656086118164064 1.160448 3.4453106118164065 1.150896 Q 3.4250126118164066 1.141344 3.4029236118164063 1.141344 Q 3.3850136118164067 1.141344 3.3674021118164066 1.1476125 Q 3.3497906118164065 1.153881 3.3357611118164066 1.1679105 Q 3.3217316118164066 1.18194 3.3133736118164063 1.204029 Q 3.3050156118164065 1.226118 3.3050156118164065 1.2571620000000001 Q 3.3050156118164065 1.291788 3.3190451118164064 1.318056 Q 3.3330746118164063 1.344324 3.3581486118164063 1.3595475 Q 3.3832226118164064 1.374771 3.4160576118164063 1.374771 Q 3.4375496118164066 1.374771 3.4530716118164064 1.369398 Q 3.4685936118164067 1.364025 3.4796381118164064 1.3559655 Q 3.4906826118164065 1.347906 3.4984436118164064 1.339548 Q 3.5062046118164063 1.3341749999999999 3.5139656118164067 1.3341749999999999 Q 3.5223236118164065 1.3341749999999999 3.5282936118164065 1.340145 Q 3.5342636118164066 1.346115 3.5342636118164066 1.354473 Q 3.5342636118164066 1.364622 3.5247116118164064 1.372383 Q 3.5073986118164067 1.39089 3.4790411118164064 1.4049194999999999 Q 3.4506836118164066 1.418949 3.4178486118164066 1.418949 M 3.9080156367187504 1.418949 Q 3.8638376367187504 1.418949 3.8304056367187505 1.405815 Q 3.7969736367187505 1.392681 3.7659296367187505 1.364025 Q 3.7617506367187503 1.3598459999999999 3.7590641367187505 1.3547715 Q 3.7563776367187507 1.349697 3.7563776367187507 1.343727 Q 3.7563776367187507 1.3341749999999999 3.7632431367187507 1.3267125 Q 3.7701086367187506 1.31925 3.7802576367187504 1.31925 Q 3.7886156367187507 1.31925 3.7951826367187507 1.325817 Q 3.8184656367187504 1.348503 3.8456291367187503 1.360443 Q 3.8727926367187506 1.372383 3.9068216367187505 1.372383 Q 3.9330896367187504 1.372383 3.9542831367187503 1.364025 Q 3.9754766367187506 1.355667 3.9880136367187506 1.340742 Q 4.00055063671875 1.325817 4.00055063671875 1.306116 Q 3.9999536367187503 1.282236 3.9865211367187503 1.266714 Q 3.9730886367187503 1.251192 3.9495071367187506 1.2407445 Q 3.9259256367187505 1.230297 3.8948816367187504 1.223133 Q 3.8674196367187506 1.216566 3.8444351367187504 1.207014 Q 3.8214506367187506 1.197462 3.8047346367187505 1.1834324999999999 Q 3.7880186367187503 1.169403 3.7787651367187505 1.1494035 Q 3.7695116367187507 1.129404 3.7695116367187507 1.102539 Q 3.7695116367187507 1.06851 3.7874216367187503 1.042839 Q 3.8053316367187504 1.017168 3.8369726367187504 1.0031385 Q 3.8686136367187505 0.989109 3.9098066367187503 0.989109 Q 3.9462236367187504 0.989109 3.9787601367187504 1.001049 Q 4.01129663671875 1.012989 4.030997636718751 1.033884 Q 4.042937636718751 1.0452270000000001 4.042937636718751 1.055973 Q 4.042937636718751 1.064928 4.03547513671875 1.0723905 Q 4.02801263671875 1.079853 4.018460636718751 1.079853 Q 4.01189363671875 1.079853 4.006520636718751 1.075077 Q 3.9963716367187505 1.063734 3.9808496367187507 1.054779 Q 3.9653276367187504 1.045824 3.9468206367187504 1.040451 Q 3.9283136367187503 1.035078 3.9098066367187503 1.035078 Q 3.8823446367187504 1.035078 3.8614496367187505 1.0431375 Q 3.8405546367187506 1.051197 3.8289131367187506 1.0658235 Q 3.8172716367187505 1.08045 3.8172716367187505 1.100748 Q 3.8172716367187505 1.123434 3.8304056367187505 1.1380605 Q 3.8435396367187504 1.152687 3.8656286367187507 1.1619405 Q 3.8877176367187505 1.171194 3.9145826367187504 1.178358 Q 3.9438356367187506 1.185522 3.9686111367187507 1.1947755 Q 3.9933866367187507 1.204029 4.01129663671875 1.21776 Q 4.029206636718751 1.2314910000000001 4.039057136718751 1.2526845 Q 4.04890763671875 1.273878 4.04890763671875 1.304922 Q 4.04890763671875 1.337757 4.030400636718751 1.363428 Q 4.01189363671875 1.389099 3.9799541367187503 1.4037255 Q 3.9480146367187503 1.418352 3.9080156367187504 1.418949 M 4.410077478515626 1.257759 Q 4.410077478515626 1.304325 4.389779478515625 1.340742 Q 4.369481478515626 1.377159 4.334556978515626 1.398054 Q 4.299632478515625 1.418949 4.255454478515626 1.418949 Q 4.211873478515626 1.418949 4.176948978515625 1.398054 Q 4.1420244785156255 1.377159 4.121427978515626 1.340742 Q 4.100831478515626 1.304325 4.100831478515626 1.257759 Q 4.100831478515626 1.211193 4.121427978515626 1.174776 Q 4.1420244785156255 1.138359 4.176948978515625 1.117464 Q 4.211873478515626 1.0965690000000001 4.255454478515626 1.0965690000000001 Q 4.299632478515625 1.0965690000000001 4.334556978515626 1.117464 Q 4.369481478515626 1.138359 4.389779478515625 1.174776 Q 4.410077478515626 1.211193 4.410077478515626 1.257759 M 4.362317478515625 1.257759 Q 4.362317478515625 1.223133 4.348287978515626 1.196865 Q 4.3342584785156255 1.1705969999999999 4.310079978515626 1.155672 Q 4.285901478515625 1.140747 4.255454478515626 1.140747 Q 4.225604478515626 1.140747 4.201127478515626 1.155672 Q 4.176650478515626 1.1705969999999999 4.162620978515625 1.196865 Q 4.148591478515626 1.223133 4.148591478515626 1.257759 Q 4.148591478515626 1.291788 4.162620978515625 1.318056 Q 4.176650478515626 1.344324 4.201127478515626 1.3595475 Q 4.225604478515626 1.374771 4.255454478515626 1.374771 Q 4.285901478515625 1.374771 4.310079978515626 1.3595475 Q 4.3342584785156255 1.344324 4.348287978515626 1.318056 Q 4.362317478515625 1.291788 4.362317478515625 1.257759 M 4.531262356933595 1.388502 Q 4.531262356933595 1.398651 4.524098356933594 1.405815 Q 4.516934356933594 1.412979 4.5067853569335945 1.412979 Q 4.496636356933594 1.412979 4.490069356933594 1.405815 Q 4.483502356933594 1.398651 4.483502356933594 1.388502 L 4.483502356933594 0.995079 Q 4.483502356933594 0.98493 4.490367856933594 0.9780645 Q 4.497233356933594 0.9711989999999999 4.5073823569335945 0.9711989999999999 Q 4.518128356933595 0.9711989999999999 4.524695356933594 0.9780645 Q 4.531262356933595 0.98493 4.531262356933595 0.995079 L 4.531262356933595 1.388502 M 4.851240073242187 1.10433 Q 4.861986073242187 1.10433 4.868553073242188 1.1111955 Q 4.875120073242187 1.118061 4.875120073242187 1.12821 L 4.875120073242187 1.291191 Q 4.875120073242187 1.351488 4.841389573242187 1.3846215 Q 4.8076590732421876 1.4177549999999999 4.747362073242187 1.4177549999999999 Q 4.687662073242188 1.4177549999999999 4.653931573242188 1.3846215 Q 4.620201073242187 1.351488 4.620201073242187 1.291191 L 4.620201073242187 1.12821 Q 4.620201073242187 1.118061 4.627066573242187 1.1111955 Q 4.633932073242188 1.10433 4.644081073242187 1.10433 Q 4.6548270732421875 1.10433 4.661394073242188 1.1111955 Q 4.6679610732421875 1.118061 4.6679610732421875 1.12821 L 4.6679610732421875 1.291191 Q 4.6679610732421875 1.331787 4.688856073242188 1.352682 Q 4.709751073242187 1.373577 4.747362073242187 1.373577 Q 4.786167073242187 1.373577 4.806763573242187 1.352682 Q 4.827360073242188 1.331787 4.827360073242188 1.291191 L 4.827360073242188 1.12821 Q 4.827360073242188 1.118061 4.834225573242188 1.1111955 Q 4.841091073242188 1.10433 4.851240073242187 1.10433 M 4.950946360839844 1.106121 L 5.0912413608398435 1.106121 Q 5.100793360839844 1.106121 5.107061860839844 1.112688 Q 5.113330360839844 1.1192549999999999 5.113330360839844 1.12821 Q 5.113330360839844 1.137762 5.107061860839844 1.1440305 Q 5.100793360839844 1.150299 5.0912413608398435 1.150299 L 4.950946360839844 1.150299 Q 4.941991360839844 1.150299 4.935424360839844 1.143732 Q 4.928857360839844 1.137165 4.928857360839844 1.127613 Q 4.928857360839844 1.118658 4.935424360839844 1.1123895 Q 4.941991360839844 1.106121 4.950946360839844 1.106121 M 5.0136313608398435 1.024929 Q 5.023780360839844 1.024929 5.030347360839844 1.0317945 Q 5.036914360839844 1.03866 5.036914360839844 1.0488089999999999 L 5.036914360839844 1.33716 Q 5.036914360839844 1.351488 5.041093360839844 1.358652 Q 5.045272360839844 1.365816 5.052137860839844 1.3685025 Q 5.059003360839844 1.371189 5.0655703608398435 1.371189 Q 5.071540360839844 1.371189 5.076017860839844 1.3690995 Q 5.080495360839844 1.36701 5.086465360839844 1.36701 Q 5.092435360839844 1.36701 5.0975098608398435 1.3726814999999999 Q 5.102584360839844 1.378353 5.102584360839844 1.387308 Q 5.102584360839844 1.398054 5.0900473608398435 1.4055165 Q 5.0775103608398435 1.412979 5.061988360839844 1.412979 Q 5.053630360839843 1.412979 5.041391860839844 1.411785 Q 5.029153360839844 1.410591 5.017213360839844 1.404024 Q 5.005273360839844 1.397457 4.997213860839844 1.3822335 Q 4.989154360839843 1.36701 4.989154360839843 1.339548 L 4.989154360839843 1.0488089999999999 Q 4.989154360839843 1.03866 4.996318360839844 1.0317945 Q 5.003482360839844 1.024929 5.0136313608398435 1.024929 M 5.224955077148437 1.388502 Q 5.224955077148437 1.398651 5.2180895771484375 1.405815 Q 5.2112240771484375 1.412979 5.201075077148437 1.412979 Q 5.190329077148437 1.412979 5.183762077148438 1.405815 Q 5.177195077148437 1.398651 5.177195077148437 1.388502 L 5.177195077148437 1.123434 Q 5.177195077148437 1.1132849999999999 5.184060577148437 1.1064195 Q 5.190926077148437 1.099554 5.201075077148437 1.099554 Q 5.2112240771484375 1.099554 5.2180895771484375 1.1064195 Q 5.224955077148437 1.1132849999999999 5.224955077148437 1.123434 L 5.224955077148437 1.388502 M 5.201075077148437 1.059555 Q 5.1861500771484375 1.059555 5.178986077148437 1.053585 Q 5.171822077148438 1.047615 5.171822077148438 1.035078 L 5.171822077148438 1.02672 Q 5.171822077148438 1.014183 5.179583077148437 1.008213 Q 5.187344077148437 1.002243 5.201672077148437 1.002243 Q 5.216000077148437 1.002243 5.223164077148438 1.008213 Q 5.230328077148437 1.014183 5.230328077148437 1.02672 L 5.230328077148437 1.035078 Q 5.230328077148437 1.047615 5.222865577148437 1.053585 Q 5.215403077148437 1.059555 5.201075077148437 1.059555 M 5.600473032714843 1.257759 Q 5.600473032714843 1.304325 5.580175032714843 1.340742 Q 5.5598770327148435 1.377159 5.524952532714844 1.398054 Q 5.490028032714843 1.418949 5.445850032714843 1.418949 Q 5.402269032714844 1.418949 5.367344532714843 1.398054 Q 5.332420032714843 1.377159 5.311823532714843 1.340742 Q 5.291227032714843 1.304325 5.291227032714843 1.257759 Q 5.291227032714843 1.211193 5.311823532714843 1.174776 Q 5.332420032714843 1.138359 5.367344532714843 1.117464 Q 5.402269032714844 1.0965690000000001 5.445850032714843 1.0965690000000001 Q 5.490028032714843 1.0965690000000001 5.524952532714844 1.117464 Q 5.5598770327148435 1.138359 5.580175032714843 1.174776 Q 5.600473032714843 1.211193 5.600473032714843 1.257759 M 5.552713032714843 1.257759 Q 5.552713032714843 1.223133 5.538683532714844 1.196865 Q 5.524654032714843 1.1705969999999999 5.500475532714844 1.155672 Q 5.476297032714843 1.140747 5.445850032714843 1.140747 Q 5.416000032714844 1.140747 5.391523032714844 1.155672 Q 5.3670460327148435 1.1705969999999999 5.353016532714843 1.196865 Q 5.338987032714844 1.223133 5.338987032714844 1.257759 Q 5.338987032714844 1.291788 5.353016532714843 1.318056 Q 5.3670460327148435 1.344324 5.391523032714844 1.3595475 Q 5.416000032714844 1.374771 5.445850032714843 1.374771 Q 5.476297032714843 1.374771 5.500475532714844 1.3595475 Q 5.524654032714843 1.344324 5.538683532714844 1.318056 Q 5.552713032714843 1.291788 5.552713032714843 1.257759 M 5.8225509111328115 1.0965690000000001 Q 5.863146911132812 1.0965690000000001 5.8864299111328116 1.1132849999999999 Q 5.909712911132812 1.130001 5.9195634111328115 1.1580599999999999 Q 5.929413911132812 1.186119 5.929413911132812 1.220745 L 5.929413911132812 1.388502 Q 5.929413911132812 1.398651 5.922548411132812 1.405815 Q 5.915682911132812 1.412979 5.905533911132812 1.412979 Q 5.895384911132812 1.412979 5.888519411132812 1.405815 Q 5.881653911132812 1.398651 5.881653911132812 1.388502 L 5.881653911132812 1.2219389999999999 Q 5.881653911132812 1.199253 5.874788411132812 1.1810445 Q 5.867922911132812 1.162836 5.852102411132812 1.1517914999999999 Q 5.8362819111328115 1.140747 5.808819911132812 1.140747 Q 5.783745911132812 1.140747 5.762850911132812 1.1517914999999999 Q 5.741955911132812 1.162836 5.729418911132812 1.1810445 Q 5.716881911132812 1.199253 5.716881911132812 1.2219389999999999 L 5.716881911132812 1.388502 Q 5.716881911132812 1.398651 5.710016411132812 1.405815 Q 5.703150911132812 1.412979 5.693001911132812 1.412979 Q 5.682852911132812 1.412979 5.6759874111328115 1.405815 Q 5.6691219111328115 1.398651 5.6691219111328115 1.388502 L 5.6691219111328115 1.12821 Q 5.6691219111328115 1.118061 5.6759874111328115 1.1111955 Q 5.682852911132812 1.10433 5.693001911132812 1.10433 Q 5.703747911132812 1.10433 5.710314911132812 1.1111955 Q 5.716881911132812 1.118061 5.716881911132812 1.12821 L 5.716881911132812 1.1705969999999999 L 5.704941911132812 1.1837309999999999 Q 5.7079269111328115 1.168209 5.718672911132812 1.1523885 Q 5.729418911132812 1.136568 5.7455379111328115 1.124031 Q 5.761656911132812 1.111494 5.781357911132812 1.1040315 Q 5.801058911132812 1.0965690000000001 5.8225509111328115 1.0965690000000001 M 5.999850583007812 1.364025 Q 5.9944775830078125 1.356264 5.9950745830078125 1.3476075 Q 5.995671583007812 1.338951 6.005223583007813 1.332384 Q 6.011193583007812 1.328205 6.019253083007812 1.328802 Q 6.027312583007812 1.329399 6.0338795830078125 1.336563 Q 6.050595583007812 1.356264 6.0720875830078125 1.3679055 Q 6.093579583007812 1.379547 6.124623583007812 1.379547 Q 6.138951583007812 1.37895 6.153279583007812 1.374771 Q 6.167607583007812 1.370592 6.177458083007812 1.3601445 Q 6.1873085830078125 1.349697 6.1873085830078125 1.332384 Q 6.1873085830078125 1.315668 6.177159583007812 1.3058175 Q 6.167010583007812 1.295967 6.150891583007812 1.2896985 Q 6.134772583007813 1.28343 6.115668583007812 1.278654 Q 6.095967583007813 1.2732809999999999 6.076863583007812 1.2664155 Q 6.057759583007813 1.25955 6.042536083007812 1.2491025 Q 6.027312583007812 1.238655 6.018059083007812 1.2228345 Q 6.008805583007812 1.207014 6.008805583007812 1.184328 Q 6.008805583007812 1.157463 6.023432083007812 1.137762 Q 6.038058583007812 1.118061 6.062834083007813 1.107315 Q 6.087609583007812 1.0965690000000001 6.116862583007812 1.0965690000000001 Q 6.133578583007813 1.0965690000000001 6.151787083007812 1.1004494999999999 Q 6.169995583007812 1.10433 6.1873085830078125 1.1135835 Q 6.204621583007812 1.122837 6.217755583007812 1.1389559999999999 Q 6.223128583007812 1.1449259999999999 6.223725583007813 1.153881 Q 6.224322583007813 1.162836 6.215964583007812 1.17 Q 6.209397583007812 1.174776 6.201338083007812 1.174179 Q 6.193278583007812 1.173582 6.1879055830078125 1.168209 Q 6.175368583007812 1.153284 6.156563083007812 1.1452244999999999 Q 6.137757583007812 1.137165 6.115071583007812 1.137165 Q 6.100743583007812 1.137165 6.087012583007812 1.141344 Q 6.073281583007812 1.145523 6.064028083007813 1.1553735 Q 6.054774583007812 1.165224 6.054774583007812 1.182537 Q 6.055371583007812 1.198656 6.065520583007812 1.208805 Q 6.075669583007812 1.218954 6.092982583007812 1.2252225 Q 6.1102955830078125 1.2314910000000001 6.131190583007812 1.237461 Q 6.150294583007812 1.242237 6.1679060830078125 1.2485055 Q 6.185517583007813 1.254774 6.1998455830078125 1.264923 Q 6.214173583007812 1.275072 6.222531583007812 1.2908925 Q 6.230889583007812 1.306713 6.230889583007812 1.330593 Q 6.230889583007812 1.358055 6.215367583007812 1.3780545 Q 6.1998455830078125 1.398054 6.174473083007812 1.4085015 Q 6.1491005830078125 1.418949 6.119847583007812 1.418949 Q 6.087012583007812 1.418949 6.055073083007812 1.406412 Q 6.023133583007812 1.393875 5.999850583007812 1.364025 M 6.313872 1.412382 Q 6.301335 1.412382 6.2944695 1.405218 Q 6.287604 1.398054 6.287604 1.3855169999999999 L 6.287604 1.373577 Q 6.287604 1.360443 6.2944695 1.353279 Q 6.301335 1.346115 6.313872 1.346115 L 6.318648 1.346115 Q 6.331782 1.346115 6.338348999999999 1.353279 Q 6.344916 1.360443 6.344916 1.373577 L 6.344916 1.3855169999999999 Q 6.344916 1.398054 6.338348999999999 1.405218 Q 6.331782 1.412382 6.318648 1.412382 L 6.313872 1.412382 M 6.969380332031249 1.204029 Q 6.969380332031249 1.249998 6.954455332031249 1.2891015 Q 6.939530332031249 1.328205 6.912665332031249 1.357458 Q 6.885800332031249 1.386711 6.848786332031249 1.40283 Q 6.811772332031249 1.418949 6.7681913320312495 1.418949 Q 6.724013332031249 1.418949 6.687297832031249 1.40283 Q 6.65058233203125 1.386711 6.62371733203125 1.357458 Q 6.596852332031249 1.328205 6.581927332031249 1.2891015 Q 6.567002332031249 1.249998 6.567002332031249 1.204029 Q 6.567002332031249 1.157463 6.581927332031249 1.1183595 Q 6.596852332031249 1.079256 6.62371733203125 1.0503015 Q 6.65058233203125 1.021347 6.687297832031249 1.005228 Q 6.724013332031249 0.989109 6.7681913320312495 0.989109 Q 6.811772332031249 0.989109 6.848786332031249 1.005228 Q 6.885800332031249 1.021347 6.912665332031249 1.0503015 Q 6.939530332031249 1.079256 6.954455332031249 1.1183595 Q 6.969380332031249 1.157463 6.969380332031249 1.204029 M 6.918038332031249 1.204029 Q 6.918038332031249 1.155075 6.898635832031249 1.117464 Q 6.879233332031249 1.079853 6.845801332031249 1.058361 Q 6.812369332031249 1.036869 6.7681913320312495 1.036869 Q 6.724013332031249 1.036869 6.690282832031249 1.058361 Q 6.656552332031249 1.079853 6.63744833203125 1.117464 Q 6.618344332031249 1.155075 6.618344332031249 1.204029 Q 6.618344332031249 1.252386 6.63744833203125 1.2902955 Q 6.656552332031249 1.328205 6.690282832031249 1.349697 Q 6.724013332031249 1.371189 6.7681913320312495 1.371189 Q 6.812369332031249 1.371189 6.845801332031249 1.349697 Q 6.879233332031249 1.328205 6.898635832031249 1.2902955 Q 6.918038332031249 1.252386 6.918038332031249 1.204029 M 7.092348631347656 1.388502 Q 7.092348631347656 1.398651 7.085184631347656 1.405815 Q 7.0780206313476555 1.412979 7.067871631347656 1.412979 Q 7.057722631347656 1.412979 7.0511556313476556 1.405815 Q 7.044588631347656 1.398651 7.044588631347656 1.388502 L 7.044588631347656 0.995079 Q 7.044588631347656 0.98493 7.051454131347656 0.9780645 Q 7.058319631347656 0.9711989999999999 7.068468631347656 0.9711989999999999 Q 7.079214631347656 0.9711989999999999 7.085781631347656 0.9780645 Q 7.092348631347656 0.98493 7.092348631347656 0.995079 L 7.092348631347656 1.388502 M 7.429636432617187 0.9711989999999999 Q 7.440382432617187 0.9711989999999999 7.446949432617187 0.9780645 Q 7.453516432617187 0.98493 7.453516432617187 0.995079 L 7.453516432617187 1.388502 Q 7.453516432617187 1.398651 7.446650932617187 1.405815 Q 7.439785432617187 1.412979 7.429636432617187 1.412979 Q 7.419487432617187 1.412979 7.412621932617187 1.405815 Q 7.405756432617187 1.398651 7.405756432617187 1.388502 L 7.405756432617187 1.331787 L 7.417099432617187 1.327608 Q 7.417099432617187 1.341936 7.408442932617187 1.3577565 Q 7.399786432617187 1.373577 7.383965932617187 1.387308 Q 7.368145432617187 1.401039 7.347250432617187 1.409994 Q 7.326355432617187 1.418949 7.301878432617187 1.418949 Q 7.261282432617187 1.418949 7.2290444326171865 1.398054 Q 7.196806432617187 1.377159 7.178000932617187 1.340742 Q 7.159195432617187 1.304325 7.159195432617187 1.257759 Q 7.159195432617187 1.210596 7.178000932617187 1.174179 Q 7.196806432617187 1.137762 7.228745932617187 1.1171655 Q 7.260685432617187 1.0965690000000001 7.300684432617187 1.0965690000000001 Q 7.325758432617187 1.0965690000000001 7.347548932617187 1.104927 Q 7.369339432617187 1.1132849999999999 7.386055432617187 1.127613 Q 7.402771432617187 1.141941 7.412024932617187 1.159254 Q 7.421278432617187 1.176567 7.421278432617187 1.19388 L 7.405756432617187 1.190298 L 7.405756432617187 0.995079 Q 7.405756432617187 0.98493 7.412621932617187 0.9780645 Q 7.419487432617187 0.9711989999999999 7.429636432617187 0.9711989999999999 M 7.3066544326171865 1.374771 Q 7.337101432617187 1.374771 7.359787432617187 1.3595475 Q 7.382473432617187 1.344324 7.395607432617187 1.3177575 Q 7.4087414326171865 1.291191 7.4087414326171865 1.257759 Q 7.4087414326171865 1.22373 7.395607432617187 1.197462 Q 7.382473432617187 1.171194 7.359488932617187 1.1559705 Q 7.336504432617187 1.140747 7.3066544326171865 1.140747 Q 7.277401432617187 1.140747 7.254416932617187 1.1559705 Q 7.231432432617187 1.171194 7.218298432617187 1.197462 Q 7.205164432617187 1.22373 7.205164432617187 1.257759 Q 7.205164432617187 1.290594 7.218298432617187 1.3171605 Q 7.231432432617187 1.343727 7.254416932617187 1.359249 Q 7.277401432617187 1.374771 7.3066544326171865 1.374771 M 7.737708254882811 1.412979 Q 7.726962254882811 1.412979 7.720096754882811 1.405815 Q 7.713231254882811 1.398651 7.713231254882811 1.388502 L 7.713231254882811 1.018959 Q 7.713231254882811 1.00881 7.720096754882811 1.0019445 Q 7.726962254882811 0.995079 7.737111254882811 0.995079 L 7.946658254882811 0.995079 Q 7.956807254882811 0.995079 7.963971254882812 1.001646 Q 7.971135254882811 1.008213 7.971135254882811 1.018362 Q 7.971135254882811 1.027914 7.963971254882812 1.034481 Q 7.956807254882811 1.041048 7.946658254882811 1.041048 L 7.758603254882812 1.041048 L 7.762185254882811 1.0362719999999999 L 7.762185254882811 1.182537 L 7.759200254882812 1.17597 L 7.919793254882811 1.17597 Q 7.929942254882811 1.17597 7.937106254882812 1.1828355 Q 7.944270254882811 1.189701 7.944270254882811 1.19985 Q 7.944270254882811 1.208805 7.937106254882812 1.2156704999999999 Q 7.929942254882811 1.222536 7.919793254882811 1.222536 L 7.758006254882812 1.222536 L 7.762185254882811 1.217163 L 7.762185254882811 1.388502 Q 7.762185254882811 1.398651 7.755021254882811 1.405815 Q 7.7478572548828115 1.412979 7.737708254882811 1.412979 M 8.280968052246092 1.101345 Q 8.291714052246093 1.101345 8.298281052246093 1.1082105 Q 8.304848052246092 1.115076 8.304848052246092 1.125225 L 8.304848052246092 1.388502 Q 8.304848052246092 1.398651 8.297982552246092 1.405815 Q 8.291117052246092 1.412979 8.280968052246092 1.412979 Q 8.270819052246093 1.412979 8.263953552246093 1.405815 Q 8.257088052246093 1.398651 8.257088052246093 1.388502 L 8.257088052246093 1.331787 L 8.268431052246093 1.330593 Q 8.268431052246093 1.343727 8.259476052246093 1.359249 Q 8.250521052246093 1.374771 8.234999052246092 1.3882035 Q 8.219477052246093 1.4016359999999999 8.198582052246092 1.4102925 Q 8.177687052246092 1.418949 8.153210052246093 1.418949 Q 8.112614052246093 1.418949 8.080077552246092 1.3977555 Q 8.047541052246093 1.376562 8.029034052246093 1.340145 Q 8.010527052246092 1.303728 8.010527052246092 1.2571620000000001 Q 8.010527052246092 1.209999 8.029332552246093 1.1738805 Q 8.048138052246092 1.137762 8.080077552246092 1.1171655 Q 8.112017052246092 1.0965690000000001 8.152016052246092 1.0965690000000001 Q 8.177687052246092 1.0965690000000001 8.199776052246092 1.104927 Q 8.221865052246093 1.1132849999999999 8.238282552246092 1.127613 Q 8.254700052246093 1.141941 8.263655052246092 1.159254 Q 8.272610052246092 1.176567 8.272610052246092 1.19388 L 8.257088052246093 1.190298 L 8.257088052246093 1.125225 Q 8.257088052246093 1.115076 8.263953552246093 1.1082105 Q 8.270819052246093 1.101345 8.280968052246092 1.101345 M 8.157986052246093 1.374771 Q 8.187836052246093 1.374771 8.210820552246092 1.359249 Q 8.233805052246092 1.343727 8.246939052246093 1.3171605 Q 8.260073052246092 1.290594 8.260073052246092 1.2571620000000001 Q 8.260073052246092 1.224327 8.246939052246093 1.1977605 Q 8.233805052246092 1.171194 8.210820552246092 1.1559705 Q 8.187836052246093 1.140747 8.157986052246093 1.140747 Q 8.128733052246092 1.140747 8.105748552246093 1.155672 Q 8.082764052246093 1.1705969999999999 8.069630052246092 1.196865 Q 8.056496052246093 1.223133 8.056496052246093 1.2571620000000001 Q 8.056496052246093 1.290594 8.069630052246092 1.3171605 Q 8.082764052246093 1.343727 8.105748552246093 1.359249 Q 8.128733052246092 1.374771 8.157986052246093 1.374771 M 8.375299299316406 1.364025 Q 8.369926299316406 1.356264 8.370523299316405 1.3476075 Q 8.371120299316406 1.338951 8.380672299316405 1.332384 Q 8.386642299316405 1.328205 8.394701799316406 1.328802 Q 8.402761299316406 1.329399 8.409328299316405 1.336563 Q 8.426044299316406 1.356264 8.447536299316406 1.3679055 Q 8.469028299316406 1.379547 8.500072299316406 1.379547 Q 8.514400299316405 1.37895 8.528728299316406 1.374771 Q 8.543056299316406 1.370592 8.552906799316405 1.3601445 Q 8.562757299316406 1.349697 8.562757299316406 1.332384 Q 8.562757299316406 1.315668 8.552608299316406 1.3058175 Q 8.542459299316405 1.295967 8.526340299316406 1.2896985 Q 8.510221299316406 1.28343 8.491117299316405 1.278654 Q 8.471416299316406 1.2732809999999999 8.452312299316405 1.2664155 Q 8.433208299316405 1.25955 8.417984799316406 1.2491025 Q 8.402761299316406 1.238655 8.393507799316406 1.2228345 Q 8.384254299316405 1.207014 8.384254299316405 1.184328 Q 8.384254299316405 1.157463 8.398880799316405 1.137762 Q 8.413507299316406 1.118061 8.438282799316406 1.107315 Q 8.463058299316405 1.0965690000000001 8.492311299316405 1.0965690000000001 Q 8.509027299316406 1.0965690000000001 8.527235799316406 1.1004494999999999 Q 8.545444299316406 1.10433 8.562757299316406 1.1135835 Q 8.580070299316406 1.122837 8.593204299316406 1.1389559999999999 Q 8.598577299316405 1.1449259999999999 8.599174299316406 1.153881 Q 8.599771299316405 1.162836 8.591413299316406 1.17 Q 8.584846299316405 1.174776 8.576786799316405 1.174179 Q 8.568727299316405 1.173582 8.563354299316405 1.168209 Q 8.550817299316405 1.153284 8.532011799316406 1.1452244999999999 Q 8.513206299316405 1.137165 8.490520299316406 1.137165 Q 8.476192299316406 1.137165 8.462461299316406 1.141344 Q 8.448730299316406 1.145523 8.439476799316406 1.1553735 Q 8.430223299316406 1.165224 8.430223299316406 1.182537 Q 8.430820299316405 1.198656 8.440969299316405 1.208805 Q 8.451118299316406 1.218954 8.468431299316405 1.2252225 Q 8.485744299316405 1.2314910000000001 8.506639299316406 1.237461 Q 8.525743299316405 1.242237 8.543354799316406 1.2485055 Q 8.560966299316405 1.254774 8.575294299316406 1.264923 Q 8.589622299316405 1.275072 8.597980299316406 1.2908925 Q 8.606338299316405 1.306713 8.606338299316405 1.330593 Q 8.606338299316405 1.358055 8.590816299316405 1.3780545 Q 8.575294299316406 1.398054 8.549921799316406 1.4085015 Q 8.524549299316405 1.418949 8.495296299316406 1.418949 Q 8.462461299316406 1.418949 8.430521799316406 1.406412 Q 8.398582299316406 1.393875 8.375299299316406 1.364025 M 8.824242716308595 1.099554 Q 8.863644716308594 1.099554 8.886629216308593 1.1165685 Q 8.909613716308593 1.133583 8.919464216308594 1.1619405 Q 8.929314716308594 1.190298 8.929314716308594 1.224924 L 8.929314716308594 1.388502 Q 8.929314716308594 1.398651 8.922449216308594 1.405815 Q 8.915583716308594 1.412979 8.905434716308594 1.412979 Q 8.895285716308594 1.412979 8.888420216308594 1.405815 Q 8.881554716308594 1.398651 8.881554716308594 1.388502 L 8.881554716308594 1.224924 Q 8.881554716308594 1.202238 8.874987716308594 1.1840295 Q 8.868420716308593 1.165821 8.853197216308594 1.1547765 Q 8.837973716308595 1.143732 8.811705716308595 1.143732 Q 8.787228716308594 1.143732 8.766930716308593 1.1547765 Q 8.746632716308595 1.165821 8.734692716308594 1.1840295 Q 8.722752716308595 1.202238 8.722752716308595 1.224924 L 8.722752716308595 1.388502 Q 8.722752716308595 1.398651 8.715887216308595 1.405815 Q 8.709021716308595 1.412979 8.698872716308594 1.412979 Q 8.688723716308594 1.412979 8.681858216308594 1.405815 Q 8.674992716308594 1.398651 8.674992716308594 1.388502 L 8.674992716308594 0.995079 Q 8.674992716308594 0.98493 8.681858216308594 0.9780645 Q 8.688723716308594 0.9711989999999999 8.698872716308594 0.9711989999999999 Q 8.709618716308594 0.9711989999999999 8.716185716308594 0.9780645 Q 8.722752716308595 0.98493 8.722752716308595 0.995079 L 8.722752716308595 1.173582 L 8.710812716308594 1.186716 Q 8.713797716308594 1.171194 8.723946716308594 1.1553735 Q 8.734095716308595 1.139553 8.749617716308594 1.127016 Q 8.765139716308594 1.114479 8.784243716308593 1.1070165 Q 8.803347716308593 1.099554 8.824242716308595 1.099554 M 9.06302755810547 1.388502 Q 9.06302755810547 1.398651 9.05616205810547 1.405815 Q 9.04929655810547 1.412979 9.03914755810547 1.412979 Q 9.02840155810547 1.412979 9.02183455810547 1.405815 Q 9.015267558105469 1.398651 9.015267558105469 1.388502 L 9.015267558105469 1.123434 Q 9.015267558105469 1.1132849999999999 9.022133058105469 1.1064195 Q 9.028998558105469 1.099554 9.03914755810547 1.099554 Q 9.04929655810547 1.099554 9.05616205810547 1.1064195 Q 9.06302755810547 1.1132849999999999 9.06302755810547 1.123434 L 9.06302755810547 1.388502 M 9.03914755810547 1.059555 Q 9.02422255810547 1.059555 9.01705855810547 1.053585 Q 9.009894558105469 1.047615 9.009894558105469 1.035078 L 9.009894558105469 1.02672 Q 9.009894558105469 1.014183 9.017655558105469 1.008213 Q 9.02541655810547 1.002243 9.03974455810547 1.002243 Q 9.054072558105469 1.002243 9.061236558105469 1.008213 Q 9.06840055810547 1.014183 9.06840055810547 1.02672 L 9.06840055810547 1.035078 Q 9.06840055810547 1.047615 9.060938058105469 1.053585 Q 9.05347555810547 1.059555 9.03914755810547 1.059555 M 9.438545513671876 1.257759 Q 9.438545513671876 1.304325 9.418247513671876 1.340742 Q 9.397949513671875 1.377159 9.363025013671876 1.398054 Q 9.328100513671876 1.418949 9.283922513671875 1.418949 Q 9.240341513671876 1.418949 9.205417013671877 1.398054 Q 9.170492513671876 1.377159 9.149896013671876 1.340742 Q 9.129299513671876 1.304325 9.129299513671876 1.257759 Q 9.129299513671876 1.211193 9.149896013671876 1.174776 Q 9.170492513671876 1.138359 9.205417013671877 1.117464 Q 9.240341513671876 1.0965690000000001 9.283922513671875 1.0965690000000001 Q 9.328100513671876 1.0965690000000001 9.363025013671876 1.117464 Q 9.397949513671875 1.138359 9.418247513671876 1.174776 Q 9.438545513671876 1.211193 9.438545513671876 1.257759 M 9.390785513671876 1.257759 Q 9.390785513671876 1.223133 9.376756013671876 1.196865 Q 9.362726513671877 1.1705969999999999 9.338548013671875 1.155672 Q 9.314369513671876 1.140747 9.283922513671875 1.140747 Q 9.254072513671876 1.140747 9.229595513671876 1.155672 Q 9.205118513671875 1.1705969999999999 9.191089013671876 1.196865 Q 9.177059513671876 1.223133 9.177059513671876 1.257759 Q 9.177059513671876 1.291788 9.191089013671876 1.318056 Q 9.205118513671875 1.344324 9.229595513671876 1.3595475 Q 9.254072513671876 1.374771 9.283922513671875 1.374771 Q 9.314369513671876 1.374771 9.338548013671875 1.3595475 Q 9.362726513671877 1.344324 9.376756013671876 1.318056 Q 9.390785513671876 1.291788 9.390785513671876 1.257759 M 9.660623392089844 1.0965690000000001 Q 9.701219392089845 1.0965690000000001 9.724502392089844 1.1132849999999999 Q 9.747785392089845 1.130001 9.757635892089844 1.1580599999999999 Q 9.767486392089845 1.186119 9.767486392089845 1.220745 L 9.767486392089845 1.388502 Q 9.767486392089845 1.398651 9.760620892089845 1.405815 Q 9.753755392089845 1.412979 9.743606392089845 1.412979 Q 9.733457392089845 1.412979 9.726591892089845 1.405815 Q 9.719726392089845 1.398651 9.719726392089845 1.388502 L 9.719726392089845 1.2219389999999999 Q 9.719726392089845 1.199253 9.712860892089845 1.1810445 Q 9.705995392089845 1.162836 9.690174892089845 1.1517914999999999 Q 9.674354392089844 1.140747 9.646892392089844 1.140747 Q 9.621818392089844 1.140747 9.600923392089845 1.1517914999999999 Q 9.580028392089845 1.162836 9.567491392089845 1.1810445 Q 9.554954392089845 1.199253 9.554954392089845 1.2219389999999999 L 9.554954392089845 1.388502 Q 9.554954392089845 1.398651 9.548088892089845 1.405815 Q 9.541223392089845 1.412979 9.531074392089845 1.412979 Q 9.520925392089845 1.412979 9.514059892089845 1.405815 Q 9.507194392089845 1.398651 9.507194392089845 1.388502 L 9.507194392089845 1.12821 Q 9.507194392089845 1.118061 9.514059892089845 1.1111955 Q 9.520925392089845 1.10433 9.531074392089845 1.10433 Q 9.541820392089845 1.10433 9.548387392089845 1.1111955 Q 9.554954392089845 1.118061 9.554954392089845 1.12821 L 9.554954392089845 1.1705969999999999 L 9.543014392089844 1.1837309999999999 Q 9.545999392089845 1.168209 9.556745392089844 1.1523885 Q 9.567491392089845 1.136568 9.583610392089845 1.124031 Q 9.599729392089845 1.111494 9.619430392089845 1.1040315 Q 9.639131392089844 1.0965690000000001 9.660623392089844 1.0965690000000001 M 9.994934063964845 1.418949 Q 9.947174063964844 1.418949 9.911354063964845 1.398651 Q 9.875534063964846 1.378353 9.855833063964845 1.3428315 Q 9.836132063964845 1.30731 9.836132063964845 1.2607439999999999 Q 9.836132063964845 1.208805 9.856728563964845 1.1720895 Q 9.877325063964845 1.135374 9.910160063964845 1.1159715000000001 Q 9.942995063964846 1.0965690000000001 9.980009063964845 1.0965690000000001 Q 10.008068063964846 1.0965690000000001 10.033440563964845 1.1067179999999999 Q 10.058813063964845 1.116867 10.078812563964846 1.1362695 Q 10.098812063964845 1.155672 10.110752063964846 1.1828355 Q 10.122692063964845 1.209999 10.123289063964846 1.243431 Q 10.122692063964845 1.252983 10.115528063964845 1.25955 Q 10.108364063964846 1.266117 10.098812063964845 1.266117 L 9.862997063964846 1.266117 L 9.852251063964845 1.224924 L 10.082096063964846 1.224924 L 10.072544063964845 1.233282 L 10.072544063964845 1.220148 Q 10.070753063964846 1.195671 10.056723563964844 1.1780595 Q 10.042694063964845 1.160448 10.022396063964845 1.150896 Q 10.002098063964844 1.141344 9.980009063964845 1.141344 Q 9.962099063964844 1.141344 9.944487563964845 1.1476125 Q 9.926876063964846 1.153881 9.912846563964845 1.1679105 Q 9.898817063964845 1.18194 9.890459063964846 1.204029 Q 9.882101063964845 1.226118 9.882101063964845 1.2571620000000001 Q 9.882101063964845 1.291788 9.896130563964846 1.318056 Q 9.910160063964845 1.344324 9.935234063964845 1.3595475 Q 9.960308063964845 1.374771 9.993143063964846 1.374771 Q 10.014635063964844 1.374771 10.030157063964845 1.369398 Q 10.045679063964846 1.364025 10.056723563964844 1.3559655 Q 10.067768063964845 1.347906 10.075529063964845 1.339548 Q 10.083290063964846 1.3341749999999999 10.091051063964844 1.3341749999999999 Q 10.099409063964846 1.3341749999999999 10.105379063964845 1.340145 Q 10.111349063964845 1.346115 10.111349063964845 1.354473 Q 10.111349063964845 1.364622 10.101797063964845 1.372383 Q 10.084484063964846 1.39089 10.056126563964845 1.4049194999999999 Q 10.027769063964845 1.418949 9.994934063964845 1.418949 M 10.442699513671876 0.9711989999999999 Q 10.453445513671875 0.9711989999999999 10.460012513671876 0.9780645 Q 10.466579513671876 0.98493 10.466579513671876 0.995079 L 10.466579513671876 1.388502 Q 10.466579513671876 1.398651 10.459714013671876 1.405815 Q 10.452848513671876 1.412979 10.442699513671876 1.412979 Q 10.432550513671876 1.412979 10.425685013671876 1.405815 Q 10.418819513671876 1.398651 10.418819513671876 1.388502 L 10.418819513671876 1.331787 L 10.430162513671876 1.327608 Q 10.430162513671876 1.341936 10.421506013671875 1.3577565 Q 10.412849513671876 1.373577 10.397029013671876 1.387308 Q 10.381208513671876 1.401039 10.360313513671876 1.409994 Q 10.339418513671875 1.418949 10.314941513671876 1.418949 Q 10.274345513671875 1.418949 10.242107513671876 1.398054 Q 10.209869513671876 1.377159 10.191064013671875 1.340742 Q 10.172258513671876 1.304325 10.172258513671876 1.257759 Q 10.172258513671876 1.210596 10.191064013671875 1.174179 Q 10.209869513671876 1.137762 10.241809013671876 1.1171655 Q 10.273748513671876 1.0965690000000001 10.313747513671876 1.0965690000000001 Q 10.338821513671876 1.0965690000000001 10.360612013671876 1.104927 Q 10.382402513671876 1.1132849999999999 10.399118513671876 1.127613 Q 10.415834513671875 1.141941 10.425088013671877 1.159254 Q 10.434341513671876 1.176567 10.434341513671876 1.19388 L 10.418819513671876 1.190298 L 10.418819513671876 0.995079 Q 10.418819513671876 0.98493 10.425685013671876 0.9780645 Q 10.432550513671876 0.9711989999999999 10.442699513671876 0.9711989999999999 M 10.319717513671876 1.374771 Q 10.350164513671876 1.374771 10.372850513671876 1.3595475 Q 10.395536513671876 1.344324 10.408670513671876 1.3177575 Q 10.421804513671876 1.291191 10.421804513671876 1.257759 Q 10.421804513671876 1.22373 10.408670513671876 1.197462 Q 10.395536513671876 1.171194 10.372552013671877 1.1559705 Q 10.349567513671875 1.140747 10.319717513671876 1.140747 Q 10.290464513671877 1.140747 10.267480013671875 1.1559705 Q 10.244495513671875 1.171194 10.231361513671876 1.197462 Q 10.218227513671875 1.22373 10.218227513671875 1.257759 Q 10.218227513671875 1.290594 10.231361513671876 1.3171605 Q 10.244495513671875 1.343727 10.267480013671875 1.359249 Q 10.290464513671877 1.374771 10.319717513671876 1.374771 M 11.029570335937501 0.994482 Q 11.039719335937502 0.994482 11.046883335937501 1.0007505 Q 11.0540473359375 1.007019 11.0540473359375 1.017168 Q 11.0540473359375 1.021944 11.0516593359375 1.027914 L 10.895842335937502 1.397457 Q 10.892260335937502 1.405218 10.885991835937501 1.4090985 Q 10.879723335937502 1.412979 10.8725593359375 1.412979 Q 10.8659923359375 1.412382 10.8600223359375 1.4085015 Q 10.854052335937501 1.404621 10.8510673359375 1.397457 L 10.6958473359375 1.028511 Q 10.6946533359375 1.0261230000000001 10.694056335937502 1.0234364999999999 Q 10.6934593359375 1.02075 10.6934593359375 1.017765 Q 10.6934593359375 1.006422 10.7015188359375 1.0001535 Q 10.7095783359375 0.993885 10.7173393359375 0.993885 Q 10.7334583359375 0.993885 10.740622335937502 1.0106009999999999 L 10.883305335937502 1.350891 L 10.869574335937502 1.350891 L 11.007481335937502 1.009407 Q 11.014645335937502 0.994482 11.029570335937501 0.994482 M 11.360311833984376 1.101345 Q 11.371057833984375 1.101345 11.377624833984376 1.1082105 Q 11.384191833984376 1.115076 11.384191833984376 1.125225 L 11.384191833984376 1.388502 Q 11.384191833984376 1.398651 11.377326333984376 1.405815 Q 11.370460833984376 1.412979 11.360311833984376 1.412979 Q 11.350162833984376 1.412979 11.343297333984376 1.405815 Q 11.336431833984376 1.398651 11.336431833984376 1.388502 L 11.336431833984376 1.331787 L 11.347774833984376 1.330593 Q 11.347774833984376 1.343727 11.338819833984376 1.359249 Q 11.329864833984375 1.374771 11.314342833984377 1.3882035 Q 11.298820833984376 1.4016359999999999 11.277925833984376 1.4102925 Q 11.257030833984375 1.418949 11.232553833984376 1.418949 Q 11.191957833984375 1.418949 11.159421333984376 1.3977555 Q 11.126884833984375 1.376562 11.108377833984376 1.340145 Q 11.089870833984376 1.303728 11.089870833984376 1.2571620000000001 Q 11.089870833984376 1.209999 11.108676333984375 1.1738805 Q 11.127481833984376 1.137762 11.159421333984376 1.1171655 Q 11.191360833984376 1.0965690000000001 11.231359833984376 1.0965690000000001 Q 11.257030833984375 1.0965690000000001 11.279119833984376 1.104927 Q 11.301208833984376 1.1132849999999999 11.317626333984377 1.127613 Q 11.334043833984376 1.141941 11.342998833984376 1.159254 Q 11.351953833984377 1.176567 11.351953833984377 1.19388 L 11.336431833984376 1.190298 L 11.336431833984376 1.125225 Q 11.336431833984376 1.115076 11.343297333984376 1.1082105 Q 11.350162833984376 1.101345 11.360311833984376 1.101345 M 11.237329833984376 1.374771 Q 11.267179833984375 1.374771 11.290164333984377 1.359249 Q 11.313148833984377 1.343727 11.326282833984376 1.3171605 Q 11.339416833984377 1.290594 11.339416833984377 1.2571620000000001 Q 11.339416833984377 1.224327 11.326282833984376 1.1977605 Q 11.313148833984377 1.171194 11.290164333984377 1.1559705 Q 11.267179833984375 1.140747 11.237329833984376 1.140747 Q 11.208076833984377 1.140747 11.185092333984375 1.155672 Q 11.162107833984376 1.1705969999999999 11.148973833984376 1.196865 Q 11.135839833984376 1.223133 11.135839833984376 1.2571620000000001 Q 11.135839833984376 1.290594 11.148973833984376 1.3171605 Q 11.162107833984376 1.343727 11.185092333984375 1.359249 Q 11.208076833984377 1.374771 11.237329833984376 1.374771 M 11.524492081054689 1.388502 Q 11.524492081054689 1.398651 11.517328081054687 1.405815 Q 11.510164081054688 1.412979 11.500015081054688 1.412979 Q 11.489866081054688 1.412979 11.483299081054689 1.405815 Q 11.476732081054688 1.398651 11.476732081054688 1.388502 L 11.476732081054688 0.995079 Q 11.476732081054688 0.98493 11.483597581054688 0.9780645 Q 11.490463081054688 0.9711989999999999 11.500612081054689 0.9711989999999999 Q 11.511358081054688 0.9711989999999999 11.517925081054688 0.9780645 Q 11.524492081054689 0.98493 11.524492081054689 0.995079 L 11.524492081054689 1.388502 M 11.844469797363281 1.10433 Q 11.855215797363282 1.10433 11.861782797363281 1.1111955 Q 11.868349797363281 1.118061 11.868349797363281 1.12821 L 11.868349797363281 1.291191 Q 11.868349797363281 1.351488 11.834619297363282 1.3846215 Q 11.800888797363282 1.4177549999999999 11.740591797363281 1.4177549999999999 Q 11.680891797363282 1.4177549999999999 11.647161297363281 1.3846215 Q 11.613430797363282 1.351488 11.613430797363282 1.291191 L 11.613430797363282 1.12821 Q 11.613430797363282 1.118061 11.620296297363282 1.1111955 Q 11.627161797363282 1.10433 11.637310797363282 1.10433 Q 11.648056797363282 1.10433 11.654623797363282 1.1111955 Q 11.661190797363282 1.118061 11.661190797363282 1.12821 L 11.661190797363282 1.291191 Q 11.661190797363282 1.331787 11.682085797363282 1.352682 Q 11.702980797363281 1.373577 11.740591797363281 1.373577 Q 11.779396797363281 1.373577 11.799993297363281 1.352682 Q 11.820589797363281 1.331787 11.820589797363281 1.291191 L 11.820589797363281 1.12821 Q 11.820589797363281 1.118061 11.827455297363281 1.1111955 Q 11.834320797363281 1.10433 11.844469797363281 1.10433 M 12.095814084960937 1.418949 Q 12.048054084960937 1.418949 12.012234084960937 1.398651 Q 11.976414084960938 1.378353 11.956713084960937 1.3428315 Q 11.937012084960937 1.30731 11.937012084960937 1.2607439999999999 Q 11.937012084960937 1.208805 11.957608584960937 1.1720895 Q 11.978205084960937 1.135374 12.011040084960937 1.1159715000000001 Q 12.043875084960938 1.0965690000000001 12.080889084960937 1.0965690000000001 Q 12.108948084960938 1.0965690000000001 12.134320584960937 1.1067179999999999 Q 12.159693084960937 1.116867 12.179692584960938 1.1362695 Q 12.199692084960937 1.155672 12.211632084960938 1.1828355 Q 12.223572084960937 1.209999 12.224169084960938 1.243431 Q 12.223572084960937 1.252983 12.216408084960937 1.25955 Q 12.209244084960938 1.266117 12.199692084960937 1.266117 L 11.963877084960938 1.266117 L 11.953131084960937 1.224924 L 12.182976084960938 1.224924 L 12.173424084960937 1.233282 L 12.173424084960937 1.220148 Q 12.171633084960938 1.195671 12.157603584960937 1.1780595 Q 12.143574084960937 1.160448 12.123276084960937 1.150896 Q 12.102978084960936 1.141344 12.080889084960937 1.141344 Q 12.062979084960936 1.141344 12.045367584960937 1.1476125 Q 12.027756084960938 1.153881 12.013726584960937 1.1679105 Q 11.999697084960937 1.18194 11.991339084960938 1.204029 Q 11.982981084960937 1.226118 11.982981084960937 1.2571620000000001 Q 11.982981084960937 1.291788 11.997010584960938 1.318056 Q 12.011040084960937 1.344324 12.036114084960937 1.3595475 Q 12.061188084960937 1.374771 12.094023084960938 1.374771 Q 12.115515084960936 1.374771 12.131037084960937 1.369398 Q 12.146559084960938 1.364025 12.157603584960937 1.3559655 Q 12.168648084960937 1.347906 12.176409084960937 1.339548 Q 12.184170084960938 1.3341749999999999 12.191931084960936 1.3341749999999999 Q 12.200289084960938 1.3341749999999999 12.206259084960937 1.340145 Q 12.212229084960937 1.346115 12.212229084960937 1.354473 Q 12.212229084960937 1.364622 12.202677084960937 1.372383 Q 12.185364084960938 1.39089 12.157006584960937 1.4049194999999999 Q 12.128649084960937 1.418949 12.095814084960937 1.418949 M 12.274929534667969 1.364025 Q 12.269556534667968 1.356264 12.270153534667967 1.3476075 Q 12.270750534667968 1.338951 12.280302534667968 1.332384 Q 12.286272534667967 1.328205 12.294332034667969 1.328802 Q 12.302391534667969 1.329399 12.308958534667967 1.336563 Q 12.325674534667968 1.356264 12.347166534667968 1.3679055 Q 12.368658534667968 1.379547 12.399702534667968 1.379547 Q 12.414030534667967 1.37895 12.428358534667968 1.374771 Q 12.442686534667969 1.370592 12.452537034667968 1.3601445 Q 12.462387534667968 1.349697 12.462387534667968 1.332384 Q 12.462387534667968 1.315668 12.452238534667968 1.3058175 Q 12.442089534667968 1.295967 12.425970534667968 1.2896985 Q 12.409851534667968 1.28343 12.390747534667968 1.278654 Q 12.371046534667968 1.2732809999999999 12.351942534667968 1.2664155 Q 12.332838534667967 1.25955 12.317615034667968 1.2491025 Q 12.302391534667969 1.238655 12.293138034667969 1.2228345 Q 12.283884534667967 1.207014 12.283884534667967 1.184328 Q 12.283884534667967 1.157463 12.298511034667968 1.137762 Q 12.313137534667968 1.118061 12.337913034667968 1.107315 Q 12.362688534667967 1.0965690000000001 12.391941534667968 1.0965690000000001 Q 12.408657534667968 1.0965690000000001 12.426866034667968 1.1004494999999999 Q 12.445074534667969 1.10433 12.462387534667968 1.1135835 Q 12.479700534667968 1.122837 12.492834534667969 1.1389559999999999 Q 12.498207534667968 1.1449259999999999 12.498804534667968 1.153881 Q 12.499401534667967 1.162836 12.491043534667968 1.17 Q 12.484476534667968 1.174776 12.476417034667968 1.174179 Q 12.468357534667968 1.173582 12.462984534667967 1.168209 Q 12.450447534667967 1.153284 12.431642034667968 1.1452244999999999 Q 12.412836534667967 1.137165 12.390150534667969 1.137165 Q 12.375822534667968 1.137165 12.362091534667968 1.141344 Q 12.348360534667968 1.145523 12.339107034667968 1.1553735 Q 12.329853534667969 1.165224 12.329853534667969 1.182537 Q 12.330450534667968 1.198656 12.340599534667968 1.208805 Q 12.350748534667968 1.218954 12.368061534667968 1.2252225 Q 12.385374534667967 1.2314910000000001 12.406269534667969 1.237461 Q 12.425373534667967 1.242237 12.442985034667968 1.2485055 Q 12.460596534667967 1.254774 12.474924534667968 1.264923 Q 12.489252534667967 1.275072 12.497610534667968 1.2908925 Q 12.505968534667968 1.306713 12.505968534667968 1.330593 Q 12.505968534667968 1.358055 12.490446534667967 1.3780545 Q 12.474924534667968 1.398054 12.449552034667969 1.4085015 Q 12.424179534667967 1.418949 12.394926534667968 1.418949 Q 12.362091534667968 1.418949 12.330152034667968 1.406412 Q 12.298212534667968 1.393875 12.274929534667969 1.364025 M 12.588950951660156 1.412382 Q 12.576413951660156 1.412382 12.569548451660156 1.405218 Q 12.562682951660156 1.398054 12.562682951660156 1.3855169999999999 L 12.562682951660156 1.373577 Q 12.562682951660156 1.360443 12.569548451660156 1.353279 Q 12.576413951660156 1.346115 12.588950951660156 1.346115 L 12.593726951660155 1.346115 Q 12.606860951660156 1.346115 12.613427951660157 1.353279 Q 12.619994951660155 1.360443 12.619994951660155 1.373577 L 12.619994951660155 1.3855169999999999 Q 12.619994951660155 1.398054 12.613427951660157 1.405218 Q 12.606860951660156 1.412382 12.593726951660155 1.412382 L 12.588950951660156 1.412382" fill="#0a2472" fill-rule="nonzero"></path></g></g><defs><clipPath id="SvgjsClipPath136823"><path d=" M 3.9867703882282175 -2.7756590783576915 h 4.678679932039659 v 2.5256590783576915 h -4.678679932039659 Z"></path></clipPath><clipPath id="SvgjsClipPath136818108516cb-64eb-40bc-b220-bf66266503ac"><path d=" M 3.9867703882282175 -2.7756590783576915 L 8.665450320267876 -2.7756590783576915 L 8.665450320267876 -0.25 L 3.9867703882282175 -0.25 Z"></path></clipPath></defs></svg>