<svg xmlns="http://www.w3.org/2000/svg" xmlns:xlink="http://www.w3.org/1999/xlink" width="300" zoomAndPan="magnify" viewBox="0 0 224.87999 94.499997" height="126" preserveAspectRatio="xMidYMid meet" version="1.2"><defs><clipPath id="96137ebea3"><path d="M 0.53125 0 L 224.226562 0 L 224.226562 94.003906 L 0.53125 94.003906 Z M 0.53125 0 "/></clipPath><clipPath id="1c25e1aa0a"><path d="M 17.183594 1.375 L 207.429688 1.375 L 207.429688 93.882812 L 17.183594 93.882812 Z M 17.183594 1.375 "/></clipPath><clipPath id="44846e4e8c"><path d="M 83.988281 20.800781 L 128 20.800781 L 128 42 L 83.988281 42 Z M 83.988281 20.800781 "/></clipPath><clipPath id="52548023e2"><path d="M 97 30 L 140.894531 30 L 140.894531 51.523438 L 97 51.523438 Z M 97 30 "/></clipPath></defs><g id="b77c02309e"><g clip-rule="nonzero" clip-path="url(#96137ebea3)"><path style=" stroke:none;fill-rule:nonzero;fill:#ffffff;fill-opacity:1;" d="M 0.53125 0 L 224.347656 0 L 224.347656 94.003906 L 0.53125 94.003906 Z M 0.53125 0 "/><path style=" stroke:none;fill-rule:nonzero;fill:#f0f4ff;fill-opacity:1;" d="M 0.53125 0 L 224.347656 0 L 224.347656 94.003906 L 0.53125 94.003906 Z M 0.53125 0 "/></g><g clip-rule="nonzero" clip-path="url(#1c25e1aa0a)"><path style=" stroke:none;fill-rule:nonzero;fill:#f0f4ff;fill-opacity:1;" d="M 14.867188 -50.574219 L 210.015625 -50.574219 L 210.015625 144.570312 L 14.867188 144.570312 Z M 14.867188 -50.574219 "/></g><g clip-rule="nonzero" clip-path="url(#44846e4e8c)"><path style=" stroke:none;fill-rule:nonzero;fill:#8b22af;fill-opacity:1;" d="M 106.34375 20.800781 L 127.800781 20.800781 L 105.449219 41.449219 L 83.988281 41.449219 Z M 106.34375 20.800781 "/></g><g clip-rule="nonzero" clip-path="url(#52548023e2)"><path style=" stroke:none;fill-rule:nonzero;fill:#8b22af;fill-opacity:1;" d="M 119.4375 30.875 L 140.894531 30.875 L 118.542969 51.523438 L 97.082031 51.523438 Z M 119.4375 30.875 "/></g><path style=" stroke:none;fill-rule:nonzero;fill:#0900b2;fill-opacity:1;" d="M 93.0625 54.6875 C 93.203125 54.6875 93.316406 54.730469 93.398438 54.816406 C 93.480469 54.902344 93.523438 55.015625 93.523438 55.144531 L 93.523438 62.851562 C 93.523438 63.007812 93.472656 63.132812 93.375 63.230469 C 93.273438 63.324219 93.15625 63.371094 93.015625 63.371094 C 92.941406 63.371094 92.867188 63.355469 92.789062 63.328125 C 92.714844 63.300781 92.660156 63.261719 92.617188 63.210938 L 87.308594 56.1875 L 87.554688 56.039062 L 87.554688 62.914062 C 87.554688 63.042969 87.511719 63.15625 87.425781 63.242188 C 87.339844 63.328125 87.222656 63.371094 87.082031 63.371094 C 86.953125 63.371094 86.84375 63.328125 86.761719 63.242188 C 86.679688 63.15625 86.636719 63.042969 86.636719 62.914062 L 86.636719 55.183594 C 86.636719 55.035156 86.683594 54.914062 86.78125 54.824219 C 86.875 54.734375 86.988281 54.6875 87.121094 54.6875 C 87.195312 54.6875 87.273438 54.703125 87.351562 54.730469 C 87.429688 54.757812 87.488281 54.804688 87.53125 54.859375 L 92.765625 61.785156 L 92.605469 61.980469 L 92.605469 55.144531 C 92.605469 55.015625 92.648438 54.902344 92.734375 54.816406 C 92.820312 54.730469 92.929688 54.6875 93.0625 54.6875 M 98.695312 55.976562 L 95.78125 63.074219 C 95.746094 63.171875 95.691406 63.25 95.605469 63.308594 C 95.523438 63.367188 95.4375 63.394531 95.347656 63.394531 C 95.1875 63.394531 95.074219 63.355469 95 63.273438 C 94.925781 63.191406 94.886719 63.089844 94.886719 62.972656 C 94.878906 62.917969 94.886719 62.855469 94.910156 62.789062 L 98.125 54.972656 C 98.167969 54.855469 98.230469 54.773438 98.316406 54.71875 C 98.40625 54.664062 98.5 54.640625 98.609375 54.648438 C 98.714844 54.648438 98.8125 54.679688 98.902344 54.738281 C 98.988281 54.792969 99.046875 54.875 99.082031 54.972656 L 102.28125 62.714844 C 102.304688 62.78125 102.320312 62.847656 102.320312 62.914062 C 102.320312 63.0625 102.269531 63.179688 102.167969 63.265625 C 102.070312 63.351562 101.957031 63.394531 101.835938 63.394531 C 101.734375 63.394531 101.644531 63.367188 101.5625 63.308594 C 101.480469 63.25 101.417969 63.167969 101.375 63.0625 L 98.421875 55.964844 L 98.695312 55.976562 M 96.402344 61.050781 L 96.824219 60.082031 L 100.507812 60.082031 L 100.695312 61.050781 L 96.402344 61.050781 M 104.191406 54.675781 C 104.265625 54.675781 104.347656 54.695312 104.433594 54.738281 C 104.519531 54.777344 104.589844 54.832031 104.636719 54.898438 L 107.925781 59.871094 L 107.492188 59.859375 L 110.816406 54.898438 C 110.925781 54.742188 111.066406 54.667969 111.238281 54.675781 C 111.371094 54.683594 111.488281 54.734375 111.585938 54.824219 C 111.683594 54.914062 111.734375 55.035156 111.734375 55.183594 L 111.734375 62.863281 C 111.734375 63.003906 111.683594 63.125 111.585938 63.222656 C 111.488281 63.320312 111.363281 63.371094 111.214844 63.371094 C 111.066406 63.371094 110.941406 63.320312 110.839844 63.222656 C 110.742188 63.125 110.691406 63.003906 110.691406 62.863281 L 110.691406 56.125 L 111.003906 56.1875 L 108.074219 60.640625 C 108.027344 60.699219 107.964844 60.75 107.894531 60.789062 C 107.824219 60.832031 107.753906 60.851562 107.679688 60.851562 C 107.605469 60.851562 107.527344 60.832031 107.453125 60.789062 C 107.378906 60.75 107.316406 60.699219 107.269531 60.640625 L 104.378906 56.1875 L 104.636719 55.867188 L 104.636719 62.863281 C 104.636719 63.003906 104.59375 63.125 104.503906 63.222656 C 104.410156 63.320312 104.296875 63.371094 104.15625 63.371094 C 104.015625 63.371094 103.898438 63.320312 103.8125 63.222656 C 103.726562 63.125 103.683594 63.003906 103.683594 62.863281 L 103.683594 55.183594 C 103.683594 55.050781 103.730469 54.933594 103.824219 54.828125 C 103.921875 54.726562 104.042969 54.675781 104.191406 54.675781 M 116.910156 55.976562 L 113.992188 63.074219 C 113.960938 63.171875 113.902344 63.25 113.820312 63.308594 C 113.734375 63.367188 113.648438 63.394531 113.558594 63.394531 C 113.402344 63.394531 113.285156 63.355469 113.210938 63.273438 C 113.136719 63.191406 113.097656 63.089844 113.097656 62.972656 C 113.089844 62.917969 113.097656 62.855469 113.125 62.789062 L 116.335938 54.972656 C 116.378906 54.855469 116.441406 54.773438 116.53125 54.71875 C 116.617188 54.664062 116.714844 54.640625 116.820312 54.648438 C 116.929688 54.648438 117.027344 54.679688 117.113281 54.738281 C 117.199219 54.792969 117.257812 54.875 117.292969 54.972656 L 120.492188 62.714844 C 120.519531 62.78125 120.53125 62.847656 120.53125 62.914062 C 120.53125 63.0625 120.480469 63.179688 120.382812 63.265625 C 120.28125 63.351562 120.171875 63.394531 120.046875 63.394531 C 119.949219 63.394531 119.855469 63.367188 119.773438 63.308594 C 119.691406 63.25 119.628906 63.167969 119.589844 63.0625 L 116.636719 55.964844 L 116.910156 55.976562 M 114.613281 61.050781 L 115.035156 60.082031 L 118.71875 60.082031 L 118.90625 61.050781 L 114.613281 61.050781 M 128.320312 54.6875 C 128.460938 54.6875 128.574219 54.730469 128.65625 54.816406 C 128.738281 54.902344 128.78125 55.015625 128.78125 55.144531 L 128.78125 62.851562 C 128.78125 63.007812 128.730469 63.132812 128.632812 63.230469 C 128.53125 63.324219 128.414062 63.371094 128.273438 63.371094 C 128.199219 63.371094 128.125 63.355469 128.050781 63.328125 C 127.972656 63.300781 127.917969 63.261719 127.875 63.210938 L 122.566406 56.1875 L 122.8125 56.039062 L 122.8125 62.914062 C 122.8125 63.042969 122.769531 63.15625 122.683594 63.242188 C 122.597656 63.328125 122.484375 63.371094 122.34375 63.371094 C 122.210938 63.371094 122.101562 63.328125 122.019531 63.242188 C 121.9375 63.15625 121.894531 63.042969 121.894531 62.914062 L 121.894531 55.183594 C 121.894531 55.035156 121.941406 54.914062 122.039062 54.824219 C 122.132812 54.734375 122.246094 54.6875 122.378906 54.6875 C 122.453125 54.6875 122.53125 54.703125 122.609375 54.730469 C 122.6875 54.757812 122.746094 54.804688 122.789062 54.859375 L 128.023438 61.785156 L 127.863281 61.980469 L 127.863281 55.144531 C 127.863281 55.015625 127.90625 54.902344 127.992188 54.816406 C 128.078125 54.730469 128.191406 54.6875 128.320312 54.6875 M 138.78125 59.027344 C 138.78125 59.667969 138.675781 60.253906 138.46875 60.796875 C 138.261719 61.339844 137.972656 61.8125 137.601562 62.21875 C 137.230469 62.621094 136.789062 62.9375 136.273438 63.160156 C 135.761719 63.382812 135.203125 63.496094 134.597656 63.496094 C 133.988281 63.496094 133.425781 63.382812 132.917969 63.160156 C 132.410156 62.9375 131.96875 62.621094 131.597656 62.21875 C 131.226562 61.8125 130.933594 61.339844 130.730469 60.796875 C 130.523438 60.253906 130.417969 59.667969 130.417969 59.027344 C 130.417969 58.382812 130.523438 57.789062 130.730469 57.25 C 130.933594 56.707031 131.226562 56.234375 131.597656 55.835938 C 131.96875 55.433594 132.410156 55.121094 132.917969 54.898438 C 133.425781 54.675781 133.988281 54.5625 134.597656 54.5625 C 135.203125 54.5625 135.761719 54.675781 136.273438 54.898438 C 136.789062 55.121094 137.230469 55.433594 137.601562 55.835938 C 137.972656 56.234375 138.261719 56.707031 138.46875 57.25 C 138.675781 57.789062 138.78125 58.382812 138.78125 59.027344 M 137.714844 59.027344 C 137.714844 58.351562 137.578125 57.75 137.308594 57.230469 C 137.042969 56.710938 136.675781 56.300781 136.210938 56.003906 C 135.75 55.703125 135.210938 55.554688 134.597656 55.554688 C 133.988281 55.554688 133.449219 55.703125 132.980469 56.003906 C 132.511719 56.300781 132.148438 56.710938 131.882812 57.230469 C 131.617188 57.75 131.484375 58.351562 131.484375 59.027344 C 131.484375 59.699219 131.617188 60.296875 131.882812 60.820312 C 132.148438 61.347656 132.511719 61.757812 132.980469 62.054688 C 133.449219 62.355469 133.988281 62.503906 134.597656 62.503906 C 135.210938 62.503906 135.75 62.355469 136.210938 62.054688 C 136.675781 61.757812 137.042969 61.347656 137.308594 60.820312 C 137.578125 60.296875 137.714844 59.699219 137.714844 59.027344 "/><path style=" stroke:none;fill-rule:nonzero;fill:#0900b2;fill-opacity:1;" d="M 39.792969 67 C 39.878906 67.042969 39.925781 67.109375 39.9375 67.195312 C 39.949219 67.285156 39.925781 67.363281 39.867188 67.4375 C 39.824219 67.5 39.769531 67.53125 39.699219 67.539062 C 39.632812 67.542969 39.566406 67.527344 39.496094 67.492188 C 39.335938 67.398438 39.164062 67.320312 38.980469 67.265625 C 38.796875 67.210938 38.605469 67.183594 38.402344 67.183594 C 38.113281 67.183594 37.855469 67.230469 37.617188 67.332031 C 37.378906 67.429688 37.171875 67.570312 37 67.75 C 36.824219 67.925781 36.6875 68.140625 36.59375 68.386719 C 36.496094 68.632812 36.445312 68.90625 36.445312 69.207031 C 36.445312 69.527344 36.5 69.8125 36.601562 70.066406 C 36.703125 70.316406 36.839844 70.53125 37.015625 70.707031 C 37.195312 70.882812 37.398438 71.019531 37.632812 71.109375 C 37.871094 71.203125 38.125 71.25 38.402344 71.25 C 38.597656 71.25 38.789062 71.222656 38.972656 71.167969 C 39.15625 71.113281 39.332031 71.039062 39.496094 70.9375 C 39.566406 70.902344 39.632812 70.890625 39.699219 70.898438 C 39.769531 70.910156 39.828125 70.941406 39.875 71 C 39.933594 71.078125 39.953125 71.160156 39.941406 71.246094 C 39.925781 71.328125 39.878906 71.390625 39.800781 71.429688 C 39.679688 71.503906 39.542969 71.570312 39.386719 71.628906 C 39.234375 71.691406 39.070312 71.738281 38.90625 71.769531 C 38.738281 71.804688 38.570312 71.820312 38.402344 71.820312 C 38.050781 71.820312 37.722656 71.761719 37.414062 71.640625 C 37.101562 71.519531 36.828125 71.34375 36.59375 71.117188 C 36.355469 70.890625 36.167969 70.617188 36.03125 70.292969 C 35.890625 69.972656 35.824219 69.609375 35.824219 69.207031 C 35.824219 68.832031 35.886719 68.484375 36.019531 68.167969 C 36.148438 67.855469 36.332031 67.582031 36.566406 67.347656 C 36.800781 67.117188 37.074219 66.933594 37.386719 66.804688 C 37.699219 66.671875 38.039062 66.609375 38.402344 66.609375 C 38.652344 66.609375 38.898438 66.640625 39.136719 66.710938 C 39.378906 66.777344 39.597656 66.875 39.792969 67 M 43.519531 67.996094 C 43.605469 67.996094 43.675781 68.023438 43.730469 68.078125 C 43.785156 68.132812 43.808594 68.203125 43.808594 68.285156 L 43.808594 70.269531 C 43.808594 70.757812 43.671875 71.136719 43.398438 71.40625 C 43.125 71.671875 42.746094 71.808594 42.257812 71.808594 C 41.773438 71.808594 41.394531 71.671875 41.121094 71.40625 C 40.847656 71.136719 40.710938 70.757812 40.710938 70.269531 L 40.710938 68.285156 C 40.710938 68.203125 40.738281 68.132812 40.792969 68.078125 C 40.847656 68.023438 40.917969 67.996094 41 67.996094 C 41.085938 67.996094 41.15625 68.023438 41.210938 68.078125 C 41.265625 68.132812 41.289062 68.203125 41.289062 68.285156 L 41.289062 70.269531 C 41.289062 70.597656 41.375 70.847656 41.546875 71.015625 C 41.714844 71.183594 41.953125 71.269531 42.257812 71.269531 C 42.570312 71.269531 42.8125 71.183594 42.980469 71.015625 C 43.144531 70.847656 43.230469 70.597656 43.230469 70.269531 L 43.230469 68.285156 C 43.230469 68.203125 43.257812 68.132812 43.3125 68.078125 C 43.367188 68.023438 43.4375 67.996094 43.519531 67.996094 M 44.734375 68.015625 L 46.4375 68.015625 C 46.515625 68.015625 46.582031 68.042969 46.632812 68.097656 C 46.683594 68.148438 46.707031 68.214844 46.707031 68.285156 C 46.707031 68.363281 46.683594 68.425781 46.632812 68.476562 C 46.582031 68.527344 46.515625 68.554688 46.4375 68.554688 L 44.734375 68.554688 C 44.660156 68.554688 44.597656 68.527344 44.542969 68.472656 C 44.492188 68.421875 44.464844 68.355469 44.464844 68.277344 C 44.464844 68.207031 44.492188 68.144531 44.542969 68.09375 C 44.597656 68.042969 44.660156 68.015625 44.734375 68.015625 M 45.496094 67.03125 C 45.578125 67.03125 45.644531 67.058594 45.699219 67.113281 C 45.75 67.167969 45.777344 67.238281 45.777344 67.320312 L 45.777344 70.828125 C 45.777344 70.941406 45.796875 71.03125 45.828125 71.089844 C 45.863281 71.148438 45.90625 71.1875 45.964844 71.207031 C 46.019531 71.230469 46.074219 71.242188 46.128906 71.242188 C 46.175781 71.242188 46.21875 71.234375 46.253906 71.214844 C 46.289062 71.199219 46.332031 71.191406 46.382812 71.191406 C 46.429688 71.191406 46.472656 71.214844 46.515625 71.257812 C 46.554688 71.304688 46.578125 71.363281 46.578125 71.4375 C 46.578125 71.523438 46.527344 71.597656 46.425781 71.660156 C 46.324219 71.71875 46.210938 71.75 46.082031 71.75 C 46.015625 71.75 45.933594 71.746094 45.832031 71.734375 C 45.734375 71.726562 45.636719 71.695312 45.539062 71.640625 C 45.441406 71.585938 45.359375 71.5 45.296875 71.375 C 45.230469 71.25 45.199219 71.078125 45.199219 70.855469 L 45.199219 67.320312 C 45.199219 67.238281 45.226562 67.167969 45.285156 67.113281 C 45.34375 67.058594 45.414062 67.03125 45.496094 67.03125 M 47.359375 68.015625 L 49.066406 68.015625 C 49.144531 68.015625 49.210938 68.042969 49.261719 68.097656 C 49.3125 68.148438 49.335938 68.214844 49.335938 68.285156 C 49.335938 68.363281 49.3125 68.425781 49.261719 68.476562 C 49.210938 68.527344 49.144531 68.554688 49.066406 68.554688 L 47.359375 68.554688 C 47.289062 68.554688 47.226562 68.527344 47.171875 68.472656 C 47.121094 68.421875 47.09375 68.355469 47.09375 68.277344 C 47.09375 68.207031 47.121094 68.144531 47.171875 68.09375 C 47.226562 68.042969 47.289062 68.015625 47.359375 68.015625 M 48.125 67.03125 C 48.207031 67.03125 48.273438 67.058594 48.328125 67.113281 C 48.378906 67.167969 48.40625 67.238281 48.40625 67.320312 L 48.40625 70.828125 C 48.40625 70.941406 48.425781 71.03125 48.457031 71.089844 C 48.492188 71.148438 48.535156 71.1875 48.59375 71.207031 C 48.648438 71.230469 48.703125 71.242188 48.753906 71.242188 C 48.804688 71.242188 48.847656 71.234375 48.882812 71.214844 C 48.917969 71.199219 48.960938 71.191406 49.007812 71.191406 C 49.058594 71.191406 49.101562 71.214844 49.144531 71.257812 C 49.183594 71.304688 49.207031 71.363281 49.207031 71.4375 C 49.207031 71.523438 49.15625 71.597656 49.054688 71.660156 C 48.953125 71.71875 48.835938 71.75 48.710938 71.75 C 48.644531 71.75 48.5625 71.746094 48.460938 71.734375 C 48.363281 71.726562 48.265625 71.695312 48.167969 71.640625 C 48.070312 71.585938 47.988281 71.5 47.925781 71.375 C 47.859375 71.25 47.824219 71.078125 47.824219 70.855469 L 47.824219 67.320312 C 47.824219 67.238281 47.855469 67.167969 47.914062 67.113281 C 47.972656 67.058594 48.042969 67.03125 48.125 67.03125 M 50.695312 71.453125 C 50.695312 71.535156 50.667969 71.605469 50.609375 71.664062 C 50.554688 71.71875 50.484375 71.75 50.402344 71.75 C 50.316406 71.75 50.246094 71.71875 50.191406 71.664062 C 50.140625 71.605469 50.113281 71.535156 50.113281 71.453125 L 50.113281 68.226562 C 50.113281 68.144531 50.140625 68.078125 50.195312 68.019531 C 50.253906 67.964844 50.320312 67.9375 50.402344 67.9375 C 50.484375 67.9375 50.554688 67.964844 50.609375 68.019531 C 50.667969 68.078125 50.695312 68.144531 50.695312 68.226562 L 50.695312 71.453125 M 50.402344 67.449219 C 50.28125 67.449219 50.191406 67.425781 50.136719 67.378906 C 50.078125 67.328125 50.046875 67.253906 50.046875 67.152344 L 50.046875 67.050781 C 50.046875 66.949219 50.078125 66.875 50.140625 66.824219 C 50.207031 66.777344 50.292969 66.753906 50.410156 66.753906 C 50.527344 66.753906 50.613281 66.777344 50.671875 66.824219 C 50.730469 66.875 50.757812 66.949219 50.757812 67.050781 L 50.757812 67.152344 C 50.757812 67.253906 50.730469 67.328125 50.667969 67.378906 C 50.609375 67.425781 50.519531 67.449219 50.402344 67.449219 M 53.597656 67.902344 C 53.929688 67.902344 54.1875 67.96875 54.375 68.105469 C 54.566406 68.238281 54.699219 68.421875 54.777344 68.648438 C 54.859375 68.875 54.898438 69.128906 54.898438 69.410156 L 54.898438 71.453125 C 54.898438 71.535156 54.871094 71.605469 54.816406 71.664062 C 54.757812 71.71875 54.691406 71.75 54.609375 71.75 C 54.527344 71.75 54.457031 71.71875 54.402344 71.664062 C 54.34375 71.605469 54.316406 71.535156 54.316406 71.453125 L 54.316406 69.425781 C 54.316406 69.242188 54.289062 69.074219 54.234375 68.929688 C 54.179688 68.78125 54.085938 68.660156 53.957031 68.574219 C 53.828125 68.484375 53.65625 68.4375 53.433594 68.4375 C 53.226562 68.4375 53.042969 68.484375 52.871094 68.574219 C 52.703125 68.660156 52.566406 68.78125 52.464844 68.929688 C 52.363281 69.074219 52.3125 69.242188 52.3125 69.425781 L 52.3125 71.453125 C 52.3125 71.535156 52.285156 71.605469 52.230469 71.664062 C 52.175781 71.71875 52.105469 71.75 52.023438 71.75 C 51.941406 71.75 51.871094 71.71875 51.816406 71.664062 C 51.761719 71.605469 51.734375 71.535156 51.734375 71.453125 L 51.734375 68.285156 C 51.734375 68.203125 51.761719 68.132812 51.816406 68.078125 C 51.871094 68.023438 51.941406 67.996094 52.023438 67.996094 C 52.109375 67.996094 52.179688 68.023438 52.234375 68.078125 C 52.285156 68.132812 52.3125 68.203125 52.3125 68.285156 L 52.3125 68.800781 L 52.167969 68.960938 C 52.191406 68.835938 52.25 68.707031 52.335938 68.578125 C 52.421875 68.453125 52.53125 68.335938 52.660156 68.234375 C 52.792969 68.132812 52.9375 68.050781 53.097656 67.992188 C 53.257812 67.929688 53.425781 67.902344 53.597656 67.902344 M 57.503906 67.902344 C 57.71875 67.902344 57.914062 67.9375 58.09375 68.007812 C 58.273438 68.078125 58.429688 68.167969 58.5625 68.277344 C 58.695312 68.390625 58.800781 68.507812 58.875 68.625 C 58.949219 68.746094 58.988281 68.863281 58.988281 68.96875 L 58.839844 68.882812 L 58.839844 68.25 C 58.839844 68.167969 58.871094 68.097656 58.925781 68.042969 C 58.980469 67.988281 59.050781 67.957031 59.132812 67.957031 C 59.21875 67.957031 59.289062 67.988281 59.34375 68.042969 C 59.394531 68.097656 59.421875 68.167969 59.421875 68.25 L 59.421875 71.429688 C 59.421875 71.828125 59.339844 72.15625 59.171875 72.417969 C 59.003906 72.679688 58.78125 72.875 58.5 73.003906 C 58.21875 73.136719 57.90625 73.203125 57.5625 73.203125 C 57.417969 73.203125 57.257812 73.183594 57.082031 73.144531 C 56.902344 73.105469 56.746094 73.058594 56.613281 73 C 56.476562 72.945312 56.390625 72.890625 56.359375 72.832031 C 56.285156 72.78125 56.242188 72.726562 56.222656 72.667969 C 56.207031 72.605469 56.214844 72.550781 56.25 72.496094 C 56.296875 72.429688 56.355469 72.394531 56.421875 72.394531 C 56.492188 72.394531 56.578125 72.417969 56.683594 72.460938 C 56.734375 72.476562 56.804688 72.5 56.894531 72.535156 C 56.988281 72.566406 57.09375 72.597656 57.214844 72.625 C 57.335938 72.652344 57.453125 72.664062 57.570312 72.664062 C 57.980469 72.664062 58.296875 72.554688 58.515625 72.339844 C 58.734375 72.125 58.839844 71.839844 58.839844 71.488281 L 58.839844 70.8125 L 58.921875 70.847656 C 58.890625 70.984375 58.835938 71.109375 58.746094 71.226562 C 58.660156 71.34375 58.550781 71.445312 58.425781 71.535156 C 58.296875 71.625 58.152344 71.695312 57.996094 71.746094 C 57.839844 71.796875 57.679688 71.820312 57.519531 71.820312 C 57.179688 71.820312 56.878906 71.738281 56.609375 71.566406 C 56.339844 71.398438 56.125 71.164062 55.96875 70.871094 C 55.8125 70.574219 55.734375 70.238281 55.734375 69.863281 C 55.734375 69.480469 55.8125 69.140625 55.96875 68.84375 C 56.125 68.550781 56.339844 68.316406 56.605469 68.152344 C 56.871094 67.984375 57.171875 67.902344 57.503906 67.902344 M 57.585938 68.4375 C 57.332031 68.4375 57.109375 68.5 56.917969 68.625 C 56.722656 68.746094 56.570312 68.914062 56.460938 69.128906 C 56.347656 69.339844 56.292969 69.585938 56.292969 69.863281 C 56.292969 70.128906 56.347656 70.367188 56.460938 70.582031 C 56.570312 70.800781 56.722656 70.96875 56.917969 71.097656 C 57.109375 71.222656 57.332031 71.285156 57.585938 71.285156 C 57.835938 71.285156 58.058594 71.222656 58.253906 71.097656 C 58.445312 70.976562 58.597656 70.808594 58.710938 70.59375 C 58.820312 70.382812 58.878906 70.136719 58.878906 69.863281 C 58.878906 69.582031 58.820312 69.332031 58.710938 69.121094 C 58.597656 68.90625 58.445312 68.742188 58.253906 68.621094 C 58.058594 68.5 57.835938 68.4375 57.585938 68.4375 M 62.871094 66.667969 L 65.457031 66.667969 C 65.539062 66.667969 65.609375 66.691406 65.667969 66.746094 C 65.726562 66.800781 65.753906 66.867188 65.753906 66.949219 C 65.753906 67.03125 65.726562 67.097656 65.667969 67.148438 C 65.609375 67.199219 65.539062 67.226562 65.457031 67.226562 L 63.117188 67.226562 L 63.183594 67.101562 L 63.183594 68.9375 L 63.113281 68.859375 L 65.128906 68.859375 C 65.210938 68.859375 65.28125 68.886719 65.339844 68.9375 C 65.398438 68.992188 65.429688 69.058594 65.429688 69.140625 C 65.429688 69.226562 65.398438 69.292969 65.339844 69.34375 C 65.28125 69.394531 65.210938 69.417969 65.128906 69.417969 L 63.132812 69.417969 L 63.183594 69.351562 L 63.183594 71.234375 L 63.140625 71.183594 L 65.457031 71.183594 C 65.539062 71.183594 65.609375 71.210938 65.667969 71.269531 C 65.726562 71.328125 65.753906 71.394531 65.753906 71.464844 C 65.753906 71.546875 65.726562 71.617188 65.667969 71.667969 C 65.609375 71.722656 65.539062 71.75 65.457031 71.75 L 62.871094 71.75 C 62.789062 71.75 62.71875 71.71875 62.664062 71.664062 C 62.609375 71.605469 62.582031 71.535156 62.582031 71.453125 L 62.582031 66.957031 C 62.582031 66.875 62.609375 66.804688 62.664062 66.75 C 62.71875 66.695312 62.789062 66.667969 62.871094 66.667969 M 69.632812 66.375 C 69.71875 66.375 69.789062 66.402344 69.84375 66.460938 C 69.894531 66.515625 69.921875 66.585938 69.921875 66.667969 L 69.921875 71.453125 C 69.921875 71.535156 69.894531 71.605469 69.839844 71.664062 C 69.785156 71.71875 69.714844 71.75 69.632812 71.75 C 69.550781 71.75 69.480469 71.71875 69.425781 71.664062 C 69.371094 71.605469 69.339844 71.535156 69.339844 71.453125 L 69.339844 70.761719 L 69.480469 70.710938 C 69.480469 70.828125 69.445312 70.949219 69.375 71.078125 C 69.304688 71.207031 69.203125 71.324219 69.078125 71.4375 C 68.949219 71.546875 68.800781 71.640625 68.628906 71.714844 C 68.460938 71.785156 68.277344 71.820312 68.078125 71.820312 C 67.75 71.820312 67.453125 71.738281 67.191406 71.566406 C 66.929688 71.398438 66.722656 71.164062 66.570312 70.871094 C 66.417969 70.574219 66.34375 70.238281 66.34375 69.863281 C 66.34375 69.480469 66.417969 69.140625 66.570312 68.84375 C 66.722656 68.550781 66.929688 68.316406 67.1875 68.152344 C 67.449219 67.984375 67.738281 67.902344 68.0625 67.902344 C 68.265625 67.902344 68.457031 67.933594 68.632812 68.003906 C 68.808594 68.070312 68.964844 68.164062 69.101562 68.277344 C 69.238281 68.394531 69.34375 68.523438 69.417969 68.664062 C 69.492188 68.804688 69.53125 68.945312 69.53125 69.085938 L 69.339844 69.039062 L 69.339844 66.667969 C 69.339844 66.585938 69.371094 66.515625 69.425781 66.460938 C 69.480469 66.402344 69.550781 66.375 69.632812 66.375 M 68.136719 71.285156 C 68.382812 71.285156 68.597656 71.222656 68.78125 71.097656 C 68.964844 70.976562 69.113281 70.804688 69.21875 70.589844 C 69.324219 70.375 69.378906 70.132812 69.378906 69.863281 C 69.378906 69.585938 69.324219 69.339844 69.21875 69.128906 C 69.113281 68.914062 68.964844 68.746094 68.777344 68.625 C 68.59375 68.5 68.378906 68.4375 68.136719 68.4375 C 67.898438 68.4375 67.6875 68.5 67.5 68.625 C 67.316406 68.746094 67.167969 68.914062 67.0625 69.128906 C 66.957031 69.339844 66.902344 69.585938 66.902344 69.863281 C 66.902344 70.128906 66.957031 70.367188 67.0625 70.582031 C 67.167969 70.800781 67.316406 70.96875 67.5 71.097656 C 67.6875 71.222656 67.898438 71.285156 68.136719 71.285156 M 72.53125 67.902344 C 72.742188 67.902344 72.9375 67.9375 73.117188 68.007812 C 73.296875 68.078125 73.453125 68.167969 73.585938 68.277344 C 73.71875 68.390625 73.824219 68.507812 73.898438 68.625 C 73.972656 68.746094 74.011719 68.863281 74.011719 68.96875 L 73.867188 68.882812 L 73.867188 68.25 C 73.867188 68.167969 73.894531 68.097656 73.949219 68.042969 C 74.003906 67.988281 74.074219 67.957031 74.15625 67.957031 C 74.242188 67.957031 74.3125 67.988281 74.367188 68.042969 C 74.421875 68.097656 74.445312 68.167969 74.445312 68.25 L 74.445312 71.429688 C 74.445312 71.828125 74.363281 72.15625 74.195312 72.417969 C 74.027344 72.679688 73.804688 72.875 73.523438 73.003906 C 73.242188 73.136719 72.929688 73.203125 72.585938 73.203125 C 72.441406 73.203125 72.28125 73.183594 72.105469 73.144531 C 71.929688 73.105469 71.773438 73.058594 71.636719 73 C 71.5 72.945312 71.417969 72.890625 71.382812 72.832031 C 71.308594 72.78125 71.265625 72.726562 71.246094 72.667969 C 71.230469 72.605469 71.238281 72.550781 71.273438 72.496094 C 71.320312 72.429688 71.378906 72.394531 71.449219 72.394531 C 71.515625 72.394531 71.601562 72.417969 71.710938 72.460938 C 71.757812 72.476562 71.828125 72.5 71.917969 72.535156 C 72.011719 72.566406 72.117188 72.597656 72.238281 72.625 C 72.359375 72.652344 72.480469 72.664062 72.59375 72.664062 C 73.007812 72.664062 73.320312 72.554688 73.539062 72.339844 C 73.757812 72.125 73.867188 71.839844 73.867188 71.488281 L 73.867188 70.8125 L 73.945312 70.847656 C 73.917969 70.984375 73.859375 71.109375 73.769531 71.226562 C 73.683594 71.34375 73.578125 71.445312 73.449219 71.535156 C 73.320312 71.625 73.175781 71.695312 73.019531 71.746094 C 72.863281 71.796875 72.703125 71.820312 72.542969 71.820312 C 72.207031 71.820312 71.902344 71.738281 71.632812 71.566406 C 71.363281 71.398438 71.152344 71.164062 70.992188 70.871094 C 70.835938 70.574219 70.757812 70.238281 70.757812 69.863281 C 70.757812 69.480469 70.835938 69.140625 70.992188 68.84375 C 71.152344 68.550781 71.363281 68.316406 71.628906 68.152344 C 71.894531 67.984375 72.195312 67.902344 72.53125 67.902344 M 72.609375 68.4375 C 72.359375 68.4375 72.136719 68.5 71.941406 68.625 C 71.746094 68.746094 71.59375 68.914062 71.484375 69.128906 C 71.371094 69.339844 71.316406 69.585938 71.316406 69.863281 C 71.316406 70.128906 71.371094 70.367188 71.484375 70.582031 C 71.59375 70.800781 71.746094 70.96875 71.941406 71.097656 C 72.136719 71.222656 72.359375 71.285156 72.609375 71.285156 C 72.859375 71.285156 73.082031 71.222656 73.277344 71.097656 C 73.472656 70.976562 73.625 70.808594 73.734375 70.59375 C 73.847656 70.382812 73.902344 70.136719 73.902344 69.863281 C 73.902344 69.582031 73.847656 69.332031 73.734375 69.121094 C 73.625 68.90625 73.472656 68.742188 73.277344 68.621094 C 73.082031 68.5 72.859375 68.4375 72.609375 68.4375 M 77.066406 71.820312 C 76.679688 71.820312 76.34375 71.738281 76.050781 71.574219 C 75.761719 71.410156 75.535156 71.183594 75.375 70.894531 C 75.214844 70.609375 75.136719 70.273438 75.136719 69.898438 C 75.136719 69.476562 75.21875 69.117188 75.386719 68.820312 C 75.554688 68.523438 75.769531 68.292969 76.035156 68.136719 C 76.304688 67.980469 76.585938 67.902344 76.886719 67.902344 C 77.113281 67.902344 77.332031 67.941406 77.535156 68.023438 C 77.742188 68.105469 77.925781 68.226562 78.089844 68.382812 C 78.25 68.539062 78.378906 68.730469 78.476562 68.949219 C 78.574219 69.171875 78.625 69.414062 78.628906 69.6875 C 78.625 69.765625 78.59375 69.828125 78.535156 69.882812 C 78.476562 69.9375 78.410156 69.964844 78.332031 69.964844 L 75.464844 69.964844 L 75.332031 69.460938 L 78.128906 69.460938 L 78.011719 69.5625 L 78.011719 69.402344 C 77.996094 69.207031 77.933594 69.035156 77.820312 68.890625 C 77.707031 68.75 77.566406 68.640625 77.402344 68.5625 C 77.238281 68.484375 77.066406 68.445312 76.886719 68.445312 C 76.742188 68.445312 76.597656 68.472656 76.453125 68.523438 C 76.3125 68.574219 76.183594 68.65625 76.070312 68.769531 C 75.957031 68.882812 75.863281 69.027344 75.796875 69.207031 C 75.730469 69.386719 75.695312 69.601562 75.695312 69.855469 C 75.695312 70.136719 75.753906 70.382812 75.867188 70.59375 C 75.980469 70.808594 76.136719 70.976562 76.34375 71.097656 C 76.546875 71.222656 76.78125 71.285156 77.046875 71.285156 C 77.21875 71.285156 77.371094 71.261719 77.496094 71.21875 C 77.621094 71.175781 77.730469 71.121094 77.820312 71.054688 C 77.910156 70.992188 77.984375 70.925781 78.046875 70.855469 C 78.109375 70.8125 78.175781 70.789062 78.238281 70.789062 C 78.304688 70.789062 78.363281 70.816406 78.410156 70.863281 C 78.460938 70.910156 78.484375 70.96875 78.484375 71.039062 C 78.484375 71.121094 78.445312 71.191406 78.367188 71.253906 C 78.226562 71.40625 78.042969 71.539062 77.8125 71.652344 C 77.582031 71.765625 77.335938 71.820312 77.066406 71.820312 M 83.03125 71.820312 C 82.671875 71.820312 82.355469 71.769531 82.085938 71.664062 C 81.816406 71.554688 81.554688 71.386719 81.300781 71.152344 C 81.269531 71.121094 81.238281 71.082031 81.21875 71.042969 C 81.195312 71 81.1875 70.957031 81.1875 70.90625 C 81.1875 70.828125 81.214844 70.761719 81.269531 70.699219 C 81.324219 70.640625 81.394531 70.609375 81.476562 70.609375 C 81.542969 70.609375 81.605469 70.636719 81.65625 70.6875 C 81.847656 70.875 82.050781 71.011719 82.269531 71.109375 C 82.492188 71.207031 82.738281 71.253906 83.015625 71.253906 C 83.230469 71.253906 83.421875 71.222656 83.59375 71.152344 C 83.765625 71.085938 83.902344 70.992188 84.003906 70.871094 C 84.105469 70.75 84.15625 70.609375 84.15625 70.449219 C 84.152344 70.257812 84.09375 70.097656 83.984375 69.96875 C 83.875 69.84375 83.726562 69.738281 83.535156 69.65625 C 83.34375 69.570312 83.121094 69.5 82.871094 69.441406 C 82.648438 69.386719 82.441406 69.320312 82.257812 69.246094 C 82.070312 69.167969 81.910156 69.070312 81.773438 68.957031 C 81.636719 68.84375 81.53125 68.707031 81.457031 68.542969 C 81.382812 68.382812 81.34375 68.191406 81.34375 67.972656 C 81.34375 67.699219 81.417969 67.457031 81.5625 67.246094 C 81.707031 67.039062 81.910156 66.878906 82.164062 66.765625 C 82.421875 66.652344 82.71875 66.59375 83.050781 66.59375 C 83.347656 66.59375 83.625 66.640625 83.890625 66.738281 C 84.15625 66.835938 84.367188 66.96875 84.527344 67.136719 C 84.621094 67.230469 84.671875 67.320312 84.671875 67.40625 C 84.671875 67.480469 84.640625 67.546875 84.582031 67.605469 C 84.519531 67.667969 84.449219 67.699219 84.375 67.699219 C 84.320312 67.699219 84.273438 67.679688 84.226562 67.640625 C 84.144531 67.546875 84.042969 67.464844 83.914062 67.390625 C 83.789062 67.320312 83.652344 67.261719 83.503906 67.21875 C 83.351562 67.175781 83.203125 67.152344 83.050781 67.152344 C 82.828125 67.152344 82.632812 67.183594 82.464844 67.25 C 82.292969 67.316406 82.164062 67.410156 82.066406 67.527344 C 81.972656 67.644531 81.925781 67.785156 81.925781 67.953125 C 81.925781 68.136719 81.980469 68.285156 82.085938 68.40625 C 82.191406 68.523438 82.335938 68.621094 82.515625 68.695312 C 82.695312 68.769531 82.890625 68.835938 83.109375 68.894531 C 83.347656 68.953125 83.566406 69.019531 83.765625 69.09375 C 83.96875 69.171875 84.140625 69.261719 84.285156 69.375 C 84.429688 69.484375 84.542969 69.628906 84.625 69.800781 C 84.703125 69.972656 84.742188 70.183594 84.742188 70.433594 C 84.742188 70.703125 84.667969 70.9375 84.519531 71.148438 C 84.367188 71.355469 84.164062 71.519531 83.90625 71.636719 C 83.644531 71.753906 83.355469 71.816406 83.03125 71.820312 M 89.136719 69.863281 C 89.136719 70.238281 89.054688 70.574219 88.890625 70.871094 C 88.726562 71.164062 88.5 71.398438 88.21875 71.566406 C 87.933594 71.738281 87.613281 71.820312 87.257812 71.820312 C 86.902344 71.820312 86.585938 71.738281 86.300781 71.566406 C 86.019531 71.398438 85.792969 71.164062 85.625 70.871094 C 85.457031 70.574219 85.375 70.238281 85.375 69.863281 C 85.375 69.484375 85.457031 69.148438 85.625 68.851562 C 85.792969 68.558594 86.019531 68.324219 86.300781 68.15625 C 86.585938 67.984375 86.902344 67.902344 87.257812 67.902344 C 87.613281 67.902344 87.933594 67.984375 88.21875 68.15625 C 88.5 68.324219 88.726562 68.558594 88.890625 68.851562 C 89.054688 69.148438 89.136719 69.484375 89.136719 69.863281 M 88.554688 69.863281 C 88.554688 69.582031 88.5 69.332031 88.386719 69.121094 C 88.269531 68.90625 88.117188 68.742188 87.921875 68.621094 C 87.722656 68.5 87.503906 68.4375 87.257812 68.4375 C 87.015625 68.4375 86.792969 68.5 86.59375 68.621094 C 86.398438 68.742188 86.242188 68.90625 86.125 69.121094 C 86.011719 69.332031 85.957031 69.582031 85.957031 69.863281 C 85.957031 70.136719 86.011719 70.382812 86.125 70.59375 C 86.242188 70.808594 86.398438 70.976562 86.59375 71.097656 C 86.792969 71.222656 87.015625 71.285156 87.257812 71.285156 C 87.503906 71.285156 87.722656 71.222656 87.921875 71.097656 C 88.117188 70.976562 88.269531 70.808594 88.386719 70.59375 C 88.5 70.382812 88.554688 70.136719 88.554688 69.863281 M 90.609375 71.453125 C 90.609375 71.535156 90.582031 71.605469 90.523438 71.664062 C 90.464844 71.71875 90.394531 71.75 90.3125 71.75 C 90.230469 71.75 90.164062 71.71875 90.109375 71.664062 C 90.054688 71.605469 90.03125 71.535156 90.03125 71.453125 L 90.03125 66.667969 C 90.03125 66.585938 90.058594 66.515625 90.113281 66.460938 C 90.167969 66.402344 90.238281 66.375 90.320312 66.375 C 90.40625 66.375 90.476562 66.402344 90.53125 66.460938 C 90.585938 66.515625 90.609375 66.585938 90.609375 66.667969 L 90.609375 71.453125 M 94.503906 67.996094 C 94.589844 67.996094 94.660156 68.023438 94.714844 68.078125 C 94.765625 68.132812 94.792969 68.203125 94.792969 68.285156 L 94.792969 70.269531 C 94.792969 70.757812 94.65625 71.136719 94.382812 71.40625 C 94.109375 71.671875 93.726562 71.808594 93.238281 71.808594 C 92.753906 71.808594 92.375 71.671875 92.101562 71.40625 C 91.828125 71.136719 91.691406 70.757812 91.691406 70.269531 L 91.691406 68.285156 C 91.691406 68.203125 91.71875 68.132812 91.777344 68.078125 C 91.832031 68.023438 91.902344 67.996094 91.984375 67.996094 C 92.070312 67.996094 92.140625 68.023438 92.195312 68.078125 C 92.246094 68.132812 92.273438 68.203125 92.273438 68.285156 L 92.273438 70.269531 C 92.273438 70.597656 92.359375 70.847656 92.527344 71.015625 C 92.695312 71.183594 92.933594 71.269531 93.238281 71.269531 C 93.554688 71.269531 93.792969 71.183594 93.960938 71.015625 C 94.128906 70.847656 94.210938 70.597656 94.210938 70.269531 L 94.210938 68.285156 C 94.210938 68.203125 94.238281 68.132812 94.296875 68.078125 C 94.351562 68.023438 94.421875 67.996094 94.503906 67.996094 M 95.714844 68.015625 L 97.421875 68.015625 C 97.5 68.015625 97.5625 68.042969 97.613281 68.097656 C 97.664062 68.148438 97.691406 68.214844 97.691406 68.285156 C 97.691406 68.363281 97.664062 68.425781 97.613281 68.476562 C 97.5625 68.527344 97.5 68.554688 97.421875 68.554688 L 95.714844 68.554688 C 95.644531 68.554688 95.578125 68.527344 95.527344 68.472656 C 95.472656 68.421875 95.445312 68.355469 95.445312 68.277344 C 95.445312 68.207031 95.472656 68.144531 95.527344 68.09375 C 95.578125 68.042969 95.644531 68.015625 95.714844 68.015625 M 96.476562 67.03125 C 96.558594 67.03125 96.628906 67.058594 96.679688 67.113281 C 96.734375 67.167969 96.761719 67.238281 96.761719 67.320312 L 96.761719 70.828125 C 96.761719 70.941406 96.777344 71.03125 96.8125 71.089844 C 96.847656 71.148438 96.890625 71.1875 96.945312 71.207031 C 97.003906 71.230469 97.054688 71.242188 97.109375 71.242188 C 97.15625 71.242188 97.199219 71.234375 97.238281 71.214844 C 97.273438 71.199219 97.316406 71.191406 97.363281 71.191406 C 97.414062 71.191406 97.457031 71.214844 97.5 71.257812 C 97.539062 71.304688 97.558594 71.363281 97.558594 71.4375 C 97.558594 71.523438 97.507812 71.597656 97.40625 71.660156 C 97.304688 71.71875 97.191406 71.75 97.066406 71.75 C 97 71.75 96.914062 71.746094 96.816406 71.734375 C 96.714844 71.726562 96.617188 71.695312 96.523438 71.640625 C 96.425781 71.585938 96.34375 71.5 96.277344 71.375 C 96.214844 71.25 96.179688 71.078125 96.179688 70.855469 L 96.179688 67.320312 C 96.179688 67.238281 96.210938 67.167969 96.265625 67.113281 C 96.324219 67.058594 96.394531 67.03125 96.476562 67.03125 M 99.046875 71.453125 C 99.046875 71.535156 99.019531 71.605469 98.964844 71.664062 C 98.910156 71.71875 98.839844 71.75 98.757812 71.75 C 98.671875 71.75 98.601562 71.71875 98.546875 71.664062 C 98.492188 71.605469 98.46875 71.535156 98.46875 71.453125 L 98.46875 68.226562 C 98.46875 68.144531 98.496094 68.078125 98.550781 68.019531 C 98.605469 67.964844 98.675781 67.9375 98.757812 67.9375 C 98.839844 67.9375 98.910156 67.964844 98.964844 68.019531 C 99.019531 68.078125 99.046875 68.144531 99.046875 68.226562 L 99.046875 71.453125 M 98.757812 67.449219 C 98.636719 67.449219 98.546875 67.425781 98.488281 67.378906 C 98.429688 67.328125 98.402344 67.253906 98.402344 67.152344 L 98.402344 67.050781 C 98.402344 66.949219 98.433594 66.875 98.496094 66.824219 C 98.558594 66.777344 98.648438 66.753906 98.765625 66.753906 C 98.882812 66.753906 98.96875 66.777344 99.027344 66.824219 C 99.085938 66.875 99.113281 66.949219 99.113281 67.050781 L 99.113281 67.152344 C 99.113281 67.253906 99.082031 67.328125 99.023438 67.378906 C 98.960938 67.425781 98.875 67.449219 98.757812 67.449219 M 103.617188 69.863281 C 103.617188 70.238281 103.535156 70.574219 103.367188 70.871094 C 103.203125 71.164062 102.980469 71.398438 102.695312 71.566406 C 102.414062 71.738281 102.09375 71.820312 101.734375 71.820312 C 101.382812 71.820312 101.0625 71.738281 100.78125 71.566406 C 100.496094 71.398438 100.273438 71.164062 100.105469 70.871094 C 99.9375 70.574219 99.855469 70.238281 99.855469 69.863281 C 99.855469 69.484375 99.9375 69.148438 100.105469 68.851562 C 100.273438 68.558594 100.496094 68.324219 100.78125 68.15625 C 101.0625 67.984375 101.382812 67.902344 101.734375 67.902344 C 102.09375 67.902344 102.414062 67.984375 102.695312 68.15625 C 102.980469 68.324219 103.203125 68.558594 103.367188 68.851562 C 103.535156 69.148438 103.617188 69.484375 103.617188 69.863281 M 103.035156 69.863281 C 103.035156 69.582031 102.976562 69.332031 102.863281 69.121094 C 102.75 68.90625 102.59375 68.742188 102.398438 68.621094 C 102.203125 68.5 101.980469 68.4375 101.734375 68.4375 C 101.492188 68.4375 101.273438 68.5 101.074219 68.621094 C 100.875 68.742188 100.71875 68.90625 100.605469 69.121094 C 100.492188 69.332031 100.433594 69.582031 100.433594 69.863281 C 100.433594 70.136719 100.492188 70.382812 100.605469 70.59375 C 100.71875 70.808594 100.875 70.976562 101.074219 71.097656 C 101.273438 71.222656 101.492188 71.285156 101.734375 71.285156 C 101.980469 71.285156 102.203125 71.222656 102.398438 71.097656 C 102.59375 70.976562 102.75 70.808594 102.863281 70.59375 C 102.976562 70.382812 103.035156 70.136719 103.035156 69.863281 M 106.316406 67.902344 C 106.644531 67.902344 106.90625 67.96875 107.09375 68.105469 C 107.28125 68.238281 107.417969 68.421875 107.496094 68.648438 C 107.578125 68.875 107.617188 69.128906 107.617188 69.410156 L 107.617188 71.453125 C 107.617188 71.535156 107.589844 71.605469 107.535156 71.664062 C 107.476562 71.71875 107.410156 71.75 107.328125 71.75 C 107.242188 71.75 107.175781 71.71875 107.121094 71.664062 C 107.0625 71.605469 107.035156 71.535156 107.035156 71.453125 L 107.035156 69.425781 C 107.035156 69.242188 107.007812 69.074219 106.953125 68.929688 C 106.898438 68.78125 106.804688 68.660156 106.675781 68.574219 C 106.546875 68.484375 106.371094 68.4375 106.148438 68.4375 C 105.945312 68.4375 105.761719 68.484375 105.589844 68.574219 C 105.421875 68.660156 105.285156 68.78125 105.183594 68.929688 C 105.082031 69.074219 105.03125 69.242188 105.03125 69.425781 L 105.03125 71.453125 C 105.03125 71.535156 105.003906 71.605469 104.949219 71.664062 C 104.890625 71.71875 104.824219 71.75 104.742188 71.75 C 104.660156 71.75 104.589844 71.71875 104.535156 71.664062 C 104.480469 71.605469 104.449219 71.535156 104.449219 71.453125 L 104.449219 68.285156 C 104.449219 68.203125 104.480469 68.132812 104.535156 68.078125 C 104.589844 68.023438 104.660156 67.996094 104.742188 67.996094 C 104.828125 67.996094 104.898438 68.023438 104.953125 68.078125 C 105.003906 68.132812 105.03125 68.203125 105.03125 68.285156 L 105.03125 68.800781 L 104.886719 68.960938 C 104.910156 68.835938 104.964844 68.707031 105.054688 68.578125 C 105.140625 68.453125 105.25 68.335938 105.378906 68.234375 C 105.511719 68.132812 105.65625 68.050781 105.816406 67.992188 C 105.976562 67.929688 106.144531 67.902344 106.316406 67.902344 M 108.472656 71.152344 C 108.429688 71.089844 108.410156 71.023438 108.414062 70.953125 C 108.421875 70.882812 108.460938 70.824219 108.539062 70.769531 C 108.585938 70.734375 108.644531 70.71875 108.710938 70.726562 C 108.773438 70.730469 108.835938 70.761719 108.886719 70.820312 C 109.023438 70.980469 109.179688 71.105469 109.351562 71.199219 C 109.527344 71.296875 109.738281 71.34375 109.992188 71.34375 C 110.105469 71.335938 110.222656 71.320312 110.339844 71.285156 C 110.457031 71.25 110.554688 71.191406 110.632812 71.105469 C 110.714844 71.023438 110.753906 70.910156 110.753906 70.769531 C 110.753906 70.632812 110.710938 70.527344 110.628906 70.445312 C 110.546875 70.367188 110.441406 70.300781 110.3125 70.25 C 110.179688 70.199219 110.039062 70.152344 109.882812 70.117188 C 109.722656 70.070312 109.566406 70.023438 109.410156 69.964844 C 109.253906 69.910156 109.117188 69.839844 108.992188 69.757812 C 108.871094 69.671875 108.769531 69.566406 108.695312 69.4375 C 108.621094 69.308594 108.582031 69.152344 108.582031 68.96875 C 108.582031 68.75 108.640625 68.5625 108.761719 68.402344 C 108.878906 68.242188 109.039062 68.117188 109.238281 68.03125 C 109.441406 67.945312 109.660156 67.902344 109.898438 67.902344 C 110.03125 67.902344 110.175781 67.917969 110.320312 67.949219 C 110.46875 67.980469 110.613281 68.03125 110.753906 68.109375 C 110.894531 68.183594 111.015625 68.285156 111.125 68.417969 C 111.167969 68.464844 111.191406 68.523438 111.195312 68.597656 C 111.203125 68.671875 111.171875 68.734375 111.101562 68.792969 C 111.050781 68.832031 110.988281 68.847656 110.925781 68.84375 C 110.859375 68.839844 110.804688 68.816406 110.761719 68.773438 C 110.660156 68.652344 110.53125 68.558594 110.378906 68.492188 C 110.226562 68.425781 110.058594 68.394531 109.875 68.394531 C 109.757812 68.394531 109.644531 68.410156 109.535156 68.445312 C 109.421875 68.480469 109.328125 68.535156 109.253906 68.617188 C 109.179688 68.695312 109.140625 68.804688 109.140625 68.945312 C 109.144531 69.078125 109.191406 69.183594 109.273438 69.265625 C 109.355469 69.347656 109.464844 69.414062 109.605469 69.464844 C 109.746094 69.515625 109.902344 69.566406 110.070312 69.613281 C 110.226562 69.652344 110.375 69.699219 110.519531 69.75 C 110.660156 69.800781 110.789062 69.867188 110.90625 69.949219 C 111.023438 70.03125 111.113281 70.136719 111.183594 70.265625 C 111.25 70.394531 111.285156 70.554688 111.285156 70.746094 C 111.285156 70.96875 111.222656 71.164062 111.09375 71.324219 C 110.96875 71.488281 110.804688 71.609375 110.597656 71.695312 C 110.390625 71.78125 110.171875 71.820312 109.933594 71.820312 C 109.667969 71.820312 109.402344 71.769531 109.144531 71.667969 C 108.886719 71.566406 108.664062 71.394531 108.472656 71.152344 M 112.292969 71.742188 C 112.191406 71.742188 112.113281 71.714844 112.058594 71.65625 C 112 71.597656 111.972656 71.515625 111.972656 71.414062 L 111.972656 71.269531 C 111.972656 71.164062 112 71.082031 112.058594 71.023438 C 112.113281 70.964844 112.191406 70.9375 112.292969 70.9375 L 112.351562 70.9375 C 112.457031 70.9375 112.539062 70.964844 112.589844 71.023438 C 112.644531 71.082031 112.671875 71.164062 112.671875 71.269531 L 112.671875 71.414062 C 112.671875 71.515625 112.644531 71.597656 112.589844 71.65625 C 112.539062 71.714844 112.457031 71.742188 112.351562 71.742188 L 112.292969 71.742188 M 120.265625 69.207031 C 120.265625 69.582031 120.207031 69.925781 120.085938 70.242188 C 119.964844 70.558594 119.792969 70.835938 119.578125 71.074219 C 119.359375 71.3125 119.097656 71.496094 118.800781 71.625 C 118.5 71.757812 118.171875 71.820312 117.820312 71.820312 C 117.460938 71.820312 117.132812 71.757812 116.835938 71.625 C 116.539062 71.496094 116.28125 71.3125 116.0625 71.074219 C 115.84375 70.835938 115.675781 70.558594 115.554688 70.242188 C 115.433594 69.925781 115.371094 69.582031 115.371094 69.207031 C 115.371094 68.832031 115.433594 68.484375 115.554688 68.164062 C 115.675781 67.847656 115.84375 67.574219 116.0625 67.339844 C 116.28125 67.101562 116.539062 66.921875 116.835938 66.789062 C 117.132812 66.660156 117.460938 66.59375 117.820312 66.59375 C 118.171875 66.59375 118.5 66.660156 118.800781 66.789062 C 119.097656 66.921875 119.359375 67.101562 119.578125 67.339844 C 119.792969 67.574219 119.964844 67.847656 120.085938 68.164062 C 120.207031 68.484375 120.265625 68.832031 120.265625 69.207031 M 119.640625 69.207031 C 119.640625 68.8125 119.5625 68.460938 119.40625 68.15625 C 119.25 67.851562 119.035156 67.609375 118.761719 67.4375 C 118.492188 67.261719 118.175781 67.175781 117.820312 67.175781 C 117.460938 67.175781 117.144531 67.261719 116.871094 67.4375 C 116.597656 67.609375 116.382812 67.851562 116.230469 68.15625 C 116.074219 68.460938 115.996094 68.8125 115.996094 69.207031 C 115.996094 69.601562 116.074219 69.949219 116.230469 70.257812 C 116.382812 70.566406 116.597656 70.804688 116.871094 70.980469 C 117.144531 71.152344 117.460938 71.242188 117.820312 71.242188 C 118.175781 71.242188 118.492188 71.152344 118.761719 70.980469 C 119.035156 70.804688 119.25 70.566406 119.40625 70.257812 C 119.5625 69.949219 119.640625 69.601562 119.640625 69.207031 M 121.761719 71.453125 C 121.761719 71.535156 121.734375 71.605469 121.675781 71.664062 C 121.617188 71.71875 121.546875 71.75 121.464844 71.75 C 121.382812 71.75 121.3125 71.71875 121.261719 71.664062 C 121.207031 71.605469 121.179688 71.535156 121.179688 71.453125 L 121.179688 66.667969 C 121.179688 66.585938 121.207031 66.515625 121.265625 66.460938 C 121.320312 66.402344 121.390625 66.375 121.472656 66.375 C 121.558594 66.375 121.628906 66.402344 121.683594 66.460938 C 121.734375 66.515625 121.761719 66.585938 121.761719 66.667969 L 121.761719 71.453125 M 125.863281 66.375 C 125.953125 66.375 126.023438 66.402344 126.074219 66.460938 C 126.128906 66.515625 126.15625 66.585938 126.15625 66.667969 L 126.15625 71.453125 C 126.15625 71.535156 126.128906 71.605469 126.070312 71.664062 C 126.015625 71.71875 125.945312 71.75 125.863281 71.75 C 125.78125 71.75 125.714844 71.71875 125.65625 71.664062 C 125.601562 71.605469 125.574219 71.535156 125.574219 71.453125 L 125.574219 70.761719 L 125.710938 70.710938 C 125.710938 70.828125 125.675781 70.949219 125.605469 71.078125 C 125.535156 71.207031 125.4375 71.324219 125.308594 71.4375 C 125.179688 71.546875 125.03125 71.640625 124.863281 71.714844 C 124.691406 71.785156 124.507812 71.820312 124.308594 71.820312 C 123.980469 71.820312 123.6875 71.738281 123.425781 71.566406 C 123.164062 71.398438 122.957031 71.164062 122.804688 70.871094 C 122.652344 70.574219 122.574219 70.238281 122.574219 69.863281 C 122.574219 69.480469 122.652344 69.140625 122.804688 68.84375 C 122.957031 68.550781 123.160156 68.316406 123.421875 68.152344 C 123.679688 67.984375 123.972656 67.902344 124.296875 67.902344 C 124.5 67.902344 124.6875 67.933594 124.867188 68.003906 C 125.042969 68.070312 125.199219 68.164062 125.335938 68.277344 C 125.46875 68.394531 125.574219 68.523438 125.648438 68.664062 C 125.726562 68.804688 125.761719 68.945312 125.761719 69.085938 L 125.574219 69.039062 L 125.574219 66.667969 C 125.574219 66.585938 125.601562 66.515625 125.65625 66.460938 C 125.714844 66.402344 125.78125 66.375 125.863281 66.375 M 124.367188 71.285156 C 124.617188 71.285156 124.832031 71.222656 125.015625 71.097656 C 125.199219 70.976562 125.34375 70.804688 125.449219 70.589844 C 125.558594 70.375 125.609375 70.132812 125.609375 69.863281 C 125.609375 69.585938 125.558594 69.339844 125.449219 69.128906 C 125.34375 68.914062 125.199219 68.746094 125.011719 68.625 C 124.824219 68.5 124.609375 68.4375 124.367188 68.4375 C 124.132812 68.4375 123.917969 68.5 123.734375 68.625 C 123.546875 68.746094 123.398438 68.914062 123.292969 69.128906 C 123.1875 69.339844 123.132812 69.585938 123.132812 69.863281 C 123.132812 70.128906 123.1875 70.367188 123.292969 70.582031 C 123.398438 70.800781 123.546875 70.96875 123.734375 71.097656 C 123.917969 71.222656 124.132812 71.285156 124.367188 71.285156 M 129.613281 71.75 C 129.523438 71.75 129.453125 71.71875 129.398438 71.664062 C 129.339844 71.605469 129.3125 71.535156 129.3125 71.453125 L 129.3125 66.957031 C 129.3125 66.875 129.339844 66.804688 129.398438 66.75 C 129.453125 66.695312 129.523438 66.667969 129.605469 66.667969 L 132.152344 66.667969 C 132.234375 66.667969 132.304688 66.691406 132.363281 66.746094 C 132.421875 66.800781 132.449219 66.867188 132.449219 66.949219 C 132.449219 67.027344 132.421875 67.09375 132.363281 67.144531 C 132.304688 67.199219 132.234375 67.226562 132.152344 67.226562 L 129.867188 67.226562 L 129.910156 67.167969 L 129.910156 68.945312 L 129.871094 68.867188 L 131.828125 68.867188 C 131.910156 68.867188 131.980469 68.894531 132.035156 68.949219 C 132.09375 69.003906 132.125 69.074219 132.125 69.15625 C 132.125 69.230469 132.09375 69.292969 132.035156 69.347656 C 131.980469 69.40625 131.910156 69.433594 131.828125 69.433594 L 129.859375 69.433594 L 129.910156 69.367188 L 129.910156 71.453125 C 129.910156 71.535156 129.878906 71.605469 129.820312 71.664062 C 129.765625 71.71875 129.695312 71.75 129.613281 71.75 M 136.21875 67.957031 C 136.304688 67.957031 136.375 67.988281 136.429688 68.042969 C 136.484375 68.097656 136.507812 68.167969 136.507812 68.25 L 136.507812 71.453125 C 136.507812 71.535156 136.480469 71.605469 136.425781 71.664062 C 136.371094 71.71875 136.300781 71.75 136.21875 71.75 C 136.136719 71.75 136.066406 71.71875 136.011719 71.664062 C 135.957031 71.605469 135.929688 71.535156 135.929688 71.453125 L 135.929688 70.761719 L 136.066406 70.746094 C 136.066406 70.855469 136.03125 70.96875 135.957031 71.097656 C 135.886719 71.222656 135.785156 71.339844 135.660156 71.449219 C 135.535156 71.558594 135.386719 71.644531 135.21875 71.714844 C 135.046875 71.785156 134.863281 71.820312 134.664062 71.820312 C 134.335938 71.820312 134.039062 71.734375 133.777344 71.5625 C 133.511719 71.390625 133.304688 71.160156 133.15625 70.863281 C 133.003906 70.566406 132.929688 70.230469 132.929688 69.855469 C 132.929688 69.472656 133.007812 69.132812 133.160156 68.839844 C 133.3125 68.546875 133.515625 68.316406 133.777344 68.152344 C 134.035156 67.984375 134.328125 67.902344 134.652344 67.902344 C 134.859375 67.902344 135.050781 67.933594 135.230469 68.003906 C 135.410156 68.070312 135.566406 68.164062 135.699219 68.277344 C 135.832031 68.394531 135.9375 68.523438 136.007812 68.664062 C 136.082031 68.804688 136.117188 68.945312 136.117188 69.085938 L 135.929688 69.039062 L 135.929688 68.25 C 135.929688 68.167969 135.957031 68.097656 136.011719 68.042969 C 136.066406 67.988281 136.136719 67.957031 136.21875 67.957031 M 134.722656 71.285156 C 134.964844 71.285156 135.179688 71.222656 135.367188 71.097656 C 135.550781 70.96875 135.699219 70.800781 135.804688 70.582031 C 135.910156 70.367188 135.964844 70.125 135.964844 69.855469 C 135.964844 69.585938 135.910156 69.347656 135.804688 69.132812 C 135.699219 68.917969 135.550781 68.746094 135.367188 68.625 C 135.179688 68.5 134.964844 68.4375 134.722656 68.4375 C 134.484375 68.4375 134.273438 68.5 134.089844 68.621094 C 133.902344 68.742188 133.753906 68.90625 133.648438 69.121094 C 133.542969 69.332031 133.488281 69.578125 133.488281 69.855469 C 133.488281 70.125 133.542969 70.367188 133.648438 70.582031 C 133.753906 70.800781 133.902344 70.96875 134.089844 71.097656 C 134.273438 71.222656 134.484375 71.285156 134.722656 71.285156 M 137.367188 71.152344 C 137.324219 71.089844 137.304688 71.023438 137.308594 70.953125 C 137.3125 70.882812 137.355469 70.824219 137.433594 70.769531 C 137.480469 70.734375 137.539062 70.71875 137.601562 70.726562 C 137.667969 70.730469 137.726562 70.761719 137.78125 70.820312 C 137.917969 70.980469 138.070312 71.105469 138.246094 71.199219 C 138.417969 71.296875 138.632812 71.34375 138.882812 71.34375 C 139 71.335938 139.117188 71.320312 139.234375 71.285156 C 139.347656 71.25 139.445312 71.191406 139.527344 71.105469 C 139.605469 71.023438 139.648438 70.910156 139.648438 70.769531 C 139.648438 70.632812 139.605469 70.527344 139.523438 70.445312 C 139.441406 70.367188 139.335938 70.300781 139.203125 70.25 C 139.074219 70.199219 138.929688 70.152344 138.777344 70.117188 C 138.617188 70.070312 138.457031 70.023438 138.304688 69.964844 C 138.148438 69.910156 138.007812 69.839844 137.886719 69.757812 C 137.761719 69.671875 137.664062 69.566406 137.589844 69.4375 C 137.511719 69.308594 137.476562 69.152344 137.476562 68.96875 C 137.476562 68.75 137.535156 68.5625 137.652344 68.402344 C 137.773438 68.242188 137.933594 68.117188 138.132812 68.03125 C 138.332031 67.945312 138.550781 67.902344 138.789062 67.902344 C 138.925781 67.902344 139.066406 67.917969 139.214844 67.949219 C 139.363281 67.980469 139.507812 68.03125 139.648438 68.109375 C 139.789062 68.183594 139.910156 68.285156 140.015625 68.417969 C 140.0625 68.464844 140.085938 68.523438 140.089844 68.597656 C 140.09375 68.671875 140.0625 68.734375 139.996094 68.792969 C 139.941406 68.832031 139.882812 68.847656 139.816406 68.84375 C 139.753906 68.839844 139.699219 68.816406 139.652344 68.773438 C 139.550781 68.652344 139.425781 68.558594 139.273438 68.492188 C 139.121094 68.425781 138.953125 68.394531 138.769531 68.394531 C 138.652344 68.394531 138.539062 68.410156 138.425781 68.445312 C 138.316406 68.480469 138.222656 68.535156 138.148438 68.617188 C 138.070312 68.695312 138.035156 68.804688 138.035156 68.945312 C 138.039062 69.078125 138.082031 69.183594 138.164062 69.265625 C 138.246094 69.347656 138.359375 69.414062 138.5 69.464844 C 138.640625 69.515625 138.792969 69.566406 138.964844 69.613281 C 139.117188 69.652344 139.269531 69.699219 139.410156 69.75 C 139.554688 69.800781 139.683594 69.867188 139.800781 69.949219 C 139.914062 70.03125 140.007812 70.136719 140.074219 70.265625 C 140.144531 70.394531 140.175781 70.554688 140.175781 70.746094 C 140.175781 70.96875 140.113281 71.164062 139.988281 71.324219 C 139.863281 71.488281 139.695312 71.609375 139.492188 71.695312 C 139.285156 71.78125 139.0625 71.820312 138.828125 71.820312 C 138.558594 71.820312 138.296875 71.769531 138.039062 71.667969 C 137.78125 71.566406 137.554688 71.394531 137.367188 71.152344 M 142.828125 67.9375 C 143.148438 67.9375 143.398438 68.007812 143.585938 68.144531 C 143.773438 68.28125 143.90625 68.464844 143.984375 68.695312 C 144.066406 68.925781 144.105469 69.179688 144.105469 69.460938 L 144.105469 71.453125 C 144.105469 71.535156 144.078125 71.605469 144.023438 71.664062 C 143.964844 71.71875 143.898438 71.75 143.816406 71.75 C 143.734375 71.75 143.664062 71.71875 143.609375 71.664062 C 143.550781 71.605469 143.523438 71.535156 143.523438 71.453125 L 143.523438 69.460938 C 143.523438 69.277344 143.496094 69.113281 143.445312 68.964844 C 143.390625 68.816406 143.304688 68.699219 143.179688 68.609375 C 143.054688 68.519531 142.886719 68.472656 142.675781 68.472656 C 142.476562 68.472656 142.292969 68.519531 142.128906 68.609375 C 141.964844 68.699219 141.835938 68.816406 141.738281 68.964844 C 141.640625 69.113281 141.59375 69.277344 141.59375 69.460938 L 141.59375 71.453125 C 141.59375 71.535156 141.566406 71.605469 141.507812 71.664062 C 141.453125 71.71875 141.382812 71.75 141.300781 71.75 C 141.21875 71.75 141.152344 71.71875 141.09375 71.664062 C 141.039062 71.605469 141.011719 71.535156 141.011719 71.453125 L 141.011719 66.667969 C 141.011719 66.585938 141.039062 66.515625 141.09375 66.460938 C 141.152344 66.402344 141.21875 66.375 141.300781 66.375 C 141.390625 66.375 141.460938 66.402344 141.511719 66.460938 C 141.566406 66.515625 141.59375 66.585938 141.59375 66.667969 L 141.59375 68.835938 L 141.449219 68.996094 C 141.472656 68.871094 141.523438 68.746094 141.605469 68.617188 C 141.691406 68.488281 141.792969 68.371094 141.917969 68.269531 C 142.046875 68.167969 142.1875 68.089844 142.339844 68.027344 C 142.496094 67.96875 142.65625 67.9375 142.828125 67.9375 M 145.730469 71.453125 C 145.730469 71.535156 145.703125 71.605469 145.648438 71.664062 C 145.59375 71.71875 145.523438 71.75 145.441406 71.75 C 145.355469 71.75 145.285156 71.71875 145.230469 71.664062 C 145.175781 71.605469 145.152344 71.535156 145.152344 71.453125 L 145.152344 68.226562 C 145.152344 68.144531 145.179688 68.078125 145.234375 68.019531 C 145.289062 67.964844 145.359375 67.9375 145.441406 67.9375 C 145.523438 67.9375 145.59375 67.964844 145.648438 68.019531 C 145.703125 68.078125 145.730469 68.144531 145.730469 68.226562 L 145.730469 71.453125 M 145.441406 67.449219 C 145.320312 67.449219 145.230469 67.425781 145.171875 67.378906 C 145.113281 67.328125 145.085938 67.253906 145.085938 67.152344 L 145.085938 67.050781 C 145.085938 66.949219 145.117188 66.875 145.179688 66.824219 C 145.242188 66.777344 145.332031 66.753906 145.449219 66.753906 C 145.566406 66.753906 145.652344 66.777344 145.710938 66.824219 C 145.769531 66.875 145.796875 66.949219 145.796875 67.050781 L 145.796875 67.152344 C 145.796875 67.253906 145.765625 67.328125 145.707031 67.378906 C 145.644531 67.425781 145.558594 67.449219 145.441406 67.449219 M 150.300781 69.863281 C 150.300781 70.238281 150.21875 70.574219 150.050781 70.871094 C 149.886719 71.164062 149.664062 71.398438 149.378906 71.566406 C 149.097656 71.738281 148.777344 71.820312 148.417969 71.820312 C 148.066406 71.820312 147.746094 71.738281 147.464844 71.566406 C 147.179688 71.398438 146.957031 71.164062 146.789062 70.871094 C 146.621094 70.574219 146.539062 70.238281 146.539062 69.863281 C 146.539062 69.484375 146.621094 69.148438 146.789062 68.851562 C 146.957031 68.558594 147.179688 68.324219 147.464844 68.15625 C 147.746094 67.984375 148.066406 67.902344 148.417969 67.902344 C 148.777344 67.902344 149.097656 67.984375 149.378906 68.15625 C 149.664062 68.324219 149.886719 68.558594 150.050781 68.851562 C 150.21875 69.148438 150.300781 69.484375 150.300781 69.863281 M 149.71875 69.863281 C 149.71875 69.582031 149.660156 69.332031 149.546875 69.121094 C 149.433594 68.90625 149.277344 68.742188 149.082031 68.621094 C 148.886719 68.5 148.664062 68.4375 148.417969 68.4375 C 148.175781 68.4375 147.957031 68.5 147.757812 68.621094 C 147.558594 68.742188 147.402344 68.90625 147.289062 69.121094 C 147.175781 69.332031 147.117188 69.582031 147.117188 69.863281 C 147.117188 70.136719 147.175781 70.382812 147.289062 70.59375 C 147.402344 70.808594 147.558594 70.976562 147.757812 71.097656 C 147.957031 71.222656 148.175781 71.285156 148.417969 71.285156 C 148.664062 71.285156 148.886719 71.222656 149.082031 71.097656 C 149.277344 70.976562 149.433594 70.808594 149.546875 70.59375 C 149.660156 70.382812 149.71875 70.136719 149.71875 69.863281 M 153 67.902344 C 153.328125 67.902344 153.589844 67.96875 153.777344 68.105469 C 153.964844 68.238281 154.101562 68.421875 154.179688 68.648438 C 154.261719 68.875 154.300781 69.128906 154.300781 69.410156 L 154.300781 71.453125 C 154.300781 71.535156 154.273438 71.605469 154.214844 71.664062 C 154.160156 71.71875 154.09375 71.75 154.007812 71.75 C 153.925781 71.75 153.859375 71.71875 153.804688 71.664062 C 153.746094 71.605469 153.71875 71.535156 153.71875 71.453125 L 153.71875 69.425781 C 153.71875 69.242188 153.691406 69.074219 153.636719 68.929688 C 153.578125 68.78125 153.488281 68.660156 153.359375 68.574219 C 153.230469 68.484375 153.054688 68.4375 152.832031 68.4375 C 152.628906 68.4375 152.445312 68.484375 152.273438 68.574219 C 152.105469 68.660156 151.96875 68.78125 151.867188 68.929688 C 151.765625 69.074219 151.714844 69.242188 151.714844 69.425781 L 151.714844 71.453125 C 151.714844 71.535156 151.6875 71.605469 151.632812 71.664062 C 151.574219 71.71875 151.507812 71.75 151.425781 71.75 C 151.34375 71.75 151.273438 71.71875 151.21875 71.664062 C 151.160156 71.605469 151.132812 71.535156 151.132812 71.453125 L 151.132812 68.285156 C 151.132812 68.203125 151.160156 68.132812 151.21875 68.078125 C 151.273438 68.023438 151.34375 67.996094 151.425781 67.996094 C 151.511719 67.996094 151.582031 68.023438 151.636719 68.078125 C 151.6875 68.132812 151.714844 68.203125 151.714844 68.285156 L 151.714844 68.800781 L 151.570312 68.960938 C 151.59375 68.835938 151.648438 68.707031 151.738281 68.578125 C 151.824219 68.453125 151.933594 68.335938 152.0625 68.234375 C 152.195312 68.132812 152.339844 68.050781 152.5 67.992188 C 152.660156 67.929688 152.824219 67.902344 153 67.902344 M 157.066406 71.820312 C 156.679688 71.820312 156.339844 71.738281 156.050781 71.574219 C 155.757812 71.410156 155.535156 71.183594 155.375 70.894531 C 155.214844 70.609375 155.136719 70.273438 155.136719 69.898438 C 155.136719 69.476562 155.21875 69.117188 155.386719 68.820312 C 155.550781 68.523438 155.769531 68.292969 156.035156 68.136719 C 156.300781 67.980469 156.585938 67.902344 156.886719 67.902344 C 157.113281 67.902344 157.328125 67.941406 157.535156 68.023438 C 157.742188 68.105469 157.925781 68.226562 158.085938 68.382812 C 158.25 68.539062 158.378906 68.730469 158.476562 68.949219 C 158.570312 69.171875 158.621094 69.414062 158.628906 69.6875 C 158.621094 69.765625 158.589844 69.828125 158.535156 69.882812 C 158.476562 69.9375 158.40625 69.964844 158.332031 69.964844 L 155.460938 69.964844 L 155.332031 69.460938 L 158.125 69.460938 L 158.011719 69.5625 L 158.011719 69.402344 C 157.996094 69.207031 157.933594 69.035156 157.816406 68.890625 C 157.703125 68.75 157.566406 68.640625 157.402344 68.5625 C 157.234375 68.484375 157.0625 68.445312 156.886719 68.445312 C 156.738281 68.445312 156.597656 68.472656 156.453125 68.523438 C 156.308594 68.574219 156.183594 68.65625 156.066406 68.769531 C 155.953125 68.882812 155.863281 69.027344 155.796875 69.207031 C 155.726562 69.386719 155.695312 69.601562 155.695312 69.855469 C 155.695312 70.136719 155.75 70.382812 155.863281 70.59375 C 155.980469 70.808594 156.136719 70.976562 156.339844 71.097656 C 156.542969 71.222656 156.777344 71.285156 157.042969 71.285156 C 157.21875 71.285156 157.371094 71.261719 157.496094 71.21875 C 157.621094 71.175781 157.730469 71.121094 157.816406 71.054688 C 157.90625 70.992188 157.984375 70.925781 158.046875 70.855469 C 158.109375 70.8125 158.171875 70.789062 158.234375 70.789062 C 158.304688 70.789062 158.363281 70.816406 158.410156 70.863281 C 158.457031 70.910156 158.484375 70.96875 158.484375 71.039062 C 158.484375 71.121094 158.445312 71.191406 158.367188 71.253906 C 158.226562 71.40625 158.039062 71.539062 157.8125 71.652344 C 157.582031 71.765625 157.332031 71.820312 157.066406 71.820312 M 162.511719 66.375 C 162.601562 66.375 162.671875 66.402344 162.722656 66.460938 C 162.777344 66.515625 162.804688 66.585938 162.804688 66.667969 L 162.804688 71.453125 C 162.804688 71.535156 162.777344 71.605469 162.71875 71.664062 C 162.664062 71.71875 162.59375 71.75 162.511719 71.75 C 162.429688 71.75 162.363281 71.71875 162.304688 71.664062 C 162.25 71.605469 162.222656 71.535156 162.222656 71.453125 L 162.222656 70.761719 L 162.359375 70.710938 C 162.359375 70.828125 162.324219 70.949219 162.253906 71.078125 C 162.183594 71.207031 162.085938 71.324219 161.957031 71.4375 C 161.828125 71.546875 161.679688 71.640625 161.511719 71.714844 C 161.339844 71.785156 161.15625 71.820312 160.957031 71.820312 C 160.628906 71.820312 160.335938 71.738281 160.074219 71.566406 C 159.8125 71.398438 159.605469 71.164062 159.453125 70.871094 C 159.300781 70.574219 159.222656 70.238281 159.222656 69.863281 C 159.222656 69.480469 159.300781 69.140625 159.453125 68.84375 C 159.605469 68.550781 159.808594 68.316406 160.070312 68.152344 C 160.328125 67.984375 160.621094 67.902344 160.945312 67.902344 C 161.148438 67.902344 161.335938 67.933594 161.515625 68.003906 C 161.691406 68.070312 161.847656 68.164062 161.984375 68.277344 C 162.117188 68.394531 162.222656 68.523438 162.296875 68.664062 C 162.375 68.804688 162.410156 68.945312 162.410156 69.085938 L 162.222656 69.039062 L 162.222656 66.667969 C 162.222656 66.585938 162.25 66.515625 162.304688 66.460938 C 162.363281 66.402344 162.429688 66.375 162.511719 66.375 M 161.015625 71.285156 C 161.265625 71.285156 161.480469 71.222656 161.664062 71.097656 C 161.847656 70.976562 161.992188 70.804688 162.097656 70.589844 C 162.207031 70.375 162.257812 70.132812 162.257812 69.863281 C 162.257812 69.585938 162.207031 69.339844 162.097656 69.128906 C 161.992188 68.914062 161.847656 68.746094 161.660156 68.625 C 161.472656 68.5 161.257812 68.4375 161.015625 68.4375 C 160.78125 68.4375 160.566406 68.5 160.382812 68.625 C 160.195312 68.746094 160.050781 68.914062 159.941406 69.128906 C 159.835938 69.339844 159.78125 69.585938 159.78125 69.863281 C 159.78125 70.128906 159.835938 70.367188 159.941406 70.582031 C 160.050781 70.800781 160.195312 70.96875 160.382812 71.097656 C 160.566406 71.222656 160.78125 71.285156 161.015625 71.285156 M 169.652344 66.660156 C 169.734375 66.660156 169.804688 66.683594 169.863281 66.734375 C 169.917969 66.785156 169.949219 66.851562 169.949219 66.933594 C 169.949219 66.972656 169.9375 67.015625 169.917969 67.066406 L 168.023438 71.558594 C 167.996094 71.625 167.957031 71.671875 167.90625 71.703125 C 167.855469 71.734375 167.800781 71.75 167.742188 71.75 C 167.6875 71.746094 167.636719 71.726562 167.589844 71.695312 C 167.539062 71.664062 167.503906 71.617188 167.480469 71.558594 L 165.59375 67.074219 C 165.582031 67.054688 165.574219 67.03125 165.570312 67.011719 C 165.566406 66.988281 165.5625 66.964844 165.5625 66.941406 C 165.5625 66.851562 165.59375 66.777344 165.660156 66.726562 C 165.726562 66.675781 165.789062 66.652344 165.851562 66.652344 C 165.984375 66.652344 166.078125 66.71875 166.136719 66.855469 L 167.871094 70.996094 L 167.707031 70.996094 L 169.382812 66.839844 C 169.441406 66.71875 169.53125 66.660156 169.652344 66.660156 M 173.675781 67.957031 C 173.761719 67.957031 173.832031 67.988281 173.882812 68.042969 C 173.9375 68.097656 173.964844 68.167969 173.964844 68.25 L 173.964844 71.453125 C 173.964844 71.535156 173.9375 71.605469 173.882812 71.664062 C 173.824219 71.71875 173.757812 71.75 173.675781 71.75 C 173.589844 71.75 173.523438 71.71875 173.46875 71.664062 C 173.410156 71.605469 173.382812 71.535156 173.382812 71.453125 L 173.382812 70.761719 L 173.523438 70.746094 C 173.523438 70.855469 173.484375 70.96875 173.414062 71.097656 C 173.339844 71.222656 173.242188 71.339844 173.113281 71.449219 C 172.988281 71.558594 172.839844 71.644531 172.671875 71.714844 C 172.503906 71.785156 172.320312 71.820312 172.121094 71.820312 C 171.789062 71.820312 171.496094 71.734375 171.230469 71.5625 C 170.964844 71.390625 170.761719 71.160156 170.609375 70.863281 C 170.460938 70.566406 170.382812 70.230469 170.382812 69.855469 C 170.382812 69.472656 170.460938 69.132812 170.613281 68.839844 C 170.765625 68.546875 170.972656 68.316406 171.230469 68.152344 C 171.488281 67.984375 171.78125 67.902344 172.105469 67.902344 C 172.3125 67.902344 172.507812 67.933594 172.6875 68.003906 C 172.867188 68.070312 173.023438 68.164062 173.15625 68.277344 C 173.289062 68.394531 173.390625 68.523438 173.464844 68.664062 C 173.535156 68.804688 173.574219 68.945312 173.574219 69.085938 L 173.382812 69.039062 L 173.382812 68.25 C 173.382812 68.167969 173.410156 68.097656 173.46875 68.042969 C 173.523438 67.988281 173.589844 67.957031 173.675781 67.957031 M 172.179688 71.285156 C 172.421875 71.285156 172.632812 71.222656 172.820312 71.097656 C 173.007812 70.96875 173.152344 70.800781 173.261719 70.582031 C 173.367188 70.367188 173.417969 70.125 173.417969 69.855469 C 173.417969 69.585938 173.367188 69.347656 173.261719 69.132812 C 173.152344 68.917969 173.007812 68.746094 172.820312 68.625 C 172.632812 68.5 172.421875 68.4375 172.179688 68.4375 C 171.941406 68.4375 171.730469 68.5 171.542969 68.621094 C 171.355469 68.742188 171.210938 68.90625 171.101562 69.121094 C 170.996094 69.332031 170.945312 69.578125 170.945312 69.855469 C 170.945312 70.125 170.996094 70.367188 171.101562 70.582031 C 171.210938 70.800781 171.355469 70.96875 171.542969 71.097656 C 171.730469 71.222656 171.941406 71.285156 172.179688 71.285156 M 175.671875 71.453125 C 175.671875 71.535156 175.640625 71.605469 175.582031 71.664062 C 175.527344 71.71875 175.457031 71.75 175.375 71.75 C 175.289062 71.75 175.222656 71.71875 175.171875 71.664062 C 175.117188 71.605469 175.089844 71.535156 175.089844 71.453125 L 175.089844 66.667969 C 175.089844 66.585938 175.117188 66.515625 175.171875 66.460938 C 175.230469 66.402344 175.296875 66.375 175.378906 66.375 C 175.46875 66.375 175.539062 66.402344 175.589844 66.460938 C 175.644531 66.515625 175.671875 66.585938 175.671875 66.667969 L 175.671875 71.453125 M 179.5625 67.996094 C 179.648438 67.996094 179.71875 68.023438 179.773438 68.078125 C 179.828125 68.132812 179.851562 68.203125 179.851562 68.285156 L 179.851562 70.269531 C 179.851562 70.757812 179.714844 71.136719 179.441406 71.40625 C 179.167969 71.671875 178.789062 71.808594 178.300781 71.808594 C 177.816406 71.808594 177.4375 71.671875 177.164062 71.40625 C 176.890625 71.136719 176.753906 70.757812 176.753906 70.269531 L 176.753906 68.285156 C 176.753906 68.203125 176.78125 68.132812 176.835938 68.078125 C 176.890625 68.023438 176.960938 67.996094 177.042969 67.996094 C 177.128906 67.996094 177.199219 68.023438 177.253906 68.078125 C 177.308594 68.132812 177.332031 68.203125 177.332031 68.285156 L 177.332031 70.269531 C 177.332031 70.597656 177.417969 70.847656 177.585938 71.015625 C 177.757812 71.183594 177.996094 71.269531 178.300781 71.269531 C 178.613281 71.269531 178.855469 71.183594 179.023438 71.015625 C 179.1875 70.847656 179.273438 70.597656 179.273438 70.269531 L 179.273438 68.285156 C 179.273438 68.203125 179.300781 68.132812 179.355469 68.078125 C 179.410156 68.023438 179.480469 67.996094 179.5625 67.996094 M 182.621094 71.820312 C 182.234375 71.820312 181.894531 71.738281 181.605469 71.574219 C 181.3125 71.410156 181.089844 71.183594 180.929688 70.894531 C 180.769531 70.609375 180.6875 70.273438 180.6875 69.898438 C 180.6875 69.476562 180.773438 69.117188 180.9375 68.820312 C 181.105469 68.523438 181.324219 68.292969 181.589844 68.136719 C 181.855469 67.980469 182.136719 67.902344 182.4375 67.902344 C 182.667969 67.902344 182.882812 67.941406 183.089844 68.023438 C 183.292969 68.105469 183.476562 68.226562 183.640625 68.382812 C 183.800781 68.539062 183.933594 68.730469 184.027344 68.949219 C 184.125 69.171875 184.175781 69.414062 184.179688 69.6875 C 184.175781 69.765625 184.144531 69.828125 184.085938 69.882812 C 184.027344 69.9375 183.960938 69.964844 183.882812 69.964844 L 181.015625 69.964844 L 180.882812 69.460938 L 183.679688 69.460938 L 183.5625 69.5625 L 183.5625 69.402344 C 183.550781 69.207031 183.484375 69.035156 183.371094 68.890625 C 183.257812 68.75 183.117188 68.640625 182.953125 68.5625 C 182.789062 68.484375 182.617188 68.445312 182.4375 68.445312 C 182.292969 68.445312 182.148438 68.472656 182.007812 68.523438 C 181.863281 68.574219 181.734375 68.65625 181.621094 68.769531 C 181.507812 68.882812 181.417969 69.027344 181.347656 69.207031 C 181.28125 69.386719 181.246094 69.601562 181.246094 69.855469 C 181.246094 70.136719 181.304688 70.382812 181.417969 70.59375 C 181.53125 70.808594 181.691406 70.976562 181.894531 71.097656 C 182.097656 71.222656 182.332031 71.285156 182.597656 71.285156 C 182.773438 71.285156 182.921875 71.261719 183.046875 71.21875 C 183.175781 71.175781 183.28125 71.121094 183.371094 71.054688 C 183.460938 70.992188 183.539062 70.925781 183.601562 70.855469 C 183.664062 70.8125 183.726562 70.789062 183.789062 70.789062 C 183.855469 70.789062 183.914062 70.816406 183.964844 70.863281 C 184.011719 70.910156 184.035156 70.96875 184.035156 71.039062 C 184.035156 71.121094 183.996094 71.191406 183.921875 71.253906 C 183.78125 71.40625 183.59375 71.539062 183.363281 71.652344 C 183.132812 71.765625 182.886719 71.820312 182.621094 71.820312 M 184.796875 71.152344 C 184.753906 71.089844 184.734375 71.023438 184.742188 70.953125 C 184.746094 70.882812 184.785156 70.824219 184.863281 70.769531 C 184.914062 70.734375 184.96875 70.71875 185.035156 70.726562 C 185.101562 70.730469 185.160156 70.761719 185.210938 70.820312 C 185.347656 70.980469 185.503906 71.105469 185.675781 71.199219 C 185.851562 71.296875 186.066406 71.34375 186.316406 71.34375 C 186.433594 71.335938 186.546875 71.320312 186.664062 71.285156 C 186.78125 71.25 186.878906 71.191406 186.960938 71.105469 C 187.039062 71.023438 187.078125 70.910156 187.078125 70.769531 C 187.078125 70.632812 187.039062 70.527344 186.957031 70.445312 C 186.875 70.367188 186.765625 70.300781 186.636719 70.25 C 186.503906 70.199219 186.363281 70.152344 186.207031 70.117188 C 186.046875 70.070312 185.890625 70.023438 185.734375 69.964844 C 185.582031 69.910156 185.441406 69.839844 185.316406 69.757812 C 185.195312 69.671875 185.09375 69.566406 185.019531 69.4375 C 184.945312 69.308594 184.90625 69.152344 184.90625 68.96875 C 184.90625 68.75 184.96875 68.5625 185.085938 68.402344 C 185.203125 68.242188 185.363281 68.117188 185.566406 68.03125 C 185.765625 67.945312 185.984375 67.902344 186.222656 67.902344 C 186.359375 67.902344 186.5 67.917969 186.648438 67.949219 C 186.792969 67.980469 186.9375 68.03125 187.078125 68.109375 C 187.21875 68.183594 187.34375 68.285156 187.449219 68.417969 C 187.492188 68.464844 187.515625 68.523438 187.523438 68.597656 C 187.527344 68.671875 187.496094 68.734375 187.425781 68.792969 C 187.375 68.832031 187.316406 68.847656 187.25 68.84375 C 187.183594 68.839844 187.128906 68.816406 187.085938 68.773438 C 186.984375 68.652344 186.855469 68.558594 186.703125 68.492188 C 186.550781 68.425781 186.382812 68.394531 186.199219 68.394531 C 186.085938 68.394531 185.96875 68.410156 185.859375 68.445312 C 185.746094 68.480469 185.65625 68.535156 185.578125 68.617188 C 185.503906 68.695312 185.46875 68.804688 185.46875 68.945312 C 185.472656 69.078125 185.515625 69.183594 185.597656 69.265625 C 185.679688 69.347656 185.792969 69.414062 185.929688 69.464844 C 186.070312 69.515625 186.226562 69.566406 186.394531 69.613281 C 186.550781 69.652344 186.699219 69.699219 186.84375 69.75 C 186.984375 69.800781 187.113281 69.867188 187.230469 69.949219 C 187.347656 70.03125 187.441406 70.136719 187.507812 70.265625 C 187.574219 70.394531 187.609375 70.554688 187.609375 70.746094 C 187.609375 70.96875 187.546875 71.164062 187.421875 71.324219 C 187.292969 71.488281 187.128906 71.609375 186.921875 71.695312 C 186.71875 71.78125 186.496094 71.820312 186.257812 71.820312 C 185.992188 71.820312 185.730469 71.769531 185.46875 71.667969 C 185.210938 71.566406 184.988281 71.394531 184.796875 71.152344 M 188.617188 71.742188 C 188.515625 71.742188 188.4375 71.714844 188.382812 71.65625 C 188.328125 71.597656 188.296875 71.515625 188.296875 71.414062 L 188.296875 71.269531 C 188.296875 71.164062 188.328125 71.082031 188.382812 71.023438 C 188.4375 70.964844 188.515625 70.9375 188.617188 70.9375 L 188.675781 70.9375 C 188.78125 70.9375 188.863281 70.964844 188.914062 71.023438 C 188.96875 71.082031 188.996094 71.164062 188.996094 71.269531 L 188.996094 71.414062 C 188.996094 71.515625 188.96875 71.597656 188.914062 71.65625 C 188.863281 71.714844 188.78125 71.742188 188.675781 71.742188 L 188.617188 71.742188 "/></g></svg>